<svg width="28" height="28" viewBox="0 0 28 28" fill="none" xmlns="http://www.w3.org/2000/svg">
<g clip-path="url(#clip0)">
<path d="M25.7687 12.6366L14.8532 1.84435L14.8556 1.84943C13.6254 0.616392 12.004 -0.00272536 10.3904 9.01769e-06C8.77913 -0.00272536 7.1577 0.616392 5.92739 1.84943C4.69474 3.07936 4.07584 4.69822 4.07814 6.31243C4.07584 7.92582 4.69468 9.54704 5.92739 10.7774L8.5035 13.3258C8.42585 13.3235 8.34808 13.3235 8.27059 13.3235C6.1579 13.3235 4.2387 13.8547 2.80271 14.7542C2.08598 15.2051 1.4871 15.7489 1.06113 16.3829C0.632822 17.0145 0.38208 17.741 0.38208 18.5079V22.8129C0.38208 23.5794 0.632822 24.3063 1.06113 24.9379C1.70273 25.8875 2.72238 26.6414 3.96542 27.1708C5.21082 27.6993 6.68678 27.9973 8.27059 28C10.3804 27.9973 12.2997 27.4664 13.7355 26.5666C14.4546 26.1181 15.051 25.572 15.4795 24.938C15.9057 24.3063 16.1562 23.5794 16.1562 22.8129V20.891L16.8427 21.5705L16.8404 21.565C18.0705 22.7977 19.692 23.4172 21.3055 23.4144C22.9169 23.4172 24.5382 22.7977 25.7687 21.5677C27.0013 20.3346 27.6179 18.7162 27.6179 17.102C27.6179 15.4882 27.0014 13.8693 25.7687 12.6366ZM7.73684 8.13128C6.69198 7.08407 6.69198 5.36245 7.75171 4.30266C8.26282 3.79139 8.94439 3.50833 9.67135 3.50833L7.73684 8.13128ZM1.63497 18.5079C1.63732 18.0143 1.79023 17.5434 2.09883 17.0819C2.36953 16.6789 2.76771 16.2927 3.26624 15.9496L12.8536 21.5602C12.6356 21.6802 12.4051 21.7932 12.1618 21.8959C11.0619 22.3644 9.71882 22.6401 8.2707 22.6401C6.33585 22.6428 4.59187 22.1464 3.36173 21.3721C2.7454 20.984 2.25923 20.5299 1.9334 20.0441C1.81281 19.8633 1.71285 19.6807 1.63503 19.4928V18.5079H1.63497ZM14.9034 22.8129C14.9034 23.3065 14.7479 23.7778 14.4399 24.2385C13.9785 24.9254 13.1593 25.5617 12.0843 26.0182C11.0118 26.4741 9.69367 26.7474 8.27064 26.7474C6.37107 26.7474 4.65968 26.2585 3.46952 25.5069C2.87299 25.1333 2.40678 24.6949 2.09883 24.2385C1.79028 23.7778 1.63732 23.3065 1.63497 22.8129V21.0365C2.24129 21.7077 3.06838 22.2668 4.04308 22.68C5.26086 23.1968 6.71172 23.4924 8.27064 23.4924C10.3478 23.4924 12.2322 22.9681 13.6303 22.0911C14.1214 21.7856 14.5499 21.4324 14.9034 21.0387V22.8129ZM14.9034 19.4928C14.8885 19.5305 14.8732 19.5654 14.8532 19.603C14.7857 19.7535 14.7028 19.8986 14.605 20.044C14.3946 20.3597 14.1114 20.6581 13.7757 20.936L4.28365 15.3831C4.34129 15.358 4.39658 15.3278 4.45406 15.3054C5.52653 14.8494 6.84472 14.5762 8.2707 14.5762C8.83179 14.5762 9.37582 14.6189 9.89431 14.6993C11.1323 14.8871 12.2297 15.2878 13.0691 15.8139C13.1718 15.8766 13.2697 15.9445 13.3622 16.0123C13.8158 16.3354 14.1742 16.6937 14.4273 17.0674C14.4323 17.0721 14.4373 17.0772 14.44 17.0819C14.748 17.5433 14.9034 18.0143 14.9034 18.5079V19.4928H14.9034ZM24.7062 20.5024C23.764 21.4426 22.5385 21.9107 21.3056 21.9107C20.0703 21.9107 18.8451 21.4445 17.9028 20.5024L17.9002 20.5L16.1563 18.7761V18.5079C16.1563 17.741 15.9057 17.0145 15.4795 16.3829C14.9436 15.5936 14.1492 14.9397 13.1818 14.4386C13.3022 14.1253 13.4549 13.7842 13.6429 13.4341C14.1742 12.4362 14.9711 11.3537 16.0261 10.5221C17.0759 9.6925 18.3666 9.10122 19.9627 9.01066L24.7037 13.6991H24.7062C25.6458 14.6412 26.1144 15.8692 26.1144 17.1019C26.1144 18.335 25.6458 19.563 24.7062 20.5024Z" fill="white"/>
</g>
<defs>
<clipPath id="clip0">
<rect width="28" height="28" fill="white"/>
</clipPath>
</defs>
</svg>
