<svg width="28" height="28" viewBox="0 0 28 28" fill="none" xmlns="http://www.w3.org/2000/svg">
<path d="M26.2254 14.5334C26.0937 14.1901 26.0937 13.8102 26.2254 13.4657L27.29 10.6708C27.5416 10.011 27.2989 9.26717 26.7087 8.88173L24.2042 7.24635C23.896 7.04499 23.6727 6.73683 23.5769 6.38224L22.7951 3.49479C22.611 2.81431 21.9769 2.35374 21.2732 2.38879L18.2853 2.5382C17.9181 2.55592 17.5567 2.43899 17.2701 2.2081L14.9407 0.332104C14.3919 -0.110701 13.6085 -0.110701 13.0593 0.332104L10.7299 2.2081C10.4433 2.43899 10.082 2.55592 9.71425 2.5382L6.72672 2.38879C6.023 2.35379 5.38896 2.81431 5.20493 3.49479L4.42356 6.38224C4.32731 6.73683 4.10402 7.04499 3.79585 7.24635L1.29128 8.88167C0.701144 9.26711 0.458824 10.0117 0.710003 10.6707L1.7751 13.4661C1.9064 13.8102 1.9064 14.1901 1.7751 14.5337L0.710003 17.3291C0.458824 17.9876 0.701144 18.7327 1.29128 19.1181L3.79585 20.7539C4.10402 20.9544 4.32731 21.2618 4.42356 21.6172L5.20493 24.5046C5.38901 25.1855 6.02306 25.6457 6.72672 25.6106L9.71425 25.462C10.082 25.443 10.4433 25.5608 10.7299 25.7913L13.0593 27.6681C13.6085 28.1106 14.3919 28.1106 14.9403 27.6681L17.2701 25.7913C17.5563 25.5609 17.9181 25.4431 18.2853 25.462L21.2732 25.6106C21.9769 25.6457 22.611 25.1855 22.7951 24.5046L23.5769 21.6172C23.6727 21.2618 23.896 20.9544 24.2042 20.7539L26.7087 19.1181C27.2989 18.7327 27.5416 17.9876 27.2896 17.3291L26.2254 14.5334ZM15.7927 20.1866C15.7927 20.7582 15.3291 21.2226 14.7576 21.2226H13.2425C12.6709 21.2226 12.207 20.7582 12.207 20.1866V18.6053C12.207 18.0337 12.6709 17.5693 13.2425 17.5693H14.7576C15.3291 17.5693 15.7927 18.0337 15.7927 18.6053V20.1866ZM15.7927 14.7081C15.7927 15.2797 15.3291 15.7432 14.7576 15.7432H13.2425C12.6709 15.7432 12.207 15.2797 12.207 14.7081V7.81368C12.207 7.24127 12.6709 6.77774 13.2425 6.77774H14.7576C15.3291 6.77774 15.7927 7.24127 15.7927 7.81368V14.7081Z" fill="white"/>
</svg>
