<svg width="28" height="28" viewBox="0 0 28 28" fill="none" xmlns="http://www.w3.org/2000/svg">
<path d="M27.5394 8.86804C27.4993 8.79273 27.279 8.37716 26.9834 7.81137C26.6981 7.27056 26.3475 6.60452 26.002 5.95374C24.5849 3.28001 21.2503 0.741256 19.0272 0.626303C18.9719 0.616021 18.922 0.616022 18.8668 0.616022L18.161 0.63117L18.0358 0.966623L17.9206 1.28687C17.8854 1.38219 17.0742 3.54011 14.4506 3.76553C14.3804 3.77045 14.3105 3.77526 14.2352 3.78068C14.1601 3.78554 14.08 3.78554 14 3.78554C13.8748 3.78554 13.7596 3.78068 13.6445 3.77526C13.5692 3.7704 13.4993 3.76061 13.4291 3.75574C10.9055 3.47503 10.1143 1.38219 10.0793 1.28687L9.94908 0.926482L9.83905 0.631115L9.13292 0.615967C9.03782 0.615967 8.93758 0.620834 8.83761 0.635982C6.61932 0.841389 3.38472 3.33465 1.99773 5.95363C1.65227 6.60447 1.30167 7.27045 1.01631 7.81126C0.721 8.37705 0.500719 8.79262 0.460578 8.86793L0 9.68906L0.791109 10.1946L4.79172 12.7687L5.65305 13.3193L6.18362 12.4479L6.43398 12.0474C6.59433 13.1491 6.6745 14.6962 6.42906 16.7441C6.03859 20.0589 5.64304 21.9263 5.4127 23.0382C5.13712 24.335 4.95698 25.2064 5.86327 25.7971C6.23372 26.0475 8.40695 27.3843 13.9999 27.3843C19.5928 27.3843 21.7659 26.0475 22.1365 25.7971C23.0429 25.2064 22.8624 24.335 22.5871 23.0382C22.3568 21.9263 21.9612 20.0588 21.5707 16.7441C21.3253 14.6962 21.4055 13.1491 21.5656 12.0474L21.816 12.4479L22.3467 13.3193L23.2078 12.7687L27.2087 10.1946L28 9.68906L27.5394 8.86804ZM18.8668 1.61746H18.947C19.3976 2.10297 19.6732 2.74894 19.6732 3.46529C19.6732 4.22129 19.3675 4.89701 18.8719 5.39287C18.3761 5.88866 17.7001 6.19382 16.9442 6.19382C16.1882 6.19382 15.5122 5.88866 15.0164 5.39287C14.831 5.20753 14.6709 4.99731 14.5457 4.76204C17.8754 4.47647 18.8668 1.61746 18.8668 1.61746ZM9.13292 1.61746C9.13292 1.61746 10.0994 4.41144 13.3389 4.75182C13.2137 4.98752 13.0536 5.20266 12.8634 5.39287C12.3676 5.88866 11.6915 6.19382 10.9356 6.19382C10.1796 6.19382 9.50359 5.88866 9.00774 5.39287C8.51216 4.89707 8.20657 4.22129 8.20657 3.46529C8.20657 2.75436 8.47695 2.11326 8.92779 1.62769C8.99773 1.62233 9.06784 1.61746 9.13292 1.61746ZM22.6674 11.9222L21.8461 10.6054C22.1014 9.70421 22.3569 8.958 22.4371 8.70277C22.4569 8.62747 22.472 8.58738 22.472 8.58738L21.5156 8.29201C21.5156 8.29694 21.3105 8.95319 21.08 9.86947C20.7797 10.6255 20.0985 12.8738 20.5743 16.8693C21.4105 23.8793 22.2417 24.5453 21.5758 24.9609C21.5758 24.9609 19.6731 26.3829 13.9999 26.3829C8.32677 26.3829 6.42414 24.9609 6.42414 24.9609C5.75821 24.5453 6.58919 23.8793 7.42558 16.8693C7.90114 12.8738 7.22023 10.6255 6.91977 9.86947C6.68943 8.95313 6.48408 8.29694 6.48408 8.29201L5.52787 8.58738C5.52787 8.58738 5.5428 8.62747 5.56281 8.70277C5.64304 8.958 5.89827 9.70421 6.15377 10.6054L5.33258 11.9222L1.3317 9.35842C1.41192 9.21322 2.16809 7.77122 2.88395 6.41426C3.92547 4.4564 6.0486 2.67408 7.75102 1.95286C7.5256 2.40857 7.40556 2.92444 7.40556 3.46529C7.40556 5.41288 8.98767 6.99526 10.9355 6.99526C12.2073 6.99526 13.324 6.319 13.9398 5.30783C14.5557 6.319 15.6723 6.99526 16.9442 6.99526C18.892 6.99526 20.4741 5.41288 20.4741 3.46529C20.4741 2.89906 20.3389 2.36362 20.0986 1.89276C21.8212 2.56902 24.0444 4.39635 25.1157 6.41432C25.8319 7.77128 26.5879 9.21328 26.668 9.35847L22.6674 11.9222Z" fill="white"/>
<path d="M14.065 8.27197C13.6502 8.27197 13.314 8.60841 13.314 9.02305C13.314 9.43769 13.6502 9.77413 14.065 9.77413C14.4799 9.77413 14.8161 9.43769 14.8161 9.02305C14.8161 8.60836 14.4799 8.27197 14.065 8.27197Z" fill="white"/>
<path d="M14.065 12.6116C13.6502 12.6116 13.314 12.948 13.314 13.3627C13.314 13.7773 13.6502 14.1137 14.065 14.1137C14.4799 14.1137 14.8161 13.7773 14.8161 13.3627C14.8161 12.948 14.4799 12.6116 14.065 12.6116Z" fill="white"/>
<path d="M14.065 16.9509C13.6502 16.9509 13.314 17.2874 13.314 17.702C13.314 18.1166 13.6502 18.4536 14.065 18.4536C14.4799 18.4536 14.8161 18.1166 14.8161 17.702C14.8161 17.2874 14.4799 16.9509 14.065 16.9509Z" fill="white"/>
<path d="M14.1044 21.2916C13.69 21.27 13.3367 21.5883 13.315 22.0026C13.2935 22.4167 13.6115 22.7703 14.0257 22.7917C14.4401 22.8133 14.7934 22.4955 14.8151 22.0808C14.8367 21.6672 14.5186 21.3131 14.1044 21.2916Z" fill="white"/>
</svg>
