<svg width="28" height="28" viewBox="0 0 28 28" fill="none" xmlns="http://www.w3.org/2000/svg">
<path d="M7.36918 0V16.8265C6.58458 16.7039 5.74037 16.7416 4.8961 17.0071C2.36806 17.8019 0.864813 20.1815 1.53867 22.3224C2.21171 24.4587 4.8074 25.5487 7.33467 24.7539C9.27296 24.1445 10.7738 22.602 10.989 20.9543V6.43136L23.0028 8.71598V19.8077C22.2338 19.6946 21.4084 19.7339 20.5846 19.9938C18.0565 20.791 16.5533 23.1706 17.2272 25.3069C17.8995 27.4469 20.4951 28.5347 23.0231 27.7399C25.0329 27.1069 26.4882 25.4702 26.6224 23.7533V3.31822L7.36918 0Z" fill="white"/>
</svg>
