<svg width="28" height="28" viewBox="0 0 28 28" fill="none" xmlns="http://www.w3.org/2000/svg">
<path d="M27.8998 21.4387L25.4064 18.3037V5.11936C25.4064 4.48159 24.8892 3.96436 24.2514 3.96436H3.74861C3.11084 3.96436 2.59388 4.48159 2.59388 5.11936V18.3037L0.100461 21.4387C0.0354375 21.5205 0 21.6216 0 21.7266V23.1142C0 23.6234 0.412453 24.0357 0.92143 24.0357H27.0786C27.5877 24.0357 28 23.6234 28 23.1142V21.7266C28 21.6216 27.965 21.5205 27.8998 21.4387ZM4.2233 5.59404H23.7767V16.6741H4.2233V5.59404ZM16.6316 22.9398H11.3684V21.5464H16.6316V22.9398Z" fill="white"/>
<path d="M11.1783 9.15649C11.1719 9.15649 11.166 9.15846 11.1613 9.16174L8.01543 11.3091C8.00712 11.3152 8.0022 11.3243 8.0022 11.3346V11.9119C8.0022 11.9223 8.00712 11.9318 8.01543 11.937L11.1613 14.0843C11.166 14.0881 11.1719 14.09 11.1783 14.09C11.183 14.09 11.188 14.0886 11.1922 14.0862C11.2021 14.081 11.2085 14.0706 11.2085 14.0593V13.1392C11.2085 13.1298 11.2036 13.1199 11.1953 13.1142L9.01107 11.623L11.1953 10.1323C11.2036 10.1262 11.2085 10.1172 11.2085 10.1068V9.18723C11.2085 9.17591 11.2021 9.16503 11.1922 9.16032C11.188 9.15748 11.183 9.15649 11.1783 9.15649Z" fill="white"/>
<path d="M16.7382 9.16174C16.7332 9.15846 16.7276 9.15649 16.7212 9.15649C16.7162 9.15649 16.7115 9.15748 16.707 9.16032C16.6973 9.16503 16.6909 9.17591 16.6909 9.18723V10.1073C16.6909 10.1172 16.6959 10.1267 16.7042 10.1323L18.8884 11.623L16.7042 13.1142C16.6959 13.1199 16.6909 13.1298 16.6909 13.1397V14.0592C16.6909 14.0705 16.6973 14.0809 16.707 14.0862C16.7115 14.0885 16.7162 14.09 16.7212 14.09C16.7276 14.09 16.7332 14.0881 16.7382 14.0843L19.8839 11.9369C19.8928 11.9317 19.8975 11.9223 19.8975 11.9119V11.3346C19.8975 11.3242 19.8928 11.3152 19.8839 11.309L16.7382 9.16174Z" fill="white"/>
<path d="M15.3877 8.65283H14.5083C14.4954 8.65283 14.4838 8.66087 14.4798 8.67318L12.483 14.4633C12.4799 14.4723 12.4816 14.4827 12.487 14.4902C12.493 14.4983 12.5022 14.5035 12.5118 14.5035H13.3912C13.4042 14.5035 13.4158 14.4949 13.4198 14.4827L15.4164 8.69352C15.4197 8.68411 15.418 8.67367 15.4126 8.66563C15.4066 8.65759 15.3974 8.65283 15.3877 8.65283Z" fill="white"/>
</svg>
