<svg width="282" height="44" viewBox="0 0 282 44" fill="none" xmlns="http://www.w3.org/2000/svg">
<path d="M6.39844 11.7188V12.8906C6.08594 12.5781 5.80469 12.4219 5.55469 12.4219H4.80469C5.17969 12.0573 5.36719 11.7708 5.36719 11.5625V8.76562C5.36719 8.55729 5.17969 8.27083 4.80469 7.90625H9.92969C9.55469 8.27083 9.36719 8.55729 9.36719 8.76562V10.8594C9.36719 11.0677 9.55469 11.3542 9.92969 11.7188H6.39844ZM6.39844 10.7969H8.33594V8.85938H6.39844V10.7969ZM6.83594 2.79688H4.99219V6.84375C4.99219 8.35417 4.94531 9.58333 4.85156 10.5312C4.75781 11.4792 4.57552 12.3438 4.30469 13.125L3.33594 12.6094C3.54427 11.8802 3.6901 11.0833 3.77344 10.2188C3.85677 9.35417 3.89844 8.14583 3.89844 6.59375V2.64062C3.89844 2.43229 3.72135 2.14583 3.36719 1.78125H11.4297C11.0755 2.14583 10.8984 2.43229 10.8984 2.64062V11.625C10.8984 12.3958 10.8151 12.8854 10.6484 13.0938C10.4818 13.2917 10.1172 13.3906 9.55469 13.3906C9.28385 13.3906 8.84635 13.3698 8.24219 13.3281L8.21094 12.25C8.8151 12.2917 9.22135 12.3125 9.42969 12.3125C9.61719 12.3125 9.72135 12.276 9.74219 12.2031C9.76302 12.1302 9.77344 11.875 9.77344 11.4375V2.79688H7.92969V3.85938H8.64844C8.91927 3.85938 9.21094 3.70312 9.52344 3.39062V5.26562C9.21094 4.95312 8.91927 4.79688 8.64844 4.79688H7.92969V6.125H8.80469C9.05469 6.125 9.33594 5.96875 9.64844 5.65625V7.53125C9.33594 7.21875 9.05469 7.0625 8.80469 7.0625H5.99219C5.72135 7.0625 5.42969 7.21875 5.11719 7.53125V5.65625C5.42969 5.96875 5.72135 6.125 5.99219 6.125H6.83594V4.79688H6.11719C5.86719 4.79688 5.58594 4.95312 5.27344 5.26562V3.39062C5.58594 3.70312 5.86719 3.85938 6.11719 3.85938H6.83594V2.79688ZM0.929688 2.5625L1.67969 1.82812C2.38802 2.71354 3.0651 3.66146 3.71094 4.67188L2.96094 5.40625C2.21094 4.3125 1.53385 3.36458 0.929688 2.5625ZM2.33594 12.75V8.46875H1.77344C1.52344 8.46875 1.24219 8.625 0.929688 8.9375V6.9375C1.24219 7.25 1.52344 7.40625 1.77344 7.40625H3.99219C3.63802 7.77083 3.46094 8.05729 3.46094 8.26562V12.3594C3.64844 12.8698 3.8776 13.2604 4.14844 13.5312C4.41927 13.7917 4.8099 13.9792 5.32031 14.0938C5.83073 14.2188 6.5651 14.2812 7.52344 14.2812H11.1484L11.1172 15.3594H7.49219C6.15885 15.3594 5.14844 15.224 4.46094 14.9531C3.77344 14.6927 3.28385 14.2396 2.99219 13.5938C2.63802 14.2708 2.07552 14.9479 1.30469 15.625L0.773438 14.5938C1.4401 13.9896 1.92969 13.375 2.24219 12.75H2.33594ZM12.2578 1.84375C12.5703 2.15625 12.862 2.3125 13.1328 2.3125H18.3516C17.9766 2.67708 17.7891 2.96354 17.7891 3.17188V3.39062C16.4974 6.45312 15.4141 9.98958 14.5391 14H13.3203C14.2161 10.1042 15.3203 6.57812 16.6328 3.42188V3.39062H13.1328C12.862 3.39062 12.5703 3.54688 12.2578 3.85938V1.84375ZM21.0859 5.34375C20.7109 5.34375 20.4036 5.42188 20.1641 5.57812C19.9245 5.72396 19.6224 6.01042 19.2578 6.4375C19.5391 5.6875 19.6797 4.91667 19.6797 4.125H27.5234C27.5234 4.89583 27.6693 5.66667 27.9609 6.4375C27.6172 6.05208 27.3516 5.79167 27.1641 5.65625C26.9766 5.51042 26.7578 5.41667 26.5078 5.375C25.8828 5.38542 25.2995 5.57812 24.7578 5.95312C24.2266 6.31771 23.8203 6.78646 23.5391 7.35938C23.1224 8.20312 23.0495 9.18229 23.3203 10.2969C23.4557 10.776 23.6484 11.2552 23.8984 11.7344C24.1589 12.2031 24.5078 12.7656 24.9453 13.4219C25.3828 14.0677 25.6693 14.5 25.8047 14.7188L26.9922 16.7656C26.9714 16.7865 26.9036 16.8542 26.7891 16.9688C26.6745 17.0938 26.5911 17.1771 26.5391 17.2188C26.4974 17.2708 26.4193 17.3594 26.3047 17.4844C26.1901 17.6198 26.0964 17.7344 26.0234 17.8281C25.9609 17.9323 25.8828 18.0521 25.7891 18.1875C25.6953 18.3333 25.6068 18.4844 25.5234 18.6406C25.4505 18.8073 25.3776 18.9792 25.3047 19.1562C25.3464 18.5625 25.2839 17.9427 25.1172 17.2969C24.9609 16.6615 24.737 16.0521 24.4453 15.4688C24.1536 14.8958 23.8516 14.3385 23.5391 13.7969C23.2266 13.2552 22.9245 12.6875 22.6328 12.0938C22.3516 11.4896 22.1536 10.9479 22.0391 10.4688C21.6953 8.96875 21.8984 7.61979 22.6484 6.42188C22.9193 5.95312 23.2057 5.59375 23.5078 5.34375H21.0859ZM24.0234 2.70312C23.8776 2.54688 23.8047 2.36458 23.8047 2.15625C23.8047 1.94792 23.8776 1.77083 24.0234 1.625C24.1797 1.47917 24.362 1.40625 24.5703 1.40625C24.7786 1.40625 24.9557 1.48438 25.1016 1.64062C25.2578 1.78646 25.3359 1.95833 25.3359 2.15625C25.3359 2.36458 25.2578 2.54688 25.1016 2.70312C24.9557 2.84896 24.7786 2.92188 24.5703 2.92188C24.362 2.92188 24.1797 2.84896 24.0234 2.70312ZM26.1797 2.70312C26.0339 2.54688 25.9609 2.36458 25.9609 2.15625C25.9609 1.94792 26.0339 1.77083 26.1797 1.625C26.3359 1.47917 26.513 1.40625 26.7109 1.40625C26.9297 1.40625 27.112 1.47917 27.2578 1.625C27.4036 1.77083 27.4766 1.94792 27.4766 2.15625C27.4766 2.36458 27.4036 2.54688 27.2578 2.70312C27.112 2.84896 26.9297 2.92188 26.7109 2.92188C26.5026 2.92188 26.3255 2.84896 26.1797 2.70312ZM37.3203 3.4375C37.7786 3.8125 38.3359 3.99479 38.9922 3.98438C38.7214 4.43229 38.4505 5.02604 38.1797 5.76562C38.0964 5.99479 37.7839 6.76042 37.2422 8.0625C36.6797 9.36458 36.0547 10.4896 35.3672 11.4375C36.4089 12.5208 36.9557 13.0833 37.0078 13.125C37.612 13.5625 38.0651 13.8438 38.3672 13.9688L35.6953 13.9844C35.737 13.8698 35.737 13.7448 35.6953 13.6094C35.6641 13.474 35.6068 13.3646 35.5234 13.2812C35.513 13.25 35.2266 12.9375 34.6641 12.3438C33.8411 13.25 33.0651 13.875 32.3359 14.2188C31.7734 14.4688 31.0755 14.6042 30.2422 14.625C30.0859 14.625 29.7161 14.6042 29.1328 14.5625C29.1849 13.9583 29.0182 13.3594 28.6328 12.7656C28.737 12.8177 28.8255 12.8698 28.8984 12.9219C28.9818 12.9635 29.0391 12.9948 29.0703 13.0156C29.112 13.0365 29.1432 13.0521 29.1641 13.0625C29.3724 13.125 29.5859 13.1667 29.8047 13.1875C30.263 13.2396 30.6641 13.2448 31.0078 13.2031C31.4453 13.151 31.8932 12.9948 32.3516 12.7344C32.862 12.3698 33.3411 11.9271 33.7891 11.4062C33.5703 11.1562 33.3151 10.8802 33.0234 10.5781C32.7318 10.2656 32.5026 10.026 32.3359 9.85938C32.1797 9.68229 32.1016 9.58854 32.1016 9.57812C31.8724 9.32812 31.4245 9.05208 30.7578 8.75L33.4297 8.73438C33.388 8.84896 33.3828 8.98438 33.4141 9.14062C33.4557 9.28646 33.5182 9.40104 33.6016 9.48438L33.7266 9.625C33.8099 9.70833 33.9245 9.83333 34.0703 10C34.2266 10.1667 34.3724 10.3281 34.5078 10.4844C34.9661 9.80729 35.3516 9.13542 35.6641 8.46875C36.0807 7.59375 36.4349 6.69792 36.7266 5.78125C37.1224 4.5625 37.3203 3.78125 37.3203 3.4375ZM43.6328 7.96875H41.5703C40.8724 7.96875 40.2891 8.02604 39.8203 8.14062C40.4349 7.51562 40.7995 6.85417 40.9141 6.15625C41.0078 6.34375 41.1536 6.47917 41.3516 6.5625C41.5495 6.64583 41.7214 6.6875 41.8672 6.6875H43.9297C44.6276 6.6875 45.2057 6.63021 45.6641 6.51562C45.1224 7.10938 44.7578 7.75521 44.5703 8.45312C44.362 8.13021 44.0495 7.96875 43.6328 7.96875ZM49.9453 6.17188C49.8828 6.85938 49.9922 7.375 50.2734 7.71875C49.6693 8.01042 49.1797 8.34896 48.8047 8.73438C48.4297 9.13021 47.9609 9.77604 47.3984 10.6719C46.8464 11.5677 46.4036 12.2031 46.0703 12.5781C45.3516 13.3906 44.5495 14.0417 43.6641 14.5312C43.0807 14.875 42.4609 15.1302 41.8047 15.2969C40.9714 15.5677 40.5495 15.7031 40.5391 15.7031C40.487 15.151 40.2995 14.6979 39.9766 14.3438C42.3516 13.8854 44.112 12.9531 45.2578 11.5469C45.6328 11.0885 45.9818 10.6042 46.3047 10.0938C46.6172 9.59375 46.862 9.21354 47.0391 8.95312C47.2161 8.69271 47.4661 8.35938 47.7891 7.95312C48.112 7.54688 48.4453 7.20312 48.7891 6.92188C49.1432 6.63021 49.5286 6.38021 49.9453 6.17188ZM53.6953 9.57812C53.5599 9.78646 53.5391 10.0417 53.6328 10.3438H51.1328C51.6953 10.0417 52.0859 9.75521 52.3047 9.48438C52.3047 9.48438 53.3828 7.97917 55.5391 4.96875C59.0599 10.9271 60.8307 13.9219 60.8516 13.9531C61.0182 14.2344 61.3776 14.5208 61.9297 14.8125H59.3672C59.5234 14.5417 59.5443 14.2812 59.4297 14.0312C59.3464 13.8646 58.0182 11.5625 55.4453 7.125C55.2786 7.36458 55.0443 7.69271 54.7422 8.10938C54.4401 8.52604 54.1901 8.875 53.9922 9.15625C53.7943 9.42708 53.6953 9.56771 53.6953 9.57812ZM63.7578 6.4375C64.0391 5.6875 64.1797 4.91667 64.1797 4.125H70.6172C70.6172 4.91667 70.7578 5.6875 71.0391 6.4375C70.6849 6.01042 70.3828 5.72396 70.1328 5.57812C69.8932 5.42188 69.5859 5.34375 69.2109 5.34375H65.5859C65.2109 5.34375 64.8984 5.42188 64.6484 5.57812C64.4089 5.72396 64.112 6.01042 63.7578 6.4375ZM65.9766 15.9062C65.7682 16.0417 65.4661 16.2188 65.0703 16.4375C64.6849 16.6562 64.4245 16.8073 64.2891 16.8906C63.7891 17.1406 63.2318 17.6146 62.6172 18.3125C62.8672 17.2604 62.8568 16.4427 62.5859 15.8594C62.9089 15.9115 63.2109 15.8698 63.4922 15.7344C64.3568 15.3281 65.0964 14.9271 65.7109 14.5312C67.1068 13.6458 68.1276 12.5208 68.7734 11.1562C68.9505 10.7812 69.1641 10.2396 69.4141 9.53125C69.6745 8.8125 69.8307 8.26562 69.8828 7.89062H64.8828C64.5078 7.89062 64.1901 7.96875 63.9297 8.125C63.6797 8.27083 63.3828 8.55208 63.0391 8.96875C63.3307 8.19792 63.4766 7.43229 63.4766 6.67188H71.7734C71.5339 6.91146 71.3776 7.18229 71.3047 7.48438C71.2214 7.93229 71.0391 8.58854 70.7578 9.45312C70.0911 11.5781 69.2214 13.1823 68.1484 14.2656C67.5443 14.849 66.8203 15.3958 65.9766 15.9062ZM78.7734 4.28125C79.6484 4.52083 80.3203 5.03125 80.7891 5.8125C81.2682 6.58333 81.5234 7.44792 81.5547 8.40625C81.5964 9.80208 81.263 11.1562 80.5547 12.4688C80.4609 12.6354 80.0807 13.2552 79.4141 14.3281C78.7474 15.4115 78.3047 16.2656 78.0859 16.8906C77.9193 17.3802 77.8203 17.8281 77.7891 18.2344C77.2786 17.7031 76.7005 17.4792 76.0547 17.5625C76.3151 17.1458 76.6589 16.526 77.0859 15.7031C77.5755 14.8073 78.0234 14.0469 78.4297 13.4219C78.7839 12.8594 79.0547 12.4219 79.2422 12.1094C79.4401 11.7865 79.6432 11.3698 79.8516 10.8594C80.0703 10.3385 80.2161 9.84896 80.2891 9.39062C80.4036 8.54688 80.3359 7.75521 80.0859 7.01562C79.8464 6.26562 79.3724 5.75521 78.6641 5.48438C78.1224 5.27604 77.5703 5.23958 77.0078 5.375C76.4453 5.5 75.9609 5.76042 75.5547 6.15625C74.7318 6.9375 74.2474 7.96354 74.1016 9.23438C74.0286 9.97396 74.0703 10.6302 74.2266 11.2031C74.362 11.6823 74.5807 11.9792 74.8828 12.0938C75.4036 12.3125 75.8464 12.2396 76.2109 11.875C76.5859 11.5104 76.8255 11.0469 76.9297 10.4844C77.1276 9.40104 76.888 8.30729 76.2109 7.20312C76.7943 7.11979 77.3099 6.92708 77.7578 6.625C77.7682 6.6875 77.7995 6.85417 77.8516 7.125C77.9141 7.38542 77.9505 7.55729 77.9609 7.64062C77.9818 7.72396 78.013 7.88542 78.0547 8.125C78.0964 8.36458 78.1224 8.53646 78.1328 8.64062C78.1432 8.73438 78.1589 8.89062 78.1797 9.10938C78.2109 9.32812 78.2214 9.5 78.2109 9.625C78.2109 9.73958 78.2057 9.89583 78.1953 10.0938C78.1953 10.2812 78.1797 10.4479 78.1484 10.5938C78.1172 10.7292 78.0807 10.8802 78.0391 11.0469C77.9974 11.2135 77.9453 11.375 77.8828 11.5312C77.5807 12.2396 77.0859 12.7708 76.3984 13.125C75.7109 13.4688 75.0234 13.4635 74.3359 13.1094C73.8984 12.901 73.5599 12.5521 73.3203 12.0625C73.0807 11.5625 72.9557 11.0573 72.9453 10.5469C72.9349 10.0365 72.9453 9.54167 72.9766 9.0625C73.0703 8.26042 73.3203 7.47917 73.7266 6.71875C74.1328 5.94792 74.6536 5.33333 75.2891 4.875C75.7786 4.53125 76.3359 4.30729 76.9609 4.20312C77.5859 4.09896 78.1901 4.125 78.7734 4.28125ZM91.1953 14.8438H83.3672C83.3672 14.0625 83.2214 13.2812 82.9297 12.5C83.2943 12.9375 83.5964 13.2344 83.8359 13.3906C84.0859 13.5365 84.3984 13.6094 84.7734 13.6094H86.6641V5.29688H85.8672C85.5026 5.29688 85.2005 5.375 84.9609 5.53125C84.7318 5.67708 84.4297 5.96875 84.0547 6.40625C84.3151 5.61458 84.4453 4.83333 84.4453 4.0625H90.1016C90.1016 4.875 90.237 5.65625 90.5078 6.40625C90.1432 5.96875 89.8411 5.67708 89.6016 5.53125C89.362 5.375 89.0599 5.29688 88.6953 5.29688H87.8984V13.6094H89.7891C90.1641 13.6094 90.4714 13.5365 90.7109 13.3906C90.9505 13.2344 91.2526 12.9375 91.6172 12.5C91.3359 13.2917 91.1953 14.0729 91.1953 14.8438ZM96.4609 7.96875H94.3984C93.7005 7.96875 93.1172 8.02604 92.6484 8.14062C93.263 7.51562 93.6276 6.85417 93.7422 6.15625C93.8359 6.34375 93.9818 6.47917 94.1797 6.5625C94.3776 6.64583 94.5495 6.6875 94.6953 6.6875H96.7578C97.4557 6.6875 98.0339 6.63021 98.4922 6.51562C97.9505 7.10938 97.5859 7.75521 97.3984 8.45312C97.1901 8.13021 96.8776 7.96875 96.4609 7.96875ZM102.773 6.17188C102.711 6.85938 102.82 7.375 103.102 7.71875C102.497 8.01042 102.008 8.34896 101.633 8.73438C101.258 9.13021 100.789 9.77604 100.227 10.6719C99.6745 11.5677 99.2318 12.2031 98.8984 12.5781C98.1797 13.3906 97.3776 14.0417 96.4922 14.5312C95.9089 14.875 95.2891 15.1302 94.6328 15.2969C93.7995 15.5677 93.3776 15.7031 93.3672 15.7031C93.3151 15.151 93.1276 14.6979 92.8047 14.3438C95.1797 13.8854 96.9401 12.9531 98.0859 11.5469C98.4609 11.0885 98.8099 10.6042 99.1328 10.0938C99.4453 9.59375 99.6901 9.21354 99.8672 8.95312C100.044 8.69271 100.294 8.35938 100.617 7.95312C100.94 7.54688 101.273 7.20312 101.617 6.92188C101.971 6.63021 102.357 6.38021 102.773 6.17188ZM112.289 7.21875C112.289 7.79167 112.294 8.32812 112.305 8.82812C112.315 9.32812 112.268 9.85938 112.164 10.4219C112.06 10.974 111.888 11.4792 111.648 11.9375C111.211 12.7917 110.409 13.7812 109.242 14.9062L107.93 16.1406C107.565 16.4531 107.242 16.8333 106.961 17.2812C106.846 16.7292 106.482 16.3125 105.867 16.0312C106.086 15.8854 106.424 15.6198 106.883 15.2344C107.424 14.7552 107.836 14.3906 108.117 14.1406C109.148 13.1927 109.878 12.3802 110.305 11.7031C110.607 11.2448 110.815 10.7448 110.93 10.2031C110.982 9.98438 111.008 9.59896 111.008 9.04688V6.60938H111.023V4.82812C111.023 4.56771 110.831 4.35417 110.445 4.1875C110.945 4.04167 111.294 3.91667 111.492 3.8125C111.701 3.69792 112.034 3.45312 112.492 3.07812C112.357 3.60938 112.289 4.18229 112.289 4.79688V7.21875ZM107.336 6.57812C107.294 6.57812 107.102 6.58333 106.758 6.59375C106.414 6.59375 106.227 6.59375 106.195 6.59375C105.518 6.59375 104.93 6.64062 104.43 6.73438C105.055 6.11979 105.43 5.51042 105.555 4.90625C105.648 5.07292 105.789 5.19792 105.977 5.28125C106.174 5.35417 106.341 5.39062 106.477 5.39062H107.633C108.331 5.39062 108.93 5.33333 109.43 5.21875C108.836 5.79167 108.451 6.39583 108.273 7.03125C108.169 6.875 108.018 6.76042 107.82 6.6875C107.633 6.61458 107.471 6.57812 107.336 6.57812ZM107.336 9.14062H106.195C105.57 9.14062 104.982 9.19271 104.43 9.29688C105.055 8.70312 105.43 8.09375 105.555 7.46875C105.648 7.63542 105.789 7.76042 105.977 7.84375C106.174 7.91667 106.341 7.95312 106.477 7.95312H107.633C108.258 7.95312 108.852 7.90104 109.414 7.79688C108.82 8.36979 108.44 8.96354 108.273 9.57812C108.086 9.28646 107.773 9.14062 107.336 9.14062ZM108.852 2.6875C108.695 2.53125 108.617 2.34896 108.617 2.14062C108.617 1.93229 108.695 1.75521 108.852 1.60938C109.008 1.45312 109.19 1.375 109.398 1.375C109.607 1.375 109.784 1.45312 109.93 1.60938C110.076 1.75521 110.148 1.93229 110.148 2.14062C110.148 2.34896 110.07 2.53125 109.914 2.6875C109.768 2.83333 109.596 2.90625 109.398 2.90625C109.19 2.90625 109.008 2.83333 108.852 2.6875ZM110.758 2.14062C110.758 1.93229 110.831 1.75521 110.977 1.60938C111.133 1.45312 111.315 1.375 111.523 1.375C111.732 1.375 111.909 1.45312 112.055 1.60938C112.211 1.75521 112.289 1.93229 112.289 2.14062C112.289 2.34896 112.211 2.53125 112.055 2.6875C111.909 2.83333 111.732 2.90625 111.523 2.90625C111.326 2.90625 111.148 2.82812 110.992 2.67188C110.836 2.51562 110.758 2.33854 110.758 2.14062ZM119.383 5.32812H116.352C115.789 5.32812 115.211 5.375 114.617 5.46875C115.221 4.91667 115.591 4.3125 115.727 3.65625C115.82 3.83333 115.961 3.96354 116.148 4.04688C116.346 4.11979 116.518 4.15625 116.664 4.15625H119.68C120.284 4.15625 120.867 4.10417 121.43 4C120.836 4.5625 120.461 5.15625 120.305 5.78125C120.096 5.47917 119.789 5.32812 119.383 5.32812ZM120.336 14.7031C120.294 14.7031 119.466 14.7031 117.852 14.7031C116.247 14.7135 115.43 14.7188 115.398 14.7188C114.742 14.7188 114.159 14.7656 113.648 14.8594C114.273 14.276 114.648 13.6771 114.773 13.0625C114.93 13.375 115.237 13.5312 115.695 13.5312H120.648C121.305 13.5312 121.883 13.4792 122.383 13.375C121.831 13.9271 121.461 14.526 121.273 15.1719C121.169 15.0156 121.018 14.8958 120.82 14.8125C120.622 14.7396 120.461 14.7031 120.336 14.7031ZM125.039 5.35938C124.664 5.35938 124.352 5.43229 124.102 5.57812C123.862 5.72396 123.565 6.01042 123.211 6.4375C123.492 5.65625 123.633 4.88542 123.633 4.125H132.383C131.924 4.44792 131.664 4.72396 131.602 4.95312C131.591 4.96354 131.367 5.59896 130.93 6.85938C130.492 8.11979 130.268 8.75521 130.258 8.76562C130.195 8.98438 130.247 9.23958 130.414 9.53125H128.195C128.643 9.20833 128.914 8.9375 129.008 8.71875C129.008 8.69792 129.164 8.22917 129.477 7.3125C129.799 6.39583 130.034 5.74479 130.18 5.35938H125.039ZM126.133 16.1875C126.487 15.625 126.711 14.8698 126.805 13.9219C126.888 13.1823 126.93 11.9167 126.93 10.125V8.26562C126.93 8.02604 126.747 7.80729 126.383 7.60938C126.872 7.48438 127.216 7.36979 127.414 7.26562C127.612 7.16146 127.935 6.92708 128.383 6.5625C128.247 7.21875 128.18 7.78125 128.18 8.25V10.9375C128.18 12.6562 128.138 13.8281 128.055 14.4531C127.898 15.5156 127.617 16.3594 127.211 16.9844C127.138 17.1094 126.997 17.3229 126.789 17.625C126.591 17.9271 126.409 18.2188 126.242 18.5C126.076 18.7917 125.94 19.0677 125.836 19.3281C125.753 18.3594 125.56 17.5417 125.258 16.875C125.612 16.7708 125.904 16.5417 126.133 16.1875ZM138.977 10.8281C139.747 9.43229 140.289 7.51042 140.602 5.0625H137.508C137.133 6.42708 136.674 7.69792 136.133 8.875C137.07 9.375 138.018 10.026 138.977 10.8281ZM133.258 5.53125V3.48438C133.57 3.79688 133.862 3.95312 134.133 3.95312H136.664C136.872 3.04688 137.07 2.09896 137.258 1.10938L138.383 1.21875C138.237 2.15625 138.06 3.06771 137.852 3.95312H142.695C142.945 3.95312 143.227 3.79688 143.539 3.48438V5.53125C143.227 5.21875 142.945 5.0625 142.695 5.0625H141.727C141.414 7.73958 140.82 9.85417 139.945 11.4062C140.945 12.2812 142.091 13.401 143.383 14.7656L142.695 15.5781C141.341 14.1927 140.195 13.0729 139.258 12.2188C138.07 13.9062 136.206 14.9792 133.664 15.4375L133.508 14.4219C135.695 13.9844 137.289 13.0521 138.289 11.625C137.435 10.9062 136.518 10.2812 135.539 9.75C135.393 10.0729 135.174 10.4115 134.883 10.7656L134.07 10.0938C135.029 8.58333 135.768 6.90625 136.289 5.0625H134.133C133.862 5.0625 133.57 5.21875 133.258 5.53125ZM146.055 3.57812V1.5625C146.367 1.875 146.648 2.03125 146.898 2.03125H154.18C153.805 2.39583 153.617 2.68229 153.617 2.89062V3.10938C152.701 4.47396 151.68 5.69271 150.555 6.76562V8.04688H154.086C154.336 8.04688 154.617 7.89062 154.93 7.57812V9.625C154.617 9.3125 154.336 9.15625 154.086 9.15625H150.555V13.2344C150.555 14.151 150.471 14.7188 150.305 14.9375C150.138 15.1562 149.721 15.2656 149.055 15.2656C148.721 15.2656 148.096 15.2396 147.18 15.1875L147.148 14.1094C148.044 14.1615 148.628 14.1875 148.898 14.1875C149.148 14.1875 149.289 14.1406 149.32 14.0469C149.352 13.9531 149.367 13.6823 149.367 13.2344V9.15625H145.461C145.19 9.15625 144.898 9.3125 144.586 9.625V7.57812C144.898 7.89062 145.19 8.04688 145.461 8.04688H149.367V6.96875C149.367 6.76042 149.19 6.47396 148.836 6.10938H149.711C150.669 5.19271 151.482 4.19271 152.148 3.10938H146.898C146.648 3.10938 146.367 3.26562 146.055 3.57812ZM161.57 4.125H163.383C163.331 4.40625 163.357 4.69271 163.461 4.98438C163.492 5.07812 163.732 5.75 164.18 7C164.638 8.25 164.893 8.9375 164.945 9.0625C164.997 9.19792 165.06 9.32292 165.133 9.4375C165.216 9.55208 165.289 9.63542 165.352 9.6875L165.43 9.76562L164.164 11.7344C164.133 11.2135 164.049 10.7031 163.914 10.2031C163.893 10.0781 163.596 9.1875 163.023 7.53125C162.461 5.86458 162.154 4.98438 162.102 4.89062L161.57 4.125ZM157.789 7.90625C157.414 7.90625 157.096 7.98438 156.836 8.14062C156.586 8.28646 156.289 8.56771 155.945 8.98438C156.227 8.23438 156.367 7.46875 156.367 6.6875H157.945V3.6875C157.945 3.4375 157.758 3.22396 157.383 3.04688C157.872 2.91146 158.216 2.79167 158.414 2.6875C158.612 2.57292 158.935 2.32292 159.383 1.9375C159.268 2.53125 159.211 3.09896 159.211 3.64062V6.64062C160.232 6.64062 161.003 6.83333 161.523 7.21875C162.096 7.63542 162.477 8.20833 162.664 8.9375C162.852 9.65625 162.888 10.4062 162.773 11.1875C162.742 11.4062 162.701 11.6302 162.648 11.8594C162.596 12.0781 162.529 12.3385 162.445 12.6406C162.362 12.9427 162.305 13.1562 162.273 13.2812C162.013 14.3958 161.836 15.1875 161.742 15.6562C161.398 17.3854 161.331 18.7656 161.539 19.7969C161.143 19.4427 160.539 19.1146 159.727 18.8125C159.82 18.3438 159.971 17.5521 160.18 16.4375C160.305 15.875 160.612 14.6146 161.102 12.6562C161.122 12.5833 161.169 12.3958 161.242 12.0938C161.326 11.7917 161.378 11.5885 161.398 11.4844C161.43 11.3698 161.466 11.1875 161.508 10.9375C161.56 10.6771 161.586 10.4688 161.586 10.3125C161.586 10.1562 161.57 9.97396 161.539 9.76562C161.518 9.55729 161.477 9.35938 161.414 9.17188C161.289 8.76562 161.07 8.45312 160.758 8.23438C160.456 8.00521 160.091 7.89062 159.664 7.89062C159.414 7.89062 159.263 7.89583 159.211 7.90625V13.9844C159.211 14.2552 159.357 14.526 159.648 14.7969H157.477C157.789 14.5052 157.945 14.2344 157.945 13.9844V7.90625H157.789ZM161.773 2.67188C161.628 2.52604 161.555 2.34896 161.555 2.14062C161.555 1.93229 161.628 1.75521 161.773 1.60938C161.93 1.45312 162.107 1.375 162.305 1.375C162.513 1.375 162.69 1.45312 162.836 1.60938C162.992 1.75521 163.07 1.93229 163.07 2.14062C163.07 2.34896 162.992 2.52604 162.836 2.67188C162.69 2.81771 162.513 2.89062 162.305 2.89062C162.096 2.89062 161.919 2.81771 161.773 2.67188ZM163.93 2.67188C163.784 2.52604 163.711 2.34896 163.711 2.14062C163.711 1.93229 163.784 1.75521 163.93 1.60938C164.086 1.45312 164.268 1.375 164.477 1.375C164.685 1.375 164.862 1.45312 165.008 1.60938C165.164 1.75521 165.242 1.93229 165.242 2.14062C165.242 2.34896 165.164 2.52604 165.008 2.67188C164.862 2.81771 164.685 2.89062 164.477 2.89062C164.268 2.89062 164.086 2.81771 163.93 2.67188ZM171.836 4.15625H175.148V2.6875H171.836V4.15625ZM171.711 5.10938H170.18C170.555 4.74479 170.742 4.45833 170.742 4.25V2.5C170.742 2.29167 170.555 2.00521 170.18 1.64062H176.836C176.461 2.00521 176.273 2.29167 176.273 2.5V4.25C176.273 4.45833 176.461 4.74479 176.836 5.10938H171.711ZM172.555 11.2344H170.961C170.711 11.2344 170.43 11.3906 170.117 11.7031V9.76562C170.43 10.0781 170.711 10.2344 170.961 10.2344H172.93V9.26562H171.211H169.773C170.128 8.90104 170.305 8.61458 170.305 8.40625V6.57812C170.305 6.36979 170.128 6.08333 169.773 5.71875H173.992C173.638 6.08333 173.461 6.36979 173.461 6.57812V9.17188H173.617V6.57812C173.617 6.36979 173.43 6.08333 173.055 5.71875H177.336C176.961 6.08333 176.773 6.36979 176.773 6.57812V8.40625C176.773 8.61458 176.961 8.90104 177.336 9.26562H174.461H174.055V10.2344H176.117C176.388 10.2344 176.68 10.0781 176.992 9.76562V11.7031C176.68 11.3906 176.388 11.2344 176.117 11.2344H174.461C175.128 12.401 176.055 13.4115 177.242 14.2656L176.711 15.2344C175.586 14.4219 174.701 13.3802 174.055 12.1094V14.7656C174.055 14.974 174.242 15.2604 174.617 15.625H172.398C172.753 15.2604 172.93 14.974 172.93 14.7656V12.1875C172.263 13.3958 171.315 14.4115 170.086 15.2344L169.586 14.2656C170.878 13.4323 171.867 12.4219 172.555 11.2344ZM167.68 5.75H169.18V2.84375H167.68V5.75ZM167.805 13.8594C167.805 13.7969 167.919 13.6927 168.148 13.5469V6.76562H167.555H166.023C166.378 6.40104 166.555 6.11458 166.555 5.90625V2.65625C166.555 2.44792 166.378 2.16146 166.023 1.79688H170.805C170.451 2.16146 170.273 2.44792 170.273 2.65625V5.90625C170.273 6.11458 170.451 6.40104 170.805 6.76562H169.211V8.875H169.461C169.732 8.875 170.023 8.71875 170.336 8.40625V10.4062C170.023 10.0938 169.732 9.9375 169.461 9.9375H169.211V13.0781C169.607 12.7552 170.003 12.5052 170.398 12.3281L170.492 13.375C169.18 14.2292 167.857 14.9271 166.523 15.4688L166.336 14.4219C166.461 14.401 166.57 14.3698 166.664 14.3281C166.758 14.2865 166.805 14.2552 166.805 14.2344V8.65625C166.805 8.44792 166.617 8.16146 166.242 7.79688H168.367C167.992 8.16146 167.805 8.44792 167.805 8.65625V13.8594ZM172.398 8.3125V6.71875H171.367V8.3125H172.398ZM175.711 8.3125V6.71875H174.617V8.3125H175.711ZM179.898 5.34375C179.523 5.34375 179.211 5.42188 178.961 5.57812C178.711 5.72396 178.409 6.01042 178.055 6.4375C178.336 5.6875 178.477 4.91667 178.477 4.125H184.133C184.133 4.89583 184.279 5.66667 184.57 6.4375C184.206 6.01042 183.898 5.72396 183.648 5.57812C183.409 5.42188 183.096 5.34375 182.711 5.34375H179.898ZM182.57 6.84375C183.289 7.0625 183.846 7.46354 184.242 8.04688C184.648 8.63021 184.872 9.3125 184.914 10.0938C184.966 11.4583 184.508 12.8542 183.539 14.2812C183.487 14.3646 183.357 14.5521 183.148 14.8438C182.951 15.1354 182.815 15.3333 182.742 15.4375C182.669 15.5521 182.549 15.7396 182.383 16C182.227 16.2604 182.107 16.4688 182.023 16.625C181.951 16.7812 181.857 16.974 181.742 17.2031C181.628 17.4323 181.534 17.651 181.461 17.8594C181.388 18.0677 181.326 18.2812 181.273 18.5C181.159 18.9896 181.107 19.5104 181.117 20.0625C180.638 19.5625 180.06 19.3438 179.383 19.4062C179.435 19.2812 179.539 19.026 179.695 18.6406C179.862 18.2552 179.982 17.9792 180.055 17.8125C180.128 17.6562 180.232 17.4323 180.367 17.1406C180.503 16.849 180.633 16.5885 180.758 16.3594C180.893 16.1302 181.029 15.9062 181.164 15.6875C181.31 15.4479 181.591 15.0312 182.008 14.4375C182.435 13.8438 182.773 13.3177 183.023 12.8594C183.273 12.3906 183.456 11.9167 183.57 11.4375C183.633 11.0208 183.664 10.6094 183.664 10.2031C183.664 9.78646 183.565 9.38542 183.367 9C183.169 8.61458 182.878 8.33333 182.492 8.15625C181.919 7.89583 181.232 7.81771 180.43 7.92188C179.711 8.02604 179.185 8.19792 178.852 8.4375C178.831 7.77083 178.607 7.29688 178.18 7.01562C179.242 6.83854 179.909 6.73958 180.18 6.71875C181.138 6.625 181.935 6.66667 182.57 6.84375ZM186.336 5.5625C186.503 5.48958 186.789 5.34896 187.195 5.14062C187.612 4.92188 187.893 4.77604 188.039 4.70312C188.935 4.29688 189.742 4.11458 190.461 4.15625C191.284 4.20833 192.013 4.48438 192.648 4.98438C193.294 5.47396 193.716 6.11458 193.914 6.90625C194.049 7.48958 194.06 8.10417 193.945 8.75C193.893 9.02083 193.81 9.29688 193.695 9.57812C193.581 9.84896 193.471 10.0781 193.367 10.2656C193.273 10.4427 193.112 10.6771 192.883 10.9688C192.654 11.2604 192.492 11.4583 192.398 11.5625C192.315 11.6667 192.122 11.8802 191.82 12.2031C191.518 12.526 191.341 12.7135 191.289 12.7656C190.758 13.349 190.331 13.9271 190.008 14.5C189.685 15.0833 189.529 15.7083 189.539 16.375C189.039 15.8854 188.336 15.6771 187.43 15.75C188.336 14.375 188.888 13.5625 189.086 13.3125C189.367 12.9792 189.779 12.5156 190.32 11.9219C190.872 11.3281 191.221 10.9479 191.367 10.7812C192.201 9.84375 192.654 9.01042 192.727 8.28125C192.737 8.1875 192.742 8.07812 192.742 7.95312C192.753 7.82812 192.758 7.73438 192.758 7.67188C192.758 7.59896 192.763 7.55729 192.773 7.54688V7.5625C192.607 6.83333 192.289 6.29688 191.82 5.95312C191.352 5.60938 190.789 5.4375 190.133 5.4375C188.737 5.48958 187.945 6.02083 187.758 7.03125C187.581 6.64583 187.388 6.34375 187.18 6.125C186.971 5.90625 186.69 5.71875 186.336 5.5625ZM198.273 11.7969H196.867C197.242 11.4323 197.43 11.1458 197.43 10.9375V10.0625C197.43 9.85417 197.242 9.56771 196.867 9.20312H201.242C200.888 9.56771 200.711 9.85417 200.711 10.0625V10.9375C200.711 11.1458 200.888 11.4323 201.242 11.7969H198.273ZM198.43 11.0781H199.742V9.9375H198.43V11.0781ZM200.211 13.5625C200.253 13.5104 200.513 13.4375 200.992 13.3438L201.023 14.2344C199.773 14.5573 198.513 14.7969 197.242 14.9531L197.18 14.0625C197.617 14 198.221 13.8958 198.992 13.75C199.242 13.2083 199.471 12.599 199.68 11.9219L200.617 12.2188C200.492 12.6458 200.357 13.0938 200.211 13.5625ZM196.773 1.78125H200.93C200.576 2.14583 200.398 2.43229 200.398 2.64062V6.28125C200.398 6.48958 200.576 6.77604 200.93 7.14062H196.898V14.6875C196.898 14.8958 197.076 15.1823 197.43 15.5469H195.242C195.596 15.1823 195.773 14.8958 195.773 14.6875V2.64062C195.773 2.43229 195.596 2.14583 195.242 1.78125H196.773ZM196.93 4.03125H199.273V2.76562H196.93V4.03125ZM196.93 4.875V6.21875H199.273V4.875H196.93ZM204.43 4.03125V2.76562H201.961V4.03125H204.43ZM204.43 4.875H201.961V6.21875H204.43V4.875ZM202.773 12.2188L201.93 12.75C201.576 11.9062 201.138 11.1042 200.617 10.3438L201.461 9.8125C201.982 10.5833 202.419 11.3854 202.773 12.2188ZM197.273 9.0625V7.26562C197.586 7.57812 197.867 7.73438 198.117 7.73438H200.023C200.273 7.73438 200.555 7.57812 200.867 7.26562V8.48438H202.742V8.40625C202.742 8.19792 202.565 7.91146 202.211 7.54688H204.336C203.982 7.91146 203.805 8.19792 203.805 8.40625V8.48438H204.367V9.40625H203.805V13.2969C203.805 13.8698 203.794 14.2188 203.773 14.3438C203.732 14.3542 203.805 14.3594 203.992 14.3594C204.242 14.3594 204.383 14.3177 204.414 14.2344C204.445 14.1615 204.461 13.8958 204.461 13.4375V7.14062H200.305C200.659 6.77604 200.836 6.48958 200.836 6.28125V2.64062C200.836 2.43229 200.659 2.14583 200.305 1.78125H204.555H206.117C205.742 2.14583 205.555 2.43229 205.555 2.64062V13.4062C205.555 14.3229 205.471 14.8906 205.305 15.1094C205.138 15.3281 204.732 15.4375 204.086 15.4375C203.794 15.4375 203.357 15.4115 202.773 15.3594L202.742 14.5H202.805C202.451 14.5 201.94 14.474 201.273 14.4219L201.242 13.4531C201.867 13.5052 202.305 13.5312 202.555 13.5312C202.701 13.5312 202.773 13.5104 202.773 13.4688C202.773 13.4271 202.773 13.276 202.773 13.0156V9.40625H201.461C201.19 9.40625 200.898 9.5625 200.586 9.875V8.59375H198.117C197.867 8.59375 197.586 8.75 197.273 9.0625ZM197.523 12.25L198.492 11.9375C198.721 12.4479 198.909 12.9583 199.055 13.4688L198.086 13.75C197.898 13.2083 197.711 12.7083 197.523 12.25ZM212.695 7.90625H210.945V12.125C211.383 11.6042 211.758 11.0104 212.07 10.3438C212.383 9.66667 212.591 8.85417 212.695 7.90625ZM215.852 12.0781V7.90625H213.789C213.747 8.41667 213.695 8.82812 213.633 9.14062C214.549 9.88021 215.289 10.8594 215.852 12.0781ZM217.258 3.95312V5.9375C216.945 5.625 216.654 5.46875 216.383 5.46875H213.883V6.5C213.883 6.54167 213.883 6.61458 213.883 6.71875C213.883 6.8125 213.883 6.88021 213.883 6.92188H217.539C217.164 7.28646 216.977 7.57292 216.977 7.78125V13.8281C216.977 14.5365 216.904 14.9792 216.758 15.1562C216.612 15.3438 216.289 15.4375 215.789 15.4375C215.56 15.4375 215.018 15.4115 214.164 15.3594L214.133 14.2812C214.862 14.3333 215.31 14.3594 215.477 14.3594C215.685 14.3594 215.799 14.3281 215.82 14.2656C215.841 14.2031 215.852 13.9896 215.852 13.625V12.5312L215.539 13.0938C214.81 11.9167 214.049 10.9323 213.258 10.1406C212.883 11.3385 212.185 12.3333 211.164 13.125L210.945 12.3594V14.625C210.945 14.8333 211.122 15.1198 211.477 15.4844H209.258C209.633 15.1198 209.82 14.8333 209.82 14.625V7.78125C209.82 7.57292 209.633 7.28646 209.258 6.92188H212.758V6.5V5.46875H210.477C210.206 5.46875 209.914 5.625 209.602 5.9375V3.95312C209.914 4.26562 210.206 4.42188 210.477 4.42188H216.383C216.654 4.42188 216.945 4.26562 217.258 3.95312ZM213.477 2.35938H216.508C216.758 2.35938 217.039 2.20312 217.352 1.89062V3.90625C217.039 3.59375 216.758 3.4375 216.508 3.4375H209.383V7.875C209.383 9.83333 209.268 11.375 209.039 12.5C208.81 13.6146 208.383 14.6094 207.758 15.4844L206.914 14.6094C207.31 14.0469 207.596 13.4844 207.773 12.9219C207.951 12.349 208.06 11.6302 208.102 10.7656C207.914 11.0885 207.497 11.4115 206.852 11.7344L206.539 10.625C207.227 10.2708 207.789 9.85938 208.227 9.39062C208.247 8.72396 208.258 7.97396 208.258 7.14062V6.92188L208.008 7.21875C207.549 6.17708 207.081 5.20833 206.602 4.3125L207.477 3.6875C207.893 4.4375 208.154 5.13542 208.258 5.78125V3.21875C208.258 3.01042 208.081 2.72396 207.727 2.35938H212.289V1.84375C212.289 1.63542 212.112 1.34896 211.758 0.984375H214.008C213.654 1.34896 213.477 1.63542 213.477 1.84375V2.35938ZM222.539 1.35938H224.789C224.424 1.72396 224.242 2.01042 224.242 2.21875V3.95312H227.164C227.424 3.95312 227.711 3.79688 228.023 3.48438V5.53125C227.711 5.21875 227.424 5.0625 227.164 5.0625H224.242V8.54688H226.617C226.878 8.54688 227.164 8.39062 227.477 8.07812V10.0938C227.164 9.78125 226.878 9.625 226.617 9.625H224.242V14.0312H227.586C227.846 14.0312 228.133 13.875 228.445 13.5625V15.5781C228.133 15.2656 227.846 15.1094 227.586 15.1094H219.414C219.154 15.1094 218.867 15.2656 218.555 15.5781V13.5625C218.867 13.875 219.154 14.0312 219.414 14.0312H223.086V9.625H220.836C220.576 9.625 220.289 9.78125 219.977 10.0938V8.07812C220.289 8.39062 220.576 8.54688 220.836 8.54688H223.086V5.0625H220.523C220.232 6.35417 219.836 7.57812 219.336 8.73438L218.336 8.15625C219.107 6.20833 219.69 4.04688 220.086 1.67188L221.195 1.875C221.091 2.48958 220.971 3.18229 220.836 3.95312H223.086V2.21875C223.086 2.01042 222.904 1.72396 222.539 1.35938ZM229.992 2.45312L230.633 1.59375C231.372 2.28125 232.049 3.01042 232.664 3.78125L231.992 4.65625C231.346 3.90625 230.68 3.17188 229.992 2.45312ZM231.648 8.39062C230.961 7.55729 230.232 6.75 229.461 5.96875L230.102 5.10938C230.945 5.91146 231.685 6.71354 232.32 7.51562L231.648 8.39062ZM232.648 10.3281C232.19 12.2448 231.549 13.9688 230.727 15.5L229.82 14.8438C230.57 13.3854 231.18 11.7344 231.648 9.89062L232.648 10.3281ZM233.055 2.82812C235.409 2.82812 237.539 2.41667 239.445 1.59375L239.695 2.6875C238.758 3.0625 237.831 3.35417 236.914 3.5625V5.82812H239.18C239.44 5.82812 239.727 5.67188 240.039 5.35938V7.375C239.727 7.0625 239.44 6.90625 239.18 6.90625H236.914V9.10938H239.992C239.628 9.47396 239.445 9.76042 239.445 9.96875V14.7031C239.445 14.9115 239.628 15.1979 239.992 15.5625H239.148C238.888 15.5625 238.602 15.7188 238.289 16.0312V14.7188H234.352V16.0312C234.039 15.7188 233.753 15.5625 233.492 15.5625H232.695C233.06 15.1979 233.242 14.9115 233.242 14.7031V9.96875C233.242 9.76042 233.06 9.47396 232.695 9.10938H235.742V6.90625H233.445C233.185 6.90625 232.898 7.0625 232.586 7.375V5.35938C232.898 5.67188 233.185 5.82812 233.445 5.82812H235.742V3.71875C235.003 3.84375 234.138 3.90625 233.148 3.90625L233.055 2.82812ZM238.289 13.7031V10.125H234.352V13.7031H238.289ZM247.008 4.28125C247.883 4.52083 248.555 5.03125 249.023 5.8125C249.503 6.58333 249.758 7.44792 249.789 8.40625C249.831 9.80208 249.497 11.1562 248.789 12.4688C248.695 12.6354 248.315 13.2552 247.648 14.3281C246.982 15.4115 246.539 16.2656 246.32 16.8906C246.154 17.3802 246.055 17.8281 246.023 18.2344C245.513 17.7031 244.935 17.4792 244.289 17.5625C244.549 17.1458 244.893 16.526 245.32 15.7031C245.81 14.8073 246.258 14.0469 246.664 13.4219C247.018 12.8594 247.289 12.4219 247.477 12.1094C247.674 11.7865 247.878 11.3698 248.086 10.8594C248.305 10.3385 248.451 9.84896 248.523 9.39062C248.638 8.54688 248.57 7.75521 248.32 7.01562C248.081 6.26562 247.607 5.75521 246.898 5.48438C246.357 5.27604 245.805 5.23958 245.242 5.375C244.68 5.5 244.195 5.76042 243.789 6.15625C242.966 6.9375 242.482 7.96354 242.336 9.23438C242.263 9.97396 242.305 10.6302 242.461 11.2031C242.596 11.6823 242.815 11.9792 243.117 12.0938C243.638 12.3125 244.081 12.2396 244.445 11.875C244.82 11.5104 245.06 11.0469 245.164 10.4844C245.362 9.40104 245.122 8.30729 244.445 7.20312C245.029 7.11979 245.544 6.92708 245.992 6.625C246.003 6.6875 246.034 6.85417 246.086 7.125C246.148 7.38542 246.185 7.55729 246.195 7.64062C246.216 7.72396 246.247 7.88542 246.289 8.125C246.331 8.36458 246.357 8.53646 246.367 8.64062C246.378 8.73438 246.393 8.89062 246.414 9.10938C246.445 9.32812 246.456 9.5 246.445 9.625C246.445 9.73958 246.44 9.89583 246.43 10.0938C246.43 10.2812 246.414 10.4479 246.383 10.5938C246.352 10.7292 246.315 10.8802 246.273 11.0469C246.232 11.2135 246.18 11.375 246.117 11.5312C245.815 12.2396 245.32 12.7708 244.633 13.125C243.945 13.4688 243.258 13.4635 242.57 13.1094C242.133 12.901 241.794 12.5521 241.555 12.0625C241.315 11.5625 241.19 11.0573 241.18 10.5469C241.169 10.0365 241.18 9.54167 241.211 9.0625C241.305 8.26042 241.555 7.47917 241.961 6.71875C242.367 5.94792 242.888 5.33333 243.523 4.875C244.013 4.53125 244.57 4.30729 245.195 4.20312C245.82 4.09896 246.424 4.125 247.008 4.28125ZM253.32 8.59375V13.4688H259.133V8.59375H253.32ZM253.32 7.54688H259.133V3.03125H253.32V7.54688ZM251.633 1.9375H260.82C260.445 2.30208 260.258 2.58854 260.258 2.79688V14.6875C260.258 14.8958 260.445 15.1823 260.82 15.5469H258.57C258.945 15.1823 259.133 14.8958 259.133 14.6875V14.5156H253.32V14.6875C253.32 14.8958 253.497 15.1823 253.852 15.5469H251.633C251.987 15.1823 252.164 14.8958 252.164 14.6875V2.79688C252.164 2.58854 251.987 2.30208 251.633 1.9375ZM265.742 9.57812L266.461 8.67188C267.107 9.28646 267.69 9.97917 268.211 10.75C269.378 8.85417 270.112 6.95312 270.414 5.04688H266.742C266.013 7.15104 265.055 9.01042 263.867 10.625L262.992 9.85938C264.669 7.46354 265.904 4.61458 266.695 1.3125L267.82 1.5625C267.581 2.53125 267.378 3.32812 267.211 3.95312H272.164C271.799 4.31771 271.617 4.60417 271.617 4.8125V5.04688C271.294 7.22396 270.43 9.39583 269.023 11.5625C269.628 12.4062 270.211 13.2396 270.773 14.0625L269.93 14.8906C268.638 12.9531 267.242 11.1823 265.742 9.57812ZM281.055 12.0625C280.378 13.2188 279.461 14.0312 278.305 14.5C277.805 14.6979 277.284 14.8073 276.742 14.8281C276.211 14.8594 275.69 14.7656 275.18 14.5469C274.669 14.3281 274.284 13.974 274.023 13.4844C273.784 13.0469 273.674 12.5833 273.695 12.0938C273.727 11.5938 273.826 11.1302 273.992 10.7031C274.169 10.276 274.409 9.85938 274.711 9.45312C274.867 9.24479 275.018 9.06771 275.164 8.92188C275.06 8.35938 274.951 7.75521 274.836 7.10938C274.721 6.46354 274.633 5.96875 274.57 5.625C274.508 5.27083 274.477 5.08854 274.477 5.07812C274.445 4.81771 274.388 4.64062 274.305 4.54688C274.221 4.44271 274.008 4.29167 273.664 4.09375H276.289C276.029 4.28125 275.872 4.42188 275.82 4.51562C275.768 4.60938 275.763 4.78646 275.805 5.04688C275.878 5.40104 276.044 6.34896 276.305 7.89062C276.586 7.66146 277.039 7.33333 277.664 6.90625C278.299 6.46875 278.69 6.19792 278.836 6.09375C279.096 5.91667 279.315 5.75521 279.492 5.60938C279.711 5.46354 279.867 5.34375 279.961 5.25C280.138 5.98958 280.466 6.5 280.945 6.78125C279.872 6.97917 278.727 7.56771 277.508 8.54688C277.07 8.88021 276.701 9.18229 276.398 9.45312C276.107 9.72396 275.81 10.0781 275.508 10.5156C275.216 10.9427 275.039 11.3698 274.977 11.7969C274.935 12.1094 274.961 12.4062 275.055 12.6875C275.148 12.9688 275.315 13.1771 275.555 13.3125C276.076 13.6146 276.737 13.625 277.539 13.3438C278.07 13.1667 278.539 12.8646 278.945 12.4375C279.352 12.0104 279.549 11.5052 279.539 10.9219C280.029 11.4531 280.534 11.8333 281.055 12.0625ZM57.8984 30.1875V28.125C58.2109 28.4375 58.4922 28.5938 58.7422 28.5938H62.2109V26.2656C62.2109 26.0573 62.0339 25.7708 61.6797 25.4062H63.9297C63.5547 25.7708 63.3672 26.0573 63.3672 26.2656V28.5938H66.8359C67.1068 28.5938 67.3984 28.4375 67.7109 28.125V30.1875C67.3984 29.875 67.1068 29.7188 66.8359 29.7188H63.3984C63.5026 31.625 63.9401 33.3281 64.7109 34.8281C65.4818 36.3177 66.5547 37.5104 67.9297 38.4062L67.3672 39.375C66.1797 38.6875 65.1953 37.7292 64.4141 36.5C63.6328 35.2708 63.1068 33.8906 62.8359 32.3594C62.5651 33.8906 62.0234 35.2708 61.2109 36.5C60.3984 37.7292 59.4089 38.6875 58.2422 39.375L57.6797 38.4062C59.0547 37.5104 60.1276 36.3177 60.8984 34.8281C61.6693 33.3281 62.0964 31.625 62.1797 29.7188H58.7422C58.4922 29.7188 58.2109 29.875 57.8984 30.1875ZM70.4141 32.875C70.8307 33.2812 71.2057 33.75 71.5391 34.2812C71.9557 32.7396 72.2057 30.9896 72.2891 29.0312H71.0078C70.8411 30.3854 70.6432 31.6667 70.4141 32.875ZM79.5703 31.5625V33.6094C79.2578 33.2969 78.9661 33.1406 78.6953 33.1406H77.2578V37.3906C77.2578 38.2969 77.1745 38.8594 77.0078 39.0781C76.8411 39.2969 76.4349 39.4062 75.7891 39.4062C75.4974 39.4062 74.9245 39.3802 74.0703 39.3281L74.0391 38.2344C74.8724 38.2865 75.4036 38.3125 75.6328 38.3125C75.8828 38.3125 76.0234 38.2708 76.0547 38.1875C76.0859 38.1042 76.1016 37.8385 76.1016 37.3906V33.1406H73.9453C73.6953 33.1406 73.4141 33.2969 73.1016 33.6094V31.5625C73.4141 31.875 73.6953 32.0312 73.9453 32.0312H76.1016V30.9375C76.1016 30.7292 75.9245 30.4427 75.5703 30.0781H76.4141C76.9557 29.1823 77.4245 28.1927 77.8203 27.1094H74.3828C74.1328 27.1094 73.8516 27.2656 73.5391 27.5781V25.5625C73.8516 25.875 74.1328 26.0312 74.3828 26.0312H79.6016C79.2474 26.3958 79.0703 26.6823 79.0703 26.8906V27.1094C78.5286 28.4635 77.9245 29.6875 77.2578 30.7812V32.0312H78.6953C78.9661 32.0312 79.2578 31.875 79.5703 31.5625ZM73.8828 37.3438L73.1016 38.1406C72.6224 37.3906 72.2057 36.7083 71.8516 36.0938C71.2891 37.6354 70.4557 38.901 69.3516 39.8906L68.6953 39C69.6953 38.0521 70.487 36.8177 71.0703 35.2969C70.6953 34.8073 70.3724 34.3646 70.1016 33.9688C70.0599 34.2708 69.9557 34.6302 69.7891 35.0469L68.8828 34.2188C69.3203 32.6354 69.6536 30.9062 69.8828 29.0312H69.6016C69.3307 29.0312 69.0391 29.1875 68.7266 29.5V27.4844C69.0391 27.7969 69.3307 27.9531 69.6016 27.9531H70.0391C70.1016 27.1406 70.1745 26.25 70.2578 25.2812L71.3828 25.3438C71.2995 26.4896 71.2266 27.3594 71.1641 27.9531H73.3828C73.3828 30.5885 73.0391 32.9531 72.3516 35.0469C72.8307 35.7031 73.3411 36.4688 73.8828 37.3438ZM81.7734 30.1875C81.8672 30.3438 82.013 30.4635 82.2109 30.5469C82.4193 30.6198 82.5859 30.6562 82.7109 30.6562H84.4453C84.2891 30.0729 84.1589 29.6198 84.0547 29.2969H82.4297C81.6797 29.2969 81.0807 29.349 80.6328 29.4531C81.2786 28.849 81.6589 28.2396 81.7734 27.625C81.8672 27.7812 82.013 27.901 82.2109 27.9844C82.4193 28.0573 82.5859 28.0938 82.7109 28.0938H83.7109L83.3828 26.9062C83.3099 26.6667 83.0547 26.3906 82.6172 26.0781H85.0078C84.9036 26.2135 84.8255 26.3594 84.7734 26.5156C84.7214 26.6719 84.7109 26.7917 84.7422 26.875C84.8464 27.2188 84.9609 27.625 85.0859 28.0938H87.1797C87.8359 28.0938 88.4193 28.0469 88.9297 27.9531C88.3568 28.5156 87.9818 29.1146 87.8047 29.75C87.6172 29.4479 87.3047 29.2969 86.8672 29.2969H85.4297C85.4609 29.4427 85.5286 29.6771 85.6328 30C85.737 30.3229 85.8047 30.5417 85.8359 30.6562H87.1797C87.8359 30.6562 88.4193 30.6094 88.9297 30.5156C88.3568 31.0781 87.9818 31.6719 87.8047 32.2969C87.6172 31.9948 87.3047 31.8438 86.8672 31.8438H86.1484C86.3047 32.3958 86.487 33.0312 86.6953 33.75C86.9036 34.4583 87.0599 35 87.1641 35.375C87.2682 35.7396 87.3203 35.9271 87.3203 35.9375C87.3932 36.1667 87.6432 36.4375 88.0703 36.75H85.7266C85.9453 36.4375 86.0234 36.1771 85.9609 35.9688C85.9609 35.9375 85.5703 34.5625 84.7891 31.8438H82.4297C81.7526 31.8438 81.1536 31.8906 80.6328 31.9844C81.2786 31.4115 81.6589 30.8125 81.7734 30.1875ZM84.1797 40.2344C84.0964 40.1823 83.8776 40.0469 83.5234 39.8281C83.1693 39.6094 82.9297 39.4531 82.8047 39.3594C82.6797 39.276 82.4766 39.125 82.1953 38.9062C81.9245 38.6875 81.7214 38.4948 81.5859 38.3281C81.4609 38.1615 81.3255 37.9531 81.1797 37.7031C81.0339 37.4427 80.9297 37.1771 80.8672 36.9062C80.7109 36.1979 80.7422 35.4896 80.9609 34.7812C81.1901 34.0729 81.612 33.5625 82.2266 33.25C82.8203 32.9375 83.4922 32.9115 84.2422 33.1719C83.9922 33.6302 83.9193 34.1458 84.0234 34.7188C83.8984 34.5938 83.7891 34.5 83.6953 34.4375C83.3932 34.2708 83.0964 34.2448 82.8047 34.3594C82.5234 34.474 82.3151 34.6927 82.1797 35.0156C81.9818 35.4531 81.9245 35.9323 82.0078 36.4531C82.0911 36.9635 82.3047 37.3854 82.6484 37.7188C82.9714 38.0417 83.5182 38.401 84.2891 38.7969C85.1536 39.2865 85.763 39.6667 86.1172 39.9375C86.9297 40.5417 87.638 41.2656 88.2422 42.1094C87.7734 42.4844 87.4505 43.0104 87.2734 43.6875C86.6276 42.3125 85.5964 41.1615 84.1797 40.2344ZM91.8047 34.3438C91.6901 34.5938 91.638 34.7604 91.6484 34.8438C91.6693 34.9271 91.7682 35.0677 91.9453 35.2656H89.5078C89.8932 35.0469 90.138 34.8854 90.2422 34.7812C90.3568 34.6771 90.4609 34.5052 90.5547 34.2656C90.5651 34.2448 90.6693 33.9792 90.8672 33.4688C91.0755 32.9479 91.3464 32.276 91.6797 31.4531C92.013 30.6198 92.2943 29.9167 92.5234 29.3438H92.4766C92.1016 29.3438 91.7891 29.4219 91.5391 29.5781C91.2891 29.7344 90.9922 30.026 90.6484 30.4531C90.7943 29.7969 90.8672 29.0156 90.8672 28.1094H92.9922C93.2318 27.401 93.3828 27.0156 93.4453 26.9531C93.5391 26.7135 93.5755 26.5521 93.5547 26.4688C93.5339 26.375 93.4245 26.2292 93.2266 26.0312H95.6484C95.2943 26.2396 95.0651 26.3958 94.9609 26.5C94.8672 26.6042 94.7682 26.7865 94.6641 27.0469C94.6641 27.0573 94.6432 27.1094 94.6016 27.2031C94.5599 27.2969 94.5026 27.4323 94.4297 27.6094C94.3568 27.776 94.2891 27.9427 94.2266 28.1094H96.9922C96.9922 28.9115 97.1328 29.6875 97.4141 30.4375C97.0599 30.0104 96.7578 29.724 96.5078 29.5781C96.2682 29.4219 95.9609 29.3438 95.5859 29.3438H93.7578C93.5286 29.9271 93.2526 30.6354 92.9297 31.4688C92.6068 32.3021 92.3411 32.9844 92.1328 33.5156C91.9245 34.0365 91.8151 34.3125 91.8047 34.3438ZM98.6953 31.7031V34.1875C98.487 33.8125 98.3307 33.5781 98.2266 33.4844C98.1328 33.3802 97.9557 33.2812 97.6953 33.1875C97.6849 33.1771 97.6016 33.1406 97.4453 33.0781C97.2995 33.0156 97.0807 32.9219 96.7891 32.7969C96.4974 32.6719 96.2214 32.5521 95.9609 32.4375V35.25H98.0547C98.0651 35.2917 98.0807 35.4062 98.1016 35.5938C98.1224 35.7812 98.1536 36.0312 98.1953 36.3438C98.237 36.6458 98.2943 36.9583 98.3672 37.2812C98.1589 37.0208 97.9453 36.8229 97.7266 36.6875C97.5182 36.5521 97.3568 36.4844 97.2422 36.4844H95.9609V39.6406C95.9609 39.901 95.987 40.0781 96.0391 40.1719C96.0911 40.2656 96.2526 40.4167 96.5234 40.625H94.4609C94.0755 40.625 93.763 40.5729 93.5234 40.4688C93.0651 40.2604 92.7266 39.8958 92.5078 39.375C92.2891 38.8646 92.2109 38.3438 92.2734 37.8125C92.3255 37.2917 92.4922 36.8177 92.7734 36.3906C93.0651 35.9531 93.4349 35.625 93.8828 35.4062C94.1016 35.3125 94.3828 35.2552 94.7266 35.2344V31.6562C94.7266 31.4062 94.6953 31.2396 94.6328 31.1562C94.5703 31.0625 94.3932 30.9062 94.1016 30.6875H96.5234C96.2109 30.9167 96.0391 31.0833 96.0078 31.1875C96.2891 31.3021 96.5755 31.4219 96.8672 31.5469C97.1589 31.6719 97.3724 31.7656 97.5078 31.8281C97.6536 31.8906 97.7318 31.9219 97.7422 31.9219C98.0026 32.0365 98.1745 32.0833 98.2578 32.0625C98.3516 32.0417 98.4974 31.9219 98.6953 31.7031ZM94.7266 39.3438V36.5312H94.5703C94.4245 36.5312 94.2266 36.6458 93.9766 36.875C93.7161 37.1667 93.5703 37.5104 93.5391 37.9062C93.4974 38.2188 93.5339 38.5365 93.6484 38.8594C93.763 39.1823 93.9557 39.3438 94.2266 39.3438H94.7266ZM102.367 36.0781V37.875H107.523V36.0781H102.367ZM102.367 35.0781H107.523V33.3594H102.367V35.0781ZM105.898 30.2031C106.253 29.401 106.544 28.5312 106.773 27.5938H103.148C103.398 28.3542 103.68 29.224 103.992 30.2031H105.898ZM100.648 32.3125H109.242C108.888 32.6771 108.711 32.9635 108.711 33.1719V38.7344C108.711 38.9427 108.888 39.2292 109.242 39.5938H108.398C108.128 39.5938 107.836 39.75 107.523 40.0625V38.9062H102.367V40.0625C102.055 39.75 101.773 39.5938 101.523 39.5938H100.648C101.023 39.2292 101.211 38.9427 101.211 38.7344V33.1719C101.211 32.9635 101.023 32.6771 100.648 32.3125ZM99.7734 31.6875V29.7344C100.086 30.0469 100.378 30.2031 100.648 30.2031H102.742C102.492 29.2865 102.211 28.4167 101.898 27.5938H100.961C100.711 27.5938 100.43 27.75 100.117 28.0625V26.0781C100.43 26.3906 100.711 26.5469 100.961 26.5469H104.367V25.8438C104.367 25.6354 104.19 25.349 103.836 24.9844H106.086C105.711 25.349 105.523 25.6354 105.523 25.8438V26.5469H108.93C109.201 26.5469 109.492 26.3906 109.805 26.0781V28.0625C109.492 27.75 109.201 27.5938 108.93 27.5938H107.961C107.753 28.5312 107.492 29.401 107.18 30.2031H109.273C109.523 30.2031 109.805 30.0469 110.117 29.7344V31.6875C109.805 31.375 109.523 31.2188 109.273 31.2188H100.648C100.378 31.2188 100.086 31.375 99.7734 31.6875ZM114.945 30.1562V31.9375H117.664V30.1562H114.945ZM114.945 29.1562H117.664V27.5469H114.945V29.1562ZM115.164 35.0625H112.227C111.956 35.0625 111.664 35.2188 111.352 35.5312V33.5312C111.664 33.8438 111.956 34 112.227 34H115.727V32.9531H114.789H113.258C113.612 32.5885 113.789 32.3021 113.789 32.0938V27.375C113.789 27.1667 113.612 26.8802 113.258 26.5156H115.445C115.549 25.9844 115.643 25.5 115.727 25.0625L116.883 25.1562C116.779 25.7708 116.695 26.224 116.633 26.5156H119.352C118.997 26.8802 118.82 27.1667 118.82 27.375V32.0938C118.82 32.3021 118.997 32.5885 119.352 32.9531H116.883V34H120.383C120.654 34 120.945 33.8438 121.258 33.5312V35.5312C120.945 35.2188 120.654 35.0625 120.383 35.0625H117.445C118.299 36.2917 119.685 37.4062 121.602 38.4062L121.195 39.4531C119.195 38.3698 117.758 37.1771 116.883 35.875V38.8438C116.883 39.0521 117.07 39.3385 117.445 39.7031H115.164C115.539 39.3385 115.727 39.0521 115.727 38.8438V35.875C114.852 37.1771 113.414 38.3698 111.414 39.4531L111.008 38.4062C112.924 37.4062 114.31 36.2917 115.164 35.0625ZM113.102 29.1875C112.518 28.5208 111.831 27.7865 111.039 26.9844L111.695 26.0938C112.549 26.8854 113.247 27.625 113.789 28.3125L113.102 29.1875ZM110.945 32.1875C111.862 31.625 112.695 31.0104 113.445 30.3438L113.977 31.2969C113.247 32.0052 112.383 32.6406 111.383 33.2031L110.945 32.1875ZM119.508 29.1719L118.789 28.3125C119.497 27.6146 120.195 26.8802 120.883 26.1094L121.57 26.9531C121.029 27.6302 120.341 28.3698 119.508 29.1719ZM118.602 31.3281L119.133 30.3281C120.154 30.9219 120.997 31.5469 121.664 32.2031L121.133 33.1875C120.362 32.5 119.518 31.8802 118.602 31.3281ZM127.586 28.1562H129.383C130.039 28.1562 130.622 28.1094 131.133 28.0156C130.56 28.5573 130.185 29.151 130.008 29.7969C129.904 29.6406 129.753 29.526 129.555 29.4531C129.367 29.3802 129.206 29.3438 129.07 29.3438H127.273C126.607 29.3438 126.018 29.3958 125.508 29.5C126.143 28.9062 126.518 28.3073 126.633 27.7031C126.831 28.0052 127.148 28.1562 127.586 28.1562ZM123.07 38.7344C123.362 38.4427 123.508 38.1823 123.508 37.9531V27.7031C123.508 27.4531 123.326 27.2396 122.961 27.0625C123.44 26.9375 123.779 26.8229 123.977 26.7188C124.174 26.6042 124.497 26.3542 124.945 25.9688C124.82 26.5938 124.758 27.1562 124.758 27.6562V37.9531C124.758 38.1719 124.909 38.4323 125.211 38.7344H123.07ZM127.336 31.5938C127.221 32.0833 127.154 32.8125 127.133 33.7812C127.133 34.3646 127.143 34.6979 127.164 34.7812C127.227 35 127.456 35.2396 127.852 35.5C129.195 36.3646 129.888 36.8125 129.93 36.8438C130.794 37.5 131.362 37.901 131.633 38.0469C130.935 38.3906 130.43 38.8177 130.117 39.3281C130.076 39.1406 130.013 38.9635 129.93 38.7969C129.846 38.6406 129.716 38.474 129.539 38.2969C129.362 38.1302 129.247 38.026 129.195 37.9844C129.143 37.9323 129.008 37.8125 128.789 37.625C128.602 37.4792 128.253 37.2552 127.742 36.9531C127.242 36.651 126.878 36.3906 126.648 36.1719C126.346 35.8906 126.148 35.5833 126.055 35.25C125.961 34.9062 125.909 34.4792 125.898 33.9688C125.878 32.9271 125.81 32.1562 125.695 31.6562C126.341 31.7812 126.888 31.7604 127.336 31.5938ZM132.414 29.5625C132.581 29.4896 132.867 29.349 133.273 29.1406C133.69 28.9219 133.971 28.776 134.117 28.7031C135.013 28.2969 135.82 28.1146 136.539 28.1562C137.362 28.2083 138.091 28.4844 138.727 28.9844C139.372 29.474 139.794 30.1146 139.992 30.9062C140.128 31.4896 140.138 32.1042 140.023 32.75C139.971 33.0208 139.888 33.2969 139.773 33.5781C139.659 33.849 139.549 34.0781 139.445 34.2656C139.352 34.4427 139.19 34.6771 138.961 34.9688C138.732 35.2604 138.57 35.4583 138.477 35.5625C138.393 35.6667 138.201 35.8802 137.898 36.2031C137.596 36.526 137.419 36.7135 137.367 36.7656C136.836 37.349 136.409 37.9271 136.086 38.5C135.763 39.0833 135.607 39.7083 135.617 40.375C135.117 39.8854 134.414 39.6771 133.508 39.75C134.414 38.375 134.966 37.5625 135.164 37.3125C135.445 36.9792 135.857 36.5156 136.398 35.9219C136.951 35.3281 137.299 34.9479 137.445 34.7812C138.279 33.8438 138.732 33.0104 138.805 32.2812C138.815 32.1875 138.82 32.0781 138.82 31.9531C138.831 31.8281 138.836 31.7344 138.836 31.6719C138.836 31.599 138.841 31.5573 138.852 31.5469V31.5625C138.685 30.8333 138.367 30.2969 137.898 29.9531C137.43 29.6094 136.867 29.4375 136.211 29.4375C134.815 29.4896 134.023 30.0208 133.836 31.0312C133.659 30.6458 133.466 30.3438 133.258 30.125C133.049 29.9062 132.768 29.7188 132.414 29.5625ZM147.695 38.7969C147.987 38.4844 148.133 38.2135 148.133 37.9844V31.4688C148.133 31.2396 147.987 30.9688 147.695 30.6562H149.82C149.529 30.9688 149.383 31.2396 149.383 31.4688V37.9844C149.383 38.2135 149.529 38.4844 149.82 38.7969H147.695ZM142.273 33.25V28.9219C142.273 28.7135 142.122 28.4427 141.82 28.1094H143.961C143.669 28.4323 143.523 28.7031 143.523 28.9219V33.25C143.523 34.0938 143.555 34.7708 143.617 35.2812C143.69 35.8438 143.909 36.3177 144.273 36.7031C144.638 37.0885 145.133 37.4375 145.758 37.75C145.112 37.9583 144.727 38.4219 144.602 39.1406C144.456 38.974 144.232 38.7552 143.93 38.4844C143.638 38.224 143.43 38.0156 143.305 37.8594C142.857 37.3073 142.555 36.6198 142.398 35.7969C142.315 35.349 142.273 34.5 142.273 33.25ZM152.711 29.3438C152.336 29.3438 152.029 29.4219 151.789 29.5781C151.549 29.724 151.247 30.0104 150.883 30.4375C151.164 29.6875 151.305 28.9167 151.305 28.125H159.148C159.148 28.8958 159.294 29.6667 159.586 30.4375C159.242 30.0521 158.977 29.7917 158.789 29.6562C158.602 29.5104 158.383 29.4167 158.133 29.375C157.508 29.3854 156.924 29.5781 156.383 29.9531C155.852 30.3177 155.445 30.7865 155.164 31.3594C154.747 32.2031 154.674 33.1823 154.945 34.2969C155.081 34.776 155.273 35.2552 155.523 35.7344C155.784 36.2031 156.133 36.7656 156.57 37.4219C157.008 38.0677 157.294 38.5 157.43 38.7188L158.617 40.7656C158.596 40.7865 158.529 40.8542 158.414 40.9688C158.299 41.0938 158.216 41.1771 158.164 41.2188C158.122 41.2708 158.044 41.3594 157.93 41.4844C157.815 41.6198 157.721 41.7344 157.648 41.8281C157.586 41.9323 157.508 42.0521 157.414 42.1875C157.32 42.3333 157.232 42.4844 157.148 42.6406C157.076 42.8073 157.003 42.9792 156.93 43.1562C156.971 42.5625 156.909 41.9427 156.742 41.2969C156.586 40.6615 156.362 40.0521 156.07 39.4688C155.779 38.8958 155.477 38.3385 155.164 37.7969C154.852 37.2552 154.549 36.6875 154.258 36.0938C153.977 35.4896 153.779 34.9479 153.664 34.4688C153.32 32.9688 153.523 31.6198 154.273 30.4219C154.544 29.9531 154.831 29.5938 155.133 29.3438H152.711ZM166.586 28.6719L166.805 26.9844H165.93C165.669 26.9844 165.383 27.1406 165.07 27.4531V25.4688C165.383 25.7812 165.669 25.9375 165.93 25.9375H169.852C170.112 25.9375 170.398 25.7812 170.711 25.4688V27.4531C170.398 27.1406 170.112 26.9844 169.852 26.9844H167.977L167.758 28.6719H170.742C170.378 29.0365 170.195 29.3229 170.195 29.5312V31.625H171.023V33.1406C170.711 32.8281 170.424 32.6719 170.164 32.6719H165.695C165.435 32.6719 165.148 32.8281 164.836 33.1406V31.1562C165.148 31.4688 165.435 31.625 165.695 31.625H166.133L166.398 29.6406H166.18C165.919 29.6406 165.633 29.7969 165.32 30.1094V28.2031C165.633 28.5156 165.919 28.6719 166.18 28.6719H166.586ZM166.398 38.7969V39.9531C166.086 39.6406 165.799 39.4844 165.539 39.4844H164.742C165.107 39.1198 165.289 38.8333 165.289 38.625V34.6562C165.289 34.4479 165.107 34.1615 164.742 33.7969H171.039C170.674 34.1615 170.492 34.4479 170.492 34.6562V38.625C170.492 38.8333 170.674 39.1198 171.039 39.4844H170.211C169.951 39.4844 169.664 39.6406 169.352 39.9531V38.7969H166.398ZM162.055 39.0781V40.25C161.742 39.9375 161.456 39.7812 161.195 39.7812H160.398C160.763 39.4167 160.945 39.1302 160.945 38.9219V35.8594C160.945 35.651 160.763 35.3646 160.398 35H165.352C164.987 35.3646 164.805 35.651 164.805 35.8594V38.2188C164.805 38.4271 164.987 38.7135 165.352 39.0781H162.055ZM162.055 38.0781H163.727V36.0312H162.055V38.0781ZM167.305 31.625H169.055V29.6406H167.57L167.305 31.625ZM169.352 37.7969V34.8281H166.398V37.7969H169.352ZM160.945 27.4219V25.4375C161.258 25.75 161.544 25.9062 161.805 25.9062H163.93C164.19 25.9062 164.477 25.75 164.789 25.4375V27.4219C164.477 27.1094 164.19 26.9531 163.93 26.9531H161.805C161.544 26.9531 161.258 27.1094 160.945 27.4219ZM160.633 29.6875V27.6875C160.945 28 161.232 28.1562 161.492 28.1562H164.227C164.487 28.1562 164.773 28 165.086 27.6875V29.6875C164.773 29.375 164.487 29.2188 164.227 29.2188H161.492C161.232 29.2188 160.945 29.375 160.633 29.6875ZM161.023 31.9531V30C161.336 30.3125 161.622 30.4688 161.883 30.4688H163.883C164.143 30.4688 164.43 30.3125 164.742 30V31.9531C164.43 31.6406 164.143 31.4844 163.883 31.4844H161.883C161.622 31.4844 161.336 31.6406 161.023 31.9531ZM161.023 34.2188V32.2656C161.336 32.5781 161.622 32.7344 161.883 32.7344H163.883C164.143 32.7344 164.43 32.5781 164.742 32.2656V34.2188C164.43 33.9062 164.143 33.75 163.883 33.75H161.883C161.622 33.75 161.336 33.9062 161.023 34.2188ZM175.82 30.6875C176.487 30.7188 177.102 30.8958 177.664 31.2188C178.227 31.5312 178.648 32 178.93 32.625C179.18 33.2396 179.294 33.8958 179.273 34.5938C179.263 35.2917 179.133 35.9427 178.883 36.5469C178.581 37.276 178.102 37.849 177.445 38.2656C176.789 38.6823 176.07 38.8646 175.289 38.8125C174.445 38.7604 173.747 38.4479 173.195 37.875C172.643 37.3021 172.388 36.5938 172.43 35.75C172.461 35.0312 172.763 34.4219 173.336 33.9219C173.919 33.4219 174.57 33.2031 175.289 33.2656C175.758 33.3177 176.185 33.474 176.57 33.7344C176.956 33.9844 177.253 34.3229 177.461 34.75C177.669 35.2188 177.773 35.599 177.773 35.8906C177.888 35.5365 177.956 35.0729 177.977 34.5C177.997 34.0938 177.956 33.7188 177.852 33.375C177.654 32.6875 177.138 32.2448 176.305 32.0469C176.138 32.0052 175.966 31.974 175.789 31.9531C175.622 31.9323 175.414 31.9271 175.164 31.9375C174.914 31.9479 174.742 31.9583 174.648 31.9688C174.555 31.9688 174.331 31.9896 173.977 32.0312C173.622 32.0625 173.419 32.0833 173.367 32.0938C173.784 31.4479 174.357 30.5781 175.086 29.4844C175.815 28.3906 176.31 27.6458 176.57 27.25H173.758C173.393 27.25 173.086 27.3281 172.836 27.4844C172.596 27.6406 172.294 27.9375 171.93 28.375C172.201 27.6042 172.336 26.8229 172.336 26.0312H178.867C178.534 26.5417 178.023 27.3177 177.336 28.3594C176.659 29.401 176.154 30.1771 175.82 30.6875ZM176.602 37.2969C176.789 36.1094 176.576 35.276 175.961 34.7969C175.607 34.526 175.221 34.4375 174.805 34.5312C174.388 34.6146 174.065 34.849 173.836 35.2344C173.659 35.5885 173.628 35.9635 173.742 36.3594C173.867 36.7552 174.096 37.0625 174.43 37.2812C174.701 37.4792 175.049 37.5781 175.477 37.5781C175.904 37.5781 176.279 37.4844 176.602 37.2969ZM185.289 35.5156C185.841 34.3385 186.19 33.1406 186.336 31.9219C186.419 31.276 186.451 30.4219 186.43 29.3594H182.367C182.003 29.3594 181.695 29.4375 181.445 29.5938C181.206 29.7396 180.904 30.026 180.539 30.4531C180.81 29.6927 180.945 28.9167 180.945 28.125H188.102C187.914 28.3438 187.779 28.5521 187.695 28.75C187.674 30.3958 187.633 31.4792 187.57 32C187.456 33.25 187.122 34.5312 186.57 35.8438C186.154 36.8125 185.497 38.026 184.602 39.4844C184.508 39.651 184.352 39.9167 184.133 40.2812C183.914 40.6562 183.753 40.9427 183.648 41.1406C183.367 41.6406 183.148 42.1562 182.992 42.6875C182.857 42 182.555 41.4479 182.086 41.0312C182.253 40.7708 182.471 40.4167 182.742 39.9688C183.023 39.5312 183.221 39.224 183.336 39.0469C184.242 37.599 184.893 36.4219 185.289 35.5156ZM184.102 26.1562C184.102 25.9583 184.174 25.7865 184.32 25.6406C184.466 25.4948 184.643 25.4219 184.852 25.4219C185.06 25.4219 185.237 25.4948 185.383 25.6406C185.539 25.7865 185.617 25.9583 185.617 26.1562C185.617 26.3646 185.539 26.5469 185.383 26.7031C185.237 26.849 185.06 26.9219 184.852 26.9219C184.643 26.9219 184.466 26.849 184.32 26.7031C184.174 26.5469 184.102 26.3646 184.102 26.1562ZM186.242 26.1562C186.242 25.9583 186.315 25.7865 186.461 25.6406C186.617 25.4948 186.799 25.4219 187.008 25.4219C187.216 25.4219 187.393 25.4948 187.539 25.6406C187.695 25.7865 187.773 25.9583 187.773 26.1562C187.773 26.3646 187.695 26.5469 187.539 26.7031C187.393 26.849 187.216 26.9219 187.008 26.9219C186.799 26.9219 186.617 26.849 186.461 26.7031C186.315 26.5469 186.242 26.3646 186.242 26.1562ZM189.648 38.8438C189.94 38.4792 190.086 38.2031 190.086 38.0156V28.875C190.086 28.6875 189.94 28.4167 189.648 28.0625H197.492C197.201 28.3958 197.055 28.6667 197.055 28.875V38.0156C197.055 38.224 197.201 38.5 197.492 38.8438H189.648ZM191.32 29.2969V37.6094H195.82V29.2969H191.32ZM198.492 33.25C198.898 32.9688 199.138 32.7031 199.211 32.4531C199.221 32.4427 199.388 31.8542 199.711 30.6875C200.034 29.5208 200.201 28.9323 200.211 28.9219C200.273 28.7031 200.195 28.4427 199.977 28.1406H204.727C204.497 28.3906 204.346 28.6302 204.273 28.8594V32.0781C204.273 33.9115 204.201 35.2396 204.055 36.0625C203.888 37.0729 203.378 38.3385 202.523 39.8594C202.055 40.724 201.768 41.276 201.664 41.5156C201.352 42.2656 201.164 42.8698 201.102 43.3281C200.862 42.6406 200.456 42.2292 199.883 42.0938C199.987 41.8125 200.091 41.5729 200.195 41.375C200.518 40.6979 200.82 40.1146 201.102 39.625C201.445 39.0417 201.685 38.625 201.82 38.375C201.956 38.125 202.122 37.7604 202.32 37.2812C202.529 36.8021 202.674 36.349 202.758 35.9219C202.935 35.0781 203.023 33.7969 203.023 32.0781C203.023 30.8385 203.018 29.9323 203.008 29.3594H201.383C201.331 29.5677 201.227 29.9427 201.07 30.4844C200.914 31.0156 200.779 31.4792 200.664 31.875C200.56 32.2708 200.508 32.474 200.508 32.4844C200.435 32.6719 200.508 32.9271 200.727 33.25H198.492ZM201.43 26.7031C201.284 26.5573 201.211 26.3802 201.211 26.1719C201.211 25.9635 201.284 25.7865 201.43 25.6406C201.586 25.4948 201.768 25.4219 201.977 25.4219C202.185 25.4219 202.362 25.4948 202.508 25.6406C202.664 25.7865 202.742 25.9635 202.742 26.1719C202.742 26.3802 202.664 26.5573 202.508 26.7031C202.362 26.849 202.185 26.9219 201.977 26.9219C201.768 26.9219 201.586 26.849 201.43 26.7031ZM203.367 26.1719C203.367 25.974 203.44 25.8021 203.586 25.6562C203.742 25.5 203.924 25.4219 204.133 25.4219C204.341 25.4219 204.518 25.4948 204.664 25.6406C204.81 25.7865 204.883 25.9635 204.883 26.1719C204.883 26.3802 204.81 26.5573 204.664 26.7031C204.518 26.849 204.341 26.9219 204.133 26.9219C203.924 26.9219 203.742 26.849 203.586 26.7031C203.44 26.5573 203.367 26.3802 203.367 26.1719ZM207.68 29.3438C207.305 29.3438 206.997 29.4219 206.758 29.5781C206.518 29.724 206.216 30.0104 205.852 30.4375C206.133 29.6875 206.273 28.9167 206.273 28.125H214.117C214.117 28.8958 214.263 29.6667 214.555 30.4375C214.211 30.0521 213.945 29.7917 213.758 29.6562C213.57 29.5104 213.352 29.4167 213.102 29.375C212.477 29.3854 211.893 29.5781 211.352 29.9531C210.82 30.3177 210.414 30.7865 210.133 31.3594C209.716 32.2031 209.643 33.1823 209.914 34.2969C210.049 34.776 210.242 35.2552 210.492 35.7344C210.753 36.2031 211.102 36.7656 211.539 37.4219C211.977 38.0677 212.263 38.5 212.398 38.7188L213.586 40.7656C213.565 40.7865 213.497 40.8542 213.383 40.9688C213.268 41.0938 213.185 41.1771 213.133 41.2188C213.091 41.2708 213.013 41.3594 212.898 41.4844C212.784 41.6198 212.69 41.7344 212.617 41.8281C212.555 41.9323 212.477 42.0521 212.383 42.1875C212.289 42.3333 212.201 42.4844 212.117 42.6406C212.044 42.8073 211.971 42.9792 211.898 43.1562C211.94 42.5625 211.878 41.9427 211.711 41.2969C211.555 40.6615 211.331 40.0521 211.039 39.4688C210.747 38.8958 210.445 38.3385 210.133 37.7969C209.82 37.2552 209.518 36.6875 209.227 36.0938C208.945 35.4896 208.747 34.9479 208.633 34.4688C208.289 32.9688 208.492 31.6198 209.242 30.4219C209.513 29.9531 209.799 29.5938 210.102 29.3438H207.68ZM210.617 26.7031C210.471 26.5469 210.398 26.3646 210.398 26.1562C210.398 25.9479 210.471 25.7708 210.617 25.625C210.773 25.4792 210.956 25.4062 211.164 25.4062C211.372 25.4062 211.549 25.4844 211.695 25.6406C211.852 25.7865 211.93 25.9583 211.93 26.1562C211.93 26.3646 211.852 26.5469 211.695 26.7031C211.549 26.849 211.372 26.9219 211.164 26.9219C210.956 26.9219 210.773 26.849 210.617 26.7031ZM212.773 26.7031C212.628 26.5469 212.555 26.3646 212.555 26.1562C212.555 25.9479 212.628 25.7708 212.773 25.625C212.93 25.4792 213.107 25.4062 213.305 25.4062C213.523 25.4062 213.706 25.4792 213.852 25.625C213.997 25.7708 214.07 25.9479 214.07 26.1562C214.07 26.3646 213.997 26.5469 213.852 26.7031C213.706 26.849 213.523 26.9219 213.305 26.9219C213.096 26.9219 212.919 26.849 212.773 26.7031ZM217.492 29.3594C217.117 29.3594 216.805 29.4375 216.555 29.5938C216.305 29.7396 216.003 30.026 215.648 30.4531C215.94 29.6823 216.086 28.9115 216.086 28.1406H219.227V27.7188C219.227 27.4583 219.039 27.2396 218.664 27.0625C219.143 26.9375 219.482 26.8229 219.68 26.7188C219.878 26.6042 220.201 26.349 220.648 25.9531C220.523 26.5156 220.461 27.0938 220.461 27.6875V28.1406H223.914C223.914 28.901 224.055 29.6719 224.336 30.4531C223.982 30.026 223.68 29.7396 223.43 29.5938C223.19 29.4375 222.883 29.3594 222.508 29.3594H220.461V35.9844C220.461 36.2344 220.487 36.4062 220.539 36.5C220.591 36.5833 220.753 36.724 221.023 36.9219H219.992C218.815 36.9219 218.076 36.8646 217.773 36.75C217.336 36.5729 216.992 36.276 216.742 35.8594C216.503 35.4427 216.383 34.9896 216.383 34.5C216.383 33.6875 216.711 32.9531 217.367 32.2969C217.586 32.099 217.971 31.7969 218.523 31.3906C218.93 31.0573 219.164 30.7656 219.227 30.5156V29.3594H217.492ZM219.227 35.7031V32.4688L219.211 32.4844C219.148 32.526 219.096 32.5573 219.055 32.5781C219.013 32.6094 218.924 32.6771 218.789 32.7812C218.664 32.875 218.57 32.9479 218.508 33C218.445 33.0417 218.362 33.1094 218.258 33.2031C218.154 33.2865 218.076 33.3646 218.023 33.4375C217.971 33.5104 217.914 33.599 217.852 33.7031C217.799 33.7969 217.763 33.8958 217.742 34C217.628 34.3229 217.622 34.6458 217.727 34.9688C217.841 35.2917 218.06 35.5 218.383 35.5938C218.602 35.6667 218.883 35.7031 219.227 35.7031ZM219.555 40.0469C219.659 39.8698 219.867 39.5521 220.18 39.0938C220.492 38.6354 220.727 38.2344 220.883 37.8906C221.049 37.5469 221.154 37.1927 221.195 36.8281C221.31 35.849 221.247 34.9062 221.008 34C220.956 33.7396 220.815 33.3385 220.586 32.7969C220.836 32.5365 221.029 32.2708 221.164 32C221.299 31.7188 221.404 31.3333 221.477 30.8438C221.549 31.0625 221.633 31.3333 221.727 31.6562C221.82 31.9688 221.878 32.151 221.898 32.2031C222.128 32.8594 222.284 33.4531 222.367 33.9844C222.596 35.224 222.612 36.3594 222.414 37.3906C222.331 37.7656 222.174 38.1771 221.945 38.625C221.727 39.0729 221.508 39.4688 221.289 39.8125C221.081 40.1562 220.872 40.5521 220.664 41C220.466 41.4479 220.341 41.8646 220.289 42.25C220.247 42.6354 220.284 43.0938 220.398 43.625C219.732 43.4688 219.096 43.5365 218.492 43.8281C218.648 42.2448 219.003 40.9844 219.555 40.0469Z" fill="#797979"/>
</svg>
