<svg width="674" height="30" viewBox="0 0 674 30" fill="none" xmlns="http://www.w3.org/2000/svg">
<path d="M8.95312 16.5781V18.3359C8.48438 17.8672 8.0625 17.6328 7.6875 17.6328H6.5625C7.125 17.0859 7.40625 16.6562 7.40625 16.3438V12.1484C7.40625 11.8359 7.125 11.4062 6.5625 10.8594H14.25C13.6875 11.4062 13.4062 11.8359 13.4062 12.1484V15.2891C13.4062 15.6016 13.6875 16.0312 14.25 16.5781H8.95312ZM8.95312 15.1953H11.8594V12.2891H8.95312V15.1953ZM9.60938 3.19531H6.84375V9.26562C6.84375 11.5312 6.77344 13.375 6.63281 14.7969C6.49219 16.2188 6.21875 17.5156 5.8125 18.6875L4.35938 17.9141C4.67188 16.8203 4.89062 15.625 5.01562 14.3281C5.14062 13.0312 5.20312 11.2188 5.20312 8.89062V2.96094C5.20312 2.64844 4.9375 2.21875 4.40625 1.67188H16.5C15.9688 2.21875 15.7031 2.64844 15.7031 2.96094V16.4375C15.7031 17.5938 15.5781 18.3281 15.3281 18.6406C15.0781 18.9375 14.5312 19.0859 13.6875 19.0859C13.2812 19.0859 12.625 19.0547 11.7188 18.9922L11.6719 17.375C12.5781 17.4375 13.1875 17.4688 13.5 17.4688C13.7812 17.4688 13.9375 17.4141 13.9688 17.3047C14 17.1953 14.0156 16.8125 14.0156 16.1562V3.19531H11.25V4.78906H12.3281C12.7344 4.78906 13.1719 4.55469 13.6406 4.08594V6.89844C13.1719 6.42969 12.7344 6.19531 12.3281 6.19531H11.25V8.1875H12.5625C12.9375 8.1875 13.3594 7.95312 13.8281 7.48438V10.2969C13.3594 9.82812 12.9375 9.59375 12.5625 9.59375H8.34375C7.9375 9.59375 7.5 9.82812 7.03125 10.2969V7.48438C7.5 7.95312 7.9375 8.1875 8.34375 8.1875H9.60938V6.19531H8.53125C8.15625 6.19531 7.73438 6.42969 7.26562 6.89844V4.08594C7.73438 4.55469 8.15625 4.78906 8.53125 4.78906H9.60938V3.19531ZM0.75 2.84375L1.875 1.74219C2.9375 3.07031 3.95312 4.49219 4.92188 6.00781L3.79688 7.10938C2.67188 5.46875 1.65625 4.04688 0.75 2.84375ZM2.85938 18.125V11.7031H2.01562C1.64062 11.7031 1.21875 11.9375 0.75 12.4062V9.40625C1.21875 9.875 1.64062 10.1094 2.01562 10.1094H5.34375C4.8125 10.6562 4.54688 11.0859 4.54688 11.3984V17.5391C4.82812 18.3047 5.17188 18.8906 5.57812 19.2969C5.98438 19.6875 6.57031 19.9688 7.33594 20.1406C8.10156 20.3281 9.20312 20.4219 10.6406 20.4219H16.0781L16.0312 22.0391H10.5938C8.59375 22.0391 7.07812 21.8359 6.04688 21.4297C5.01562 21.0391 4.28125 20.3594 3.84375 19.3906C3.3125 20.4062 2.46875 21.4219 1.3125 22.4375L0.515625 20.8906C1.51562 19.9844 2.25 19.0625 2.71875 18.125H2.85938ZM17.7422 1.76562C18.2109 2.23438 18.6484 2.46875 19.0547 2.46875H26.8828C26.3203 3.01563 26.0391 3.44531 26.0391 3.75781V4.08594C24.1016 8.67969 22.4766 13.9844 21.1641 20H19.3359C20.6797 14.1562 22.3359 8.86719 24.3047 4.13281V4.08594H19.0547C18.6484 4.08594 18.2109 4.32031 17.7422 4.78906V1.76562ZM30.9844 7.01562C30.4219 7.01562 29.9609 7.13281 29.6016 7.36719C29.2422 7.58594 28.7891 8.01562 28.2422 8.65625C28.6641 7.53125 28.875 6.375 28.875 5.1875H40.6406C40.6406 6.34375 40.8594 7.5 41.2969 8.65625C40.7812 8.07812 40.3828 7.6875 40.1016 7.48438C39.8203 7.26562 39.4922 7.125 39.1172 7.0625C38.1797 7.07812 37.3047 7.36719 36.4922 7.92969C35.6953 8.47656 35.0859 9.17969 34.6641 10.0391C34.0391 11.3047 33.9297 12.7734 34.3359 14.4453C34.5391 15.1641 34.8281 15.8828 35.2031 16.6016C35.5938 17.3047 36.1172 18.1484 36.7734 19.1328C37.4297 20.1016 37.8594 20.75 38.0625 21.0781L39.8438 24.1484C39.8125 24.1797 39.7109 24.2812 39.5391 24.4531C39.3672 24.6406 39.2422 24.7656 39.1641 24.8281C39.1016 24.9062 38.9844 25.0391 38.8125 25.2266C38.6406 25.4297 38.5 25.6016 38.3906 25.7422C38.2969 25.8984 38.1797 26.0781 38.0391 26.2812C37.8984 26.5 37.7656 26.7266 37.6406 26.9609C37.5312 27.2109 37.4219 27.4688 37.3125 27.7344C37.375 26.8438 37.2812 25.9141 37.0312 24.9453C36.7969 23.9922 36.4609 23.0781 36.0234 22.2031C35.5859 21.3438 35.1328 20.5078 34.6641 19.6953C34.1953 18.8828 33.7422 18.0312 33.3047 17.1406C32.8828 16.2344 32.5859 15.4219 32.4141 14.7031C31.8984 12.4531 32.2031 10.4297 33.3281 8.63281C33.7344 7.92969 34.1641 7.39062 34.6172 7.01562H30.9844ZM35.3906 3.05469C35.1719 2.82031 35.0625 2.54688 35.0625 2.23438C35.0625 1.92187 35.1719 1.65625 35.3906 1.4375C35.625 1.21875 35.8984 1.10938 36.2109 1.10938C36.5234 1.10938 36.7891 1.22656 37.0078 1.46094C37.2422 1.67969 37.3594 1.9375 37.3594 2.23438C37.3594 2.54688 37.2422 2.82031 37.0078 3.05469C36.7891 3.27344 36.5234 3.38281 36.2109 3.38281C35.8984 3.38281 35.625 3.27344 35.3906 3.05469ZM38.625 3.05469C38.4062 2.82031 38.2969 2.54688 38.2969 2.23438C38.2969 1.92187 38.4062 1.65625 38.625 1.4375C38.8594 1.21875 39.125 1.10938 39.4219 1.10938C39.75 1.10938 40.0234 1.21875 40.2422 1.4375C40.4609 1.65625 40.5703 1.92187 40.5703 2.23438C40.5703 2.54688 40.4609 2.82031 40.2422 3.05469C40.0234 3.27344 39.75 3.38281 39.4219 3.38281C39.1094 3.38281 38.8438 3.27344 38.625 3.05469ZM55.3359 4.15625C56.0234 4.71875 56.8594 4.99219 57.8438 4.97656C57.4375 5.64844 57.0312 6.53906 56.625 7.64844C56.5 7.99219 56.0312 9.14062 55.2188 11.0938C54.375 13.0469 53.4375 14.7344 52.4062 16.1562C53.9688 17.7812 54.7891 18.625 54.8672 18.6875C55.7734 19.3438 56.4531 19.7656 56.9062 19.9531L52.8984 19.9766C52.9609 19.8047 52.9609 19.6172 52.8984 19.4141C52.8516 19.2109 52.7656 19.0469 52.6406 18.9219C52.625 18.875 52.1953 18.4062 51.3516 17.5156C50.1172 18.875 48.9531 19.8125 47.8594 20.3281C47.0156 20.7031 45.9688 20.9062 44.7188 20.9375C44.4844 20.9375 43.9297 20.9062 43.0547 20.8438C43.1328 19.9375 42.8828 19.0391 42.3047 18.1484C42.4609 18.2266 42.5938 18.3047 42.7031 18.3828C42.8281 18.4453 42.9141 18.4922 42.9609 18.5234C43.0234 18.5547 43.0703 18.5781 43.1016 18.5938C43.4141 18.6875 43.7344 18.75 44.0625 18.7812C44.75 18.8594 45.3516 18.8672 45.8672 18.8047C46.5234 18.7266 47.1953 18.4922 47.8828 18.1016C48.6484 17.5547 49.3672 16.8906 50.0391 16.1094C49.7109 15.7344 49.3281 15.3203 48.8906 14.8672C48.4531 14.3984 48.1094 14.0391 47.8594 13.7891C47.625 13.5234 47.5078 13.3828 47.5078 13.3672C47.1641 12.9922 46.4922 12.5781 45.4922 12.125L49.5 12.1016C49.4375 12.2734 49.4297 12.4766 49.4766 12.7109C49.5391 12.9297 49.6328 13.1016 49.7578 13.2266L49.9453 13.4375C50.0703 13.5625 50.2422 13.75 50.4609 14C50.6953 14.25 50.9141 14.4922 51.1172 14.7266C51.8047 13.7109 52.3828 12.7031 52.8516 11.7031C53.4766 10.3906 54.0078 9.04688 54.4453 7.67188C55.0391 5.84375 55.3359 4.67188 55.3359 4.15625ZM64.8047 10.9531H61.7109C60.6641 10.9531 59.7891 11.0391 59.0859 11.2109C60.0078 10.2734 60.5547 9.28125 60.7266 8.23438C60.8672 8.51562 61.0859 8.71875 61.3828 8.84375C61.6797 8.96875 61.9375 9.03125 62.1562 9.03125H65.25C66.2969 9.03125 67.1641 8.94531 67.8516 8.77344C67.0391 9.66406 66.4922 10.6328 66.2109 11.6797C65.8984 11.1953 65.4297 10.9531 64.8047 10.9531ZM74.2734 8.25781C74.1797 9.28906 74.3438 10.0625 74.7656 10.5781C73.8594 11.0156 73.125 11.5234 72.5625 12.1016C72 12.6953 71.2969 13.6641 70.4531 15.0078C69.625 16.3516 68.9609 17.3047 68.4609 17.8672C67.3828 19.0859 66.1797 20.0625 64.8516 20.7969C63.9766 21.3125 63.0469 21.6953 62.0625 21.9453C60.8125 22.3516 60.1797 22.5547 60.1641 22.5547C60.0859 21.7266 59.8047 21.0469 59.3203 20.5156C62.8828 19.8281 65.5234 18.4297 67.2422 16.3203C67.8047 15.6328 68.3281 14.9062 68.8125 14.1406C69.2812 13.3906 69.6484 12.8203 69.9141 12.4297C70.1797 12.0391 70.5547 11.5391 71.0391 10.9297C71.5234 10.3203 72.0234 9.80469 72.5391 9.38281C73.0703 8.94531 73.6484 8.57031 74.2734 8.25781ZM79.8984 13.3672C79.6953 13.6797 79.6641 14.0625 79.8047 14.5156H76.0547C76.8984 14.0625 77.4844 13.6328 77.8125 13.2266C77.8125 13.2266 79.4297 10.9688 82.6641 6.45312C87.9453 15.3906 90.6016 19.8828 90.6328 19.9297C90.8828 20.3516 91.4219 20.7812 92.25 21.2188H88.4062C88.6406 20.8125 88.6719 20.4219 88.5 20.0469C88.375 19.7969 86.3828 16.3438 82.5234 9.6875C82.2734 10.0469 81.9219 10.5391 81.4688 11.1641C81.0156 11.7891 80.6406 12.3125 80.3438 12.7344C80.0469 13.1406 79.8984 13.3516 79.8984 13.3672ZM94.9922 8.65625C95.4141 7.53125 95.625 6.375 95.625 5.1875H105.281C105.281 6.375 105.492 7.53125 105.914 8.65625C105.383 8.01562 104.93 7.58594 104.555 7.36719C104.195 7.13281 103.734 7.01562 103.172 7.01562H97.7344C97.1719 7.01562 96.7031 7.13281 96.3281 7.36719C95.9688 7.58594 95.5234 8.01562 94.9922 8.65625ZM98.3203 22.8594C98.0078 23.0625 97.5547 23.3281 96.9609 23.6562C96.3828 23.9844 95.9922 24.2109 95.7891 24.3359C95.0391 24.7109 94.2031 25.4219 93.2812 26.4688C93.6562 24.8906 93.6406 23.6641 93.2344 22.7891C93.7188 22.8672 94.1719 22.8047 94.5938 22.6016C95.8906 21.9922 97 21.3906 97.9219 20.7969C100.016 19.4688 101.547 17.7812 102.516 15.7344C102.781 15.1719 103.102 14.3594 103.477 13.2969C103.867 12.2188 104.102 11.3984 104.18 10.8359H96.6797C96.1172 10.8359 95.6406 10.9531 95.25 11.1875C94.875 11.4062 94.4297 11.8281 93.9141 12.4531C94.3516 11.2969 94.5703 10.1484 94.5703 9.00781H107.016C106.656 9.36719 106.422 9.77344 106.312 10.2266C106.188 10.8984 105.914 11.8828 105.492 13.1797C104.492 16.3672 103.188 18.7734 101.578 20.3984C100.672 21.2734 99.5859 22.0938 98.3203 22.8594ZM117.516 5.42188C118.828 5.78125 119.836 6.54688 120.539 7.71875C121.258 8.875 121.641 10.1719 121.688 11.6094C121.75 13.7031 121.25 15.7344 120.188 17.7031C120.047 17.9531 119.477 18.8828 118.477 20.4922C117.477 22.1172 116.812 23.3984 116.484 24.3359C116.234 25.0703 116.086 25.7422 116.039 26.3516C115.273 25.5547 114.406 25.2188 113.438 25.3438C113.828 24.7188 114.344 23.7891 114.984 22.5547C115.719 21.2109 116.391 20.0703 117 19.1328C117.531 18.2891 117.938 17.6328 118.219 17.1641C118.516 16.6797 118.82 16.0547 119.133 15.2891C119.461 14.5078 119.68 13.7734 119.789 13.0859C119.961 11.8203 119.859 10.6328 119.484 9.52344C119.125 8.39844 118.414 7.63281 117.352 7.22656C116.539 6.91406 115.711 6.85938 114.867 7.0625C114.023 7.25 113.297 7.64062 112.688 8.23438C111.453 9.40625 110.727 10.9453 110.508 12.8516C110.398 13.9609 110.461 14.9453 110.695 15.8047C110.898 16.5234 111.227 16.9688 111.68 17.1406C112.461 17.4688 113.125 17.3594 113.672 16.8125C114.234 16.2656 114.594 15.5703 114.75 14.7266C115.047 13.1016 114.688 11.4609 113.672 9.80469C114.547 9.67969 115.32 9.39062 115.992 8.9375C116.008 9.03125 116.055 9.28125 116.133 9.6875C116.227 10.0781 116.281 10.3359 116.297 10.4609C116.328 10.5859 116.375 10.8281 116.438 11.1875C116.5 11.5469 116.539 11.8047 116.555 11.9609C116.57 12.1016 116.594 12.3359 116.625 12.6641C116.672 12.9922 116.688 13.25 116.672 13.4375C116.672 13.6094 116.664 13.8438 116.648 14.1406C116.648 14.4219 116.625 14.6719 116.578 14.8906C116.531 15.0938 116.477 15.3203 116.414 15.5703C116.352 15.8203 116.273 16.0625 116.18 16.2969C115.727 17.3594 114.984 18.1562 113.953 18.6875C112.922 19.2031 111.891 19.1953 110.859 18.6641C110.203 18.3516 109.695 17.8281 109.336 17.0938C108.977 16.3438 108.789 15.5859 108.773 14.8203C108.758 14.0547 108.773 13.3125 108.82 12.5938C108.961 11.3906 109.336 10.2188 109.945 9.07812C110.555 7.92187 111.336 7 112.289 6.3125C113.023 5.79688 113.859 5.46094 114.797 5.30469C115.734 5.14844 116.641 5.1875 117.516 5.42188ZM136.148 21.2656H124.406C124.406 20.0938 124.188 18.9219 123.75 17.75C124.297 18.4062 124.75 18.8516 125.109 19.0859C125.484 19.3047 125.953 19.4141 126.516 19.4141H129.352V6.94531H128.156C127.609 6.94531 127.156 7.0625 126.797 7.29688C126.453 7.51563 126 7.95312 125.438 8.60938C125.828 7.42188 126.023 6.25 126.023 5.09375H134.508C134.508 6.3125 134.711 7.48438 135.117 8.60938C134.57 7.95312 134.117 7.51563 133.758 7.29688C133.398 7.0625 132.945 6.94531 132.398 6.94531H131.203V19.4141H134.039C134.602 19.4141 135.062 19.3047 135.422 19.0859C135.781 18.8516 136.234 18.4062 136.781 17.75C136.359 18.9375 136.148 20.1094 136.148 21.2656ZM144.047 10.9531H140.953C139.906 10.9531 139.031 11.0391 138.328 11.2109C139.25 10.2734 139.797 9.28125 139.969 8.23438C140.109 8.51562 140.328 8.71875 140.625 8.84375C140.922 8.96875 141.18 9.03125 141.398 9.03125H144.492C145.539 9.03125 146.406 8.94531 147.094 8.77344C146.281 9.66406 145.734 10.6328 145.453 11.6797C145.141 11.1953 144.672 10.9531 144.047 10.9531ZM153.516 8.25781C153.422 9.28906 153.586 10.0625 154.008 10.5781C153.102 11.0156 152.367 11.5234 151.805 12.1016C151.242 12.6953 150.539 13.6641 149.695 15.0078C148.867 16.3516 148.203 17.3047 147.703 17.8672C146.625 19.0859 145.422 20.0625 144.094 20.7969C143.219 21.3125 142.289 21.6953 141.305 21.9453C140.055 22.3516 139.422 22.5547 139.406 22.5547C139.328 21.7266 139.047 21.0469 138.562 20.5156C142.125 19.8281 144.766 18.4297 146.484 16.3203C147.047 15.6328 147.57 14.9062 148.055 14.1406C148.523 13.3906 148.891 12.8203 149.156 12.4297C149.422 12.0391 149.797 11.5391 150.281 10.9297C150.766 10.3203 151.266 9.80469 151.781 9.38281C152.312 8.94531 152.891 8.57031 153.516 8.25781ZM167.789 9.82812C167.789 10.6875 167.797 11.4922 167.812 12.2422C167.828 12.9922 167.758 13.7891 167.602 14.6328C167.445 15.4609 167.188 16.2188 166.828 16.9062C166.172 18.1875 164.969 19.6719 163.219 21.3594L161.25 23.2109C160.703 23.6797 160.219 24.25 159.797 24.9219C159.625 24.0938 159.078 23.4688 158.156 23.0469C158.484 22.8281 158.992 22.4297 159.68 21.8516C160.492 21.1328 161.109 20.5859 161.531 20.2109C163.078 18.7891 164.172 17.5703 164.812 16.5547C165.266 15.8672 165.578 15.1172 165.75 14.3047C165.828 13.9766 165.867 13.3984 165.867 12.5703V8.91406H165.891V6.24219C165.891 5.85156 165.602 5.53125 165.023 5.28125C165.773 5.0625 166.297 4.875 166.594 4.71875C166.906 4.54687 167.406 4.17969 168.094 3.61719C167.891 4.41406 167.789 5.27344 167.789 6.19531V9.82812ZM160.359 8.86719C160.297 8.86719 160.008 8.875 159.492 8.89062C158.977 8.89062 158.695 8.89062 158.648 8.89062C157.633 8.89062 156.75 8.96094 156 9.10156C156.938 8.17969 157.5 7.26562 157.688 6.35938C157.828 6.60937 158.039 6.79687 158.32 6.92188C158.617 7.03125 158.867 7.08594 159.07 7.08594H160.805C161.852 7.08594 162.75 7 163.5 6.82812C162.609 7.6875 162.031 8.59375 161.766 9.54688C161.609 9.3125 161.383 9.14062 161.086 9.03125C160.805 8.92188 160.562 8.86719 160.359 8.86719ZM160.359 12.7109H158.648C157.711 12.7109 156.828 12.7891 156 12.9453C156.938 12.0547 157.5 11.1406 157.688 10.2031C157.828 10.4531 158.039 10.6406 158.32 10.7656C158.617 10.875 158.867 10.9297 159.07 10.9297H160.805C161.742 10.9297 162.633 10.8516 163.477 10.6953C162.586 11.5547 162.016 12.4453 161.766 13.3672C161.484 12.9297 161.016 12.7109 160.359 12.7109ZM162.633 3.03125C162.398 2.79688 162.281 2.52344 162.281 2.21094C162.281 1.89844 162.398 1.63281 162.633 1.41406C162.867 1.17969 163.141 1.0625 163.453 1.0625C163.766 1.0625 164.031 1.17969 164.25 1.41406C164.469 1.63281 164.578 1.89844 164.578 2.21094C164.578 2.52344 164.461 2.79688 164.227 3.03125C164.008 3.25 163.75 3.35938 163.453 3.35938C163.141 3.35938 162.867 3.25 162.633 3.03125ZM165.492 2.21094C165.492 1.89844 165.602 1.63281 165.82 1.41406C166.055 1.17969 166.328 1.0625 166.641 1.0625C166.953 1.0625 167.219 1.17969 167.438 1.41406C167.672 1.63281 167.789 1.89844 167.789 2.21094C167.789 2.52344 167.672 2.79688 167.438 3.03125C167.219 3.25 166.953 3.35938 166.641 3.35938C166.344 3.35938 166.078 3.24219 165.844 3.00781C165.609 2.77344 165.492 2.50781 165.492 2.21094ZM178.43 6.99219H173.883C173.039 6.99219 172.172 7.0625 171.281 7.20312C172.188 6.375 172.742 5.46875 172.945 4.48438C173.086 4.75 173.297 4.94531 173.578 5.07031C173.875 5.17969 174.133 5.23438 174.352 5.23438H178.875C179.781 5.23438 180.656 5.15625 181.5 5C180.609 5.84375 180.047 6.73438 179.812 7.67188C179.5 7.21875 179.039 6.99219 178.43 6.99219ZM179.859 21.0547C179.797 21.0547 178.555 21.0547 176.133 21.0547C173.727 21.0703 172.5 21.0781 172.453 21.0781C171.469 21.0781 170.594 21.1484 169.828 21.2891C170.766 20.4141 171.328 19.5156 171.516 18.5938C171.75 19.0625 172.211 19.2969 172.898 19.2969H180.328C181.312 19.2969 182.18 19.2188 182.93 19.0625C182.102 19.8906 181.547 20.7891 181.266 21.7578C181.109 21.5234 180.883 21.3438 180.586 21.2188C180.289 21.1094 180.047 21.0547 179.859 21.0547ZM186.914 7.03906C186.352 7.03906 185.883 7.14844 185.508 7.36719C185.148 7.58594 184.703 8.01562 184.172 8.65625C184.594 7.48438 184.805 6.32812 184.805 5.1875H197.93C197.242 5.67187 196.852 6.08594 196.758 6.42969C196.742 6.44531 196.406 7.39844 195.75 9.28906C195.094 11.1797 194.758 12.1328 194.742 12.1484C194.648 12.4766 194.727 12.8594 194.977 13.2969H191.648C192.32 12.8125 192.727 12.4062 192.867 12.0781C192.867 12.0469 193.102 11.3438 193.57 9.96875C194.055 8.59375 194.406 7.61719 194.625 7.03906H186.914ZM188.555 23.2812C189.086 22.4375 189.422 21.3047 189.562 19.8828C189.688 18.7734 189.75 16.875 189.75 14.1875V11.3984C189.75 11.0391 189.477 10.7109 188.93 10.4141C189.664 10.2266 190.18 10.0547 190.477 9.89844C190.773 9.74219 191.258 9.39062 191.93 8.84375C191.727 9.82812 191.625 10.6719 191.625 11.375V15.4062C191.625 17.9844 191.562 19.7422 191.438 20.6797C191.203 22.2734 190.781 23.5391 190.172 24.4766C190.062 24.6641 189.852 24.9844 189.539 25.4375C189.242 25.8906 188.969 26.3281 188.719 26.75C188.469 27.1875 188.266 27.6016 188.109 27.9922C187.984 26.5391 187.695 25.3125 187.242 24.3125C187.773 24.1562 188.211 23.8125 188.555 23.2812ZM207.82 15.2422C208.977 13.1484 209.789 10.2656 210.258 6.59375H205.617C205.055 8.64062 204.367 10.5469 203.555 12.3125C204.961 13.0625 206.383 14.0391 207.82 15.2422ZM199.242 7.29688V4.22656C199.711 4.69531 200.148 4.92969 200.555 4.92969H204.352C204.664 3.57031 204.961 2.14844 205.242 0.664062L206.93 0.828125C206.711 2.23438 206.445 3.60156 206.133 4.92969H213.398C213.773 4.92969 214.195 4.69531 214.664 4.22656V7.29688C214.195 6.82812 213.773 6.59375 213.398 6.59375H211.945C211.477 10.6094 210.586 13.7812 209.273 16.1094C210.773 17.4219 212.492 19.1016 214.43 21.1484L213.398 22.3672C211.367 20.2891 209.648 18.6094 208.242 17.3281C206.461 19.8594 203.664 21.4688 199.852 22.1562L199.617 20.6328C202.898 19.9766 205.289 18.5781 206.789 16.4375C205.508 15.3594 204.133 14.4219 202.664 13.625C202.445 14.1094 202.117 14.6172 201.68 15.1484L200.461 14.1406C201.898 11.875 203.008 9.35938 203.789 6.59375H200.555C200.148 6.59375 199.711 6.82812 199.242 7.29688ZM218.438 4.36719V1.34375C218.906 1.8125 219.328 2.04688 219.703 2.04688H230.625C230.062 2.59375 229.781 3.02344 229.781 3.33594V3.66406C228.406 5.71094 226.875 7.53906 225.188 9.14844V11.0703H230.484C230.859 11.0703 231.281 10.8359 231.75 10.3672V13.4375C231.281 12.9688 230.859 12.7344 230.484 12.7344H225.188V18.8516C225.188 20.2266 225.062 21.0781 224.812 21.4062C224.562 21.7344 223.938 21.8984 222.938 21.8984C222.438 21.8984 221.5 21.8594 220.125 21.7812L220.078 20.1641C221.422 20.2422 222.297 20.2812 222.703 20.2812C223.078 20.2812 223.289 20.2109 223.336 20.0703C223.383 19.9297 223.406 19.5234 223.406 18.8516V12.7344H217.547C217.141 12.7344 216.703 12.9688 216.234 13.4375V10.3672C216.703 10.8359 217.141 11.0703 217.547 11.0703H223.406V9.45312C223.406 9.14062 223.141 8.71094 222.609 8.16406H223.922C225.359 6.78906 226.578 5.28906 227.578 3.66406H219.703C219.328 3.66406 218.906 3.89844 218.438 4.36719ZM241.711 5.1875H244.43C244.352 5.60938 244.391 6.03906 244.547 6.47656C244.594 6.61719 244.953 7.625 245.625 9.5C246.312 11.375 246.695 12.4062 246.773 12.5938C246.852 12.7969 246.945 12.9844 247.055 13.1562C247.18 13.3281 247.289 13.4531 247.383 13.5312L247.5 13.6484L245.602 16.6016C245.555 15.8203 245.43 15.0547 245.227 14.3047C245.195 14.1172 244.75 12.7812 243.891 10.2969C243.047 7.79688 242.586 6.47656 242.508 6.33594L241.711 5.1875ZM236.039 10.8594C235.477 10.8594 235 10.9766 234.609 11.2109C234.234 11.4297 233.789 11.8516 233.273 12.4766C233.695 11.3516 233.906 10.2031 233.906 9.03125H236.273V4.53125C236.273 4.15625 235.992 3.83594 235.43 3.57031C236.164 3.36719 236.68 3.1875 236.977 3.03125C237.273 2.85937 237.758 2.48437 238.43 1.90625C238.258 2.79688 238.172 3.64844 238.172 4.46094V8.96094C239.703 8.96094 240.859 9.25 241.641 9.82812C242.5 10.4531 243.07 11.3125 243.352 12.4062C243.633 13.4844 243.688 14.6094 243.516 15.7812C243.469 16.1094 243.406 16.4453 243.328 16.7891C243.25 17.1172 243.148 17.5078 243.023 17.9609C242.898 18.4141 242.812 18.7344 242.766 18.9219C242.375 20.5938 242.109 21.7812 241.969 22.4844C241.453 25.0781 241.352 27.1484 241.664 28.6953C241.07 28.1641 240.164 27.6719 238.945 27.2188C239.086 26.5156 239.312 25.3281 239.625 23.6562C239.812 22.8125 240.273 20.9219 241.008 17.9844C241.039 17.875 241.109 17.5938 241.219 17.1406C241.344 16.6875 241.422 16.3828 241.453 16.2266C241.5 16.0547 241.555 15.7812 241.617 15.4062C241.695 15.0156 241.734 14.7031 241.734 14.4688C241.734 14.2344 241.711 13.9609 241.664 13.6484C241.633 13.3359 241.57 13.0391 241.477 12.7578C241.289 12.1484 240.961 11.6797 240.492 11.3516C240.039 11.0078 239.492 10.8359 238.852 10.8359C238.477 10.8359 238.25 10.8438 238.172 10.8594V19.9766C238.172 20.3828 238.391 20.7891 238.828 21.1953H235.57C236.039 20.7578 236.273 20.3516 236.273 19.9766V10.8594H236.039ZM242.016 3.00781C241.797 2.78906 241.688 2.52344 241.688 2.21094C241.688 1.89844 241.797 1.63281 242.016 1.41406C242.25 1.17969 242.516 1.0625 242.812 1.0625C243.125 1.0625 243.391 1.17969 243.609 1.41406C243.844 1.63281 243.961 1.89844 243.961 2.21094C243.961 2.52344 243.844 2.78906 243.609 3.00781C243.391 3.22656 243.125 3.33594 242.812 3.33594C242.5 3.33594 242.234 3.22656 242.016 3.00781ZM245.25 3.00781C245.031 2.78906 244.922 2.52344 244.922 2.21094C244.922 1.89844 245.031 1.63281 245.25 1.41406C245.484 1.17969 245.758 1.0625 246.07 1.0625C246.383 1.0625 246.648 1.17969 246.867 1.41406C247.102 1.63281 247.219 1.89844 247.219 2.21094C247.219 2.52344 247.102 2.78906 246.867 3.00781C246.648 3.22656 246.383 3.33594 246.07 3.33594C245.758 3.33594 245.484 3.22656 245.25 3.00781ZM257.109 5.23438H262.078V3.03125H257.109V5.23438ZM256.922 6.66406H254.625C255.188 6.11719 255.469 5.6875 255.469 5.375V2.75C255.469 2.4375 255.188 2.00781 254.625 1.46094H264.609C264.047 2.00781 263.766 2.4375 263.766 2.75V5.375C263.766 5.6875 264.047 6.11719 264.609 6.66406H256.922ZM258.188 15.8516H255.797C255.422 15.8516 255 16.0859 254.531 16.5547V13.6484C255 14.1172 255.422 14.3516 255.797 14.3516H258.75V12.8984H256.172H254.016C254.547 12.3516 254.812 11.9219 254.812 11.6094V8.86719C254.812 8.55469 254.547 8.125 254.016 7.57812H260.344C259.812 8.125 259.547 8.55469 259.547 8.86719V12.7578H259.781V8.86719C259.781 8.55469 259.5 8.125 258.938 7.57812H265.359C264.797 8.125 264.516 8.55469 264.516 8.86719V11.6094C264.516 11.9219 264.797 12.3516 265.359 12.8984H261.047H260.438V14.3516H263.531C263.938 14.3516 264.375 14.1172 264.844 13.6484V16.5547C264.375 16.0859 263.938 15.8516 263.531 15.8516H261.047C262.047 17.6016 263.438 19.1172 265.219 20.3984L264.422 21.8516C262.734 20.6328 261.406 19.0703 260.438 17.1641V21.1484C260.438 21.4609 260.719 21.8906 261.281 22.4375H257.953C258.484 21.8906 258.75 21.4609 258.75 21.1484V17.2812C257.75 19.0938 256.328 20.6172 254.484 21.8516L253.734 20.3984C255.672 19.1484 257.156 17.6328 258.188 15.8516ZM250.875 7.625H253.125V3.26562H250.875V7.625ZM251.062 19.7891C251.062 19.6953 251.234 19.5391 251.578 19.3203V9.14844H250.688H248.391C248.922 8.60156 249.188 8.17188 249.188 7.85938V2.98438C249.188 2.67187 248.922 2.24219 248.391 1.69531H255.562C255.031 2.24219 254.766 2.67187 254.766 2.98438V7.85938C254.766 8.17188 255.031 8.60156 255.562 9.14844H253.172V12.3125H253.547C253.953 12.3125 254.391 12.0781 254.859 11.6094V14.6094C254.391 14.1406 253.953 13.9062 253.547 13.9062H253.172V18.6172C253.766 18.1328 254.359 17.7578 254.953 17.4922L255.094 19.0625C253.125 20.3438 251.141 21.3906 249.141 22.2031L248.859 20.6328C249.047 20.6016 249.211 20.5547 249.352 20.4922C249.492 20.4297 249.562 20.3828 249.562 20.3516V11.9844C249.562 11.6719 249.281 11.2422 248.719 10.6953H251.906C251.344 11.2422 251.062 11.6719 251.062 11.9844V19.7891ZM257.953 11.4688V9.07812H256.406V11.4688H257.953ZM262.922 11.4688V9.07812H261.281V11.4688H262.922ZM269.203 7.01562C268.641 7.01562 268.172 7.13281 267.797 7.36719C267.422 7.58594 266.969 8.01562 266.438 8.65625C266.859 7.53125 267.07 6.375 267.07 5.1875H275.555C275.555 6.34375 275.773 7.5 276.211 8.65625C275.664 8.01562 275.203 7.58594 274.828 7.36719C274.469 7.13281 274 7.01562 273.422 7.01562H269.203ZM273.211 9.26562C274.289 9.59375 275.125 10.1953 275.719 11.0703C276.328 11.9453 276.664 12.9688 276.727 14.1406C276.805 16.1875 276.117 18.2812 274.664 20.4219C274.586 20.5469 274.391 20.8281 274.078 21.2656C273.781 21.7031 273.578 22 273.469 22.1562C273.359 22.3281 273.18 22.6094 272.93 23C272.695 23.3906 272.516 23.7031 272.391 23.9375C272.281 24.1719 272.141 24.4609 271.969 24.8047C271.797 25.1484 271.656 25.4766 271.547 25.7891C271.438 26.1016 271.344 26.4219 271.266 26.75C271.094 27.4844 271.016 28.2656 271.031 29.0938C270.312 28.3438 269.445 28.0156 268.43 28.1094C268.508 27.9219 268.664 27.5391 268.898 26.9609C269.148 26.3828 269.328 25.9688 269.438 25.7188C269.547 25.4844 269.703 25.1484 269.906 24.7109C270.109 24.2734 270.305 23.8828 270.492 23.5391C270.695 23.1953 270.898 22.8594 271.102 22.5312C271.32 22.1719 271.742 21.5469 272.367 20.6562C273.008 19.7656 273.516 18.9766 273.891 18.2891C274.266 17.5859 274.539 16.875 274.711 16.1562C274.805 15.5312 274.852 14.9141 274.852 14.3047C274.852 13.6797 274.703 13.0781 274.406 12.5C274.109 11.9219 273.672 11.5 273.094 11.2344C272.234 10.8438 271.203 10.7266 270 10.8828C268.922 11.0391 268.133 11.2969 267.633 11.6562C267.602 10.6562 267.266 9.94531 266.625 9.52344C268.219 9.25781 269.219 9.10938 269.625 9.07812C271.062 8.9375 272.258 9 273.211 9.26562ZM278.859 7.34375C279.109 7.23438 279.539 7.02344 280.148 6.71094C280.773 6.38281 281.195 6.16406 281.414 6.05469C282.758 5.44531 283.969 5.17188 285.047 5.23438C286.281 5.3125 287.375 5.72656 288.328 6.47656C289.297 7.21094 289.93 8.17188 290.227 9.35938C290.43 10.2344 290.445 11.1562 290.273 12.125C290.195 12.5312 290.07 12.9453 289.898 13.3672C289.727 13.7734 289.562 14.1172 289.406 14.3984C289.266 14.6641 289.023 15.0156 288.68 15.4531C288.336 15.8906 288.094 16.1875 287.953 16.3438C287.828 16.5 287.539 16.8203 287.086 17.3047C286.633 17.7891 286.367 18.0703 286.289 18.1484C285.492 19.0234 284.852 19.8906 284.367 20.75C283.883 21.625 283.648 22.5625 283.664 23.5625C282.914 22.8281 281.859 22.5156 280.5 22.625C281.859 20.5625 282.688 19.3438 282.984 18.9688C283.406 18.4688 284.023 17.7734 284.836 16.8828C285.664 15.9922 286.188 15.4219 286.406 15.1719C287.656 13.7656 288.336 12.5156 288.445 11.4219C288.461 11.2812 288.469 11.1172 288.469 10.9297C288.484 10.7422 288.492 10.6016 288.492 10.5078C288.492 10.3984 288.5 10.3359 288.516 10.3203V10.3438C288.266 9.25 287.789 8.44531 287.086 7.92969C286.383 7.41406 285.539 7.15625 284.555 7.15625C282.461 7.23438 281.273 8.03125 280.992 9.54688C280.727 8.96875 280.438 8.51562 280.125 8.1875C279.812 7.85938 279.391 7.57812 278.859 7.34375ZM296.766 16.6953H294.656C295.219 16.1484 295.5 15.7188 295.5 15.4062V14.0938C295.5 13.7812 295.219 13.3516 294.656 12.8047H301.219C300.688 13.3516 300.422 13.7812 300.422 14.0938V15.4062C300.422 15.7188 300.688 16.1484 301.219 16.6953H296.766ZM297 15.6172H298.969V13.9062H297V15.6172ZM299.672 19.3438C299.734 19.2656 300.125 19.1562 300.844 19.0156L300.891 20.3516C299.016 20.8359 297.125 21.1953 295.219 21.4297L295.125 20.0938C295.781 20 296.688 19.8438 297.844 19.625C298.219 18.8125 298.562 17.8984 298.875 16.8828L300.281 17.3281C300.094 17.9688 299.891 18.6406 299.672 19.3438ZM294.516 1.67188H300.75C300.219 2.21875 299.953 2.64844 299.953 2.96094V8.42188C299.953 8.73438 300.219 9.16406 300.75 9.71094H294.703V21.0312C294.703 21.3438 294.969 21.7734 295.5 22.3203H292.219C292.75 21.7734 293.016 21.3438 293.016 21.0312V2.96094C293.016 2.64844 292.75 2.21875 292.219 1.67188H294.516ZM294.75 5.04688H298.266V3.14844H294.75V5.04688ZM294.75 6.3125V8.32812H298.266V6.3125H294.75ZM306 5.04688V3.14844H302.297V5.04688H306ZM306 6.3125H302.297V8.32812H306V6.3125ZM303.516 17.3281L302.25 18.125C301.719 16.8594 301.062 15.6562 300.281 14.5156L301.547 13.7188C302.328 14.875 302.984 16.0781 303.516 17.3281ZM295.266 12.5938V9.89844C295.734 10.3672 296.156 10.6016 296.531 10.6016H299.391C299.766 10.6016 300.188 10.3672 300.656 9.89844V11.7266H303.469V11.6094C303.469 11.2969 303.203 10.8672 302.672 10.3203H305.859C305.328 10.8672 305.062 11.2969 305.062 11.6094V11.7266H305.906V13.1094H305.062V18.9453C305.062 19.8047 305.047 20.3281 305.016 20.5156C304.953 20.5312 305.062 20.5391 305.344 20.5391C305.719 20.5391 305.93 20.4766 305.977 20.3516C306.023 20.2422 306.047 19.8438 306.047 19.1562V9.71094H299.812C300.344 9.16406 300.609 8.73438 300.609 8.42188V2.96094C300.609 2.64844 300.344 2.21875 299.812 1.67188H306.188H308.531C307.969 2.21875 307.688 2.64844 307.688 2.96094V19.1094C307.688 20.4844 307.562 21.3359 307.312 21.6641C307.062 21.9922 306.453 22.1562 305.484 22.1562C305.047 22.1562 304.391 22.1172 303.516 22.0391L303.469 20.75H303.562C303.031 20.75 302.266 20.7109 301.266 20.6328L301.219 19.1797C302.156 19.2578 302.812 19.2969 303.188 19.2969C303.406 19.2969 303.516 19.2656 303.516 19.2031C303.516 19.1406 303.516 18.9141 303.516 18.5234V13.1094H301.547C301.141 13.1094 300.703 13.3438 300.234 13.8125V11.8906H296.531C296.156 11.8906 295.734 12.125 295.266 12.5938ZM295.641 17.375L297.094 16.9062C297.438 17.6719 297.719 18.4375 297.938 19.2031L296.484 19.625C296.203 18.8125 295.922 18.0625 295.641 17.375ZM318.398 10.8594H315.773V17.1875C316.43 16.4062 316.992 15.5156 317.461 14.5156C317.93 13.5 318.242 12.2812 318.398 10.8594ZM323.133 17.1172V10.8594H320.039C319.977 11.625 319.898 12.2422 319.805 12.7109C321.18 13.8203 322.289 15.2891 323.133 17.1172ZM325.242 4.92969V7.90625C324.773 7.4375 324.336 7.20312 323.93 7.20312H320.18V8.75C320.18 8.8125 320.18 8.92188 320.18 9.07812C320.18 9.21875 320.18 9.32031 320.18 9.38281H325.664C325.102 9.92969 324.82 10.3594 324.82 10.6719V19.7422C324.82 20.8047 324.711 21.4688 324.492 21.7344C324.273 22.0156 323.789 22.1562 323.039 22.1562C322.695 22.1562 321.883 22.1172 320.602 22.0391L320.555 20.4219C321.648 20.5 322.32 20.5391 322.57 20.5391C322.883 20.5391 323.055 20.4922 323.086 20.3984C323.117 20.3047 323.133 19.9844 323.133 19.4375V17.7969L322.664 18.6406C321.57 16.875 320.43 15.3984 319.242 14.2109C318.68 16.0078 317.633 17.5 316.102 18.6875L315.773 17.5391V20.9375C315.773 21.25 316.039 21.6797 316.57 22.2266H313.242C313.805 21.6797 314.086 21.25 314.086 20.9375V10.6719C314.086 10.3594 313.805 9.92969 313.242 9.38281H318.492V8.75V7.20312H315.07C314.664 7.20312 314.227 7.4375 313.758 7.90625V4.92969C314.227 5.39844 314.664 5.63281 315.07 5.63281H323.93C324.336 5.63281 324.773 5.39844 325.242 4.92969ZM319.57 2.53906H324.117C324.492 2.53906 324.914 2.30469 325.383 1.83594V4.85938C324.914 4.39062 324.492 4.15625 324.117 4.15625H313.43V10.8125C313.43 13.75 313.258 16.0625 312.914 17.75C312.57 19.4219 311.93 20.9141 310.992 22.2266L309.727 20.9141C310.32 20.0703 310.75 19.2266 311.016 18.3828C311.281 17.5234 311.445 16.4453 311.508 15.1484C311.227 15.6328 310.602 16.1172 309.633 16.6016L309.164 14.9375C310.195 14.4062 311.039 13.7891 311.695 13.0859C311.727 12.0859 311.742 10.9609 311.742 9.71094V9.38281L311.367 9.82812C310.68 8.26562 309.977 6.8125 309.258 5.46875L310.57 4.53125C311.195 5.65625 311.586 6.70312 311.742 7.67188V3.82812C311.742 3.51562 311.477 3.08594 310.945 2.53906H317.789V1.76562C317.789 1.45312 317.523 1.02344 316.992 0.476562H320.367C319.836 1.02344 319.57 1.45312 319.57 1.76562V2.53906ZM333.164 1.03906H336.539C335.992 1.58594 335.719 2.01562 335.719 2.32812V4.92969H340.102C340.492 4.92969 340.922 4.69531 341.391 4.22656V7.29688C340.922 6.82812 340.492 6.59375 340.102 6.59375H335.719V11.8203H339.281C339.672 11.8203 340.102 11.5859 340.57 11.1172V14.1406C340.102 13.6719 339.672 13.4375 339.281 13.4375H335.719V20.0469H340.734C341.125 20.0469 341.555 19.8125 342.023 19.3438V22.3672C341.555 21.8984 341.125 21.6641 340.734 21.6641H328.477C328.086 21.6641 327.656 21.8984 327.188 22.3672V19.3438C327.656 19.8125 328.086 20.0469 328.477 20.0469H333.984V13.4375H330.609C330.219 13.4375 329.789 13.6719 329.32 14.1406V11.1172C329.789 11.5859 330.219 11.8203 330.609 11.8203H333.984V6.59375H330.141C329.703 8.53125 329.109 10.3672 328.359 12.1016L326.859 11.2344C328.016 8.3125 328.891 5.07031 329.484 1.50781L331.148 1.8125C330.992 2.73438 330.812 3.77344 330.609 4.92969H333.984V2.32812C333.984 2.01562 333.711 1.58594 333.164 1.03906ZM344.344 2.67969L345.305 1.39062C346.414 2.42188 347.43 3.51562 348.352 4.67188L347.344 5.98438C346.375 4.85938 345.375 3.75781 344.344 2.67969ZM346.828 11.5859C345.797 10.3359 344.703 9.125 343.547 7.95312L344.508 6.66406C345.773 7.86719 346.883 9.07031 347.836 10.2734L346.828 11.5859ZM348.328 14.4922C347.641 17.3672 346.68 19.9531 345.445 22.25L344.086 21.2656C345.211 19.0781 346.125 16.6016 346.828 13.8359L348.328 14.4922ZM348.938 3.24219C352.469 3.24219 355.664 2.625 358.523 1.39062L358.898 3.03125C357.492 3.59375 356.102 4.03125 354.727 4.34375V7.74219H358.125C358.516 7.74219 358.945 7.50781 359.414 7.03906V10.0625C358.945 9.59375 358.516 9.35938 358.125 9.35938H354.727V12.6641H359.344C358.797 13.2109 358.523 13.6406 358.523 13.9531V21.0547C358.523 21.3672 358.797 21.7969 359.344 22.3438H358.078C357.688 22.3438 357.258 22.5781 356.789 23.0469V21.0781H350.883V23.0469C350.414 22.5781 349.984 22.3438 349.594 22.3438H348.398C348.945 21.7969 349.219 21.3672 349.219 21.0547V13.9531C349.219 13.6406 348.945 13.2109 348.398 12.6641H352.969V9.35938H349.523C349.133 9.35938 348.703 9.59375 348.234 10.0625V7.03906C348.703 7.50781 349.133 7.74219 349.523 7.74219H352.969V4.57812C351.859 4.76562 350.562 4.85938 349.078 4.85938L348.938 3.24219ZM356.789 19.5547V14.1875H350.883V19.5547H356.789ZM369.867 5.42188C371.18 5.78125 372.188 6.54688 372.891 7.71875C373.609 8.875 373.992 10.1719 374.039 11.6094C374.102 13.7031 373.602 15.7344 372.539 17.7031C372.398 17.9531 371.828 18.8828 370.828 20.4922C369.828 22.1172 369.164 23.3984 368.836 24.3359C368.586 25.0703 368.438 25.7422 368.391 26.3516C367.625 25.5547 366.758 25.2188 365.789 25.3438C366.18 24.7188 366.695 23.7891 367.336 22.5547C368.07 21.2109 368.742 20.0703 369.352 19.1328C369.883 18.2891 370.289 17.6328 370.57 17.1641C370.867 16.6797 371.172 16.0547 371.484 15.2891C371.812 14.5078 372.031 13.7734 372.141 13.0859C372.312 11.8203 372.211 10.6328 371.836 9.52344C371.477 8.39844 370.766 7.63281 369.703 7.22656C368.891 6.91406 368.062 6.85938 367.219 7.0625C366.375 7.25 365.648 7.64062 365.039 8.23438C363.805 9.40625 363.078 10.9453 362.859 12.8516C362.75 13.9609 362.812 14.9453 363.047 15.8047C363.25 16.5234 363.578 16.9688 364.031 17.1406C364.812 17.4688 365.477 17.3594 366.023 16.8125C366.586 16.2656 366.945 15.5703 367.102 14.7266C367.398 13.1016 367.039 11.4609 366.023 9.80469C366.898 9.67969 367.672 9.39062 368.344 8.9375C368.359 9.03125 368.406 9.28125 368.484 9.6875C368.578 10.0781 368.633 10.3359 368.648 10.4609C368.68 10.5859 368.727 10.8281 368.789 11.1875C368.852 11.5469 368.891 11.8047 368.906 11.9609C368.922 12.1016 368.945 12.3359 368.977 12.6641C369.023 12.9922 369.039 13.25 369.023 13.4375C369.023 13.6094 369.016 13.8438 369 14.1406C369 14.4219 368.977 14.6719 368.93 14.8906C368.883 15.0938 368.828 15.3203 368.766 15.5703C368.703 15.8203 368.625 16.0625 368.531 16.2969C368.078 17.3594 367.336 18.1562 366.305 18.6875C365.273 19.2031 364.242 19.1953 363.211 18.6641C362.555 18.3516 362.047 17.8281 361.688 17.0938C361.328 16.3438 361.141 15.5859 361.125 14.8203C361.109 14.0547 361.125 13.3125 361.172 12.5938C361.312 11.3906 361.688 10.2188 362.297 9.07812C362.906 7.92187 363.688 7 364.641 6.3125C365.375 5.79688 366.211 5.46094 367.148 5.30469C368.086 5.14844 368.992 5.1875 369.867 5.42188ZM379.336 11.8906V19.2031H388.055V11.8906H379.336ZM379.336 10.3203H388.055V3.54688H379.336V10.3203ZM376.805 1.90625H390.586C390.023 2.45313 389.742 2.88281 389.742 3.19531V21.0312C389.742 21.3438 390.023 21.7734 390.586 22.3203H387.211C387.773 21.7734 388.055 21.3438 388.055 21.0312V20.7734H379.336V21.0312C379.336 21.3438 379.602 21.7734 380.133 22.3203H376.805C377.336 21.7734 377.602 21.3438 377.602 21.0312V3.19531C377.602 2.88281 377.336 2.45313 376.805 1.90625ZM397.969 13.3672L399.047 12.0078C400.016 12.9297 400.891 13.9688 401.672 15.125C403.422 12.2812 404.523 9.42969 404.977 6.57031H399.469C398.375 9.72656 396.938 12.5156 395.156 14.9375L393.844 13.7891C396.359 10.1953 398.211 5.92188 399.398 0.96875L401.086 1.34375C400.727 2.79688 400.422 3.99219 400.172 4.92969H407.602C407.055 5.47656 406.781 5.90625 406.781 6.21875V6.57031C406.297 9.83594 405 13.0938 402.891 16.3438C403.797 17.6094 404.672 18.8594 405.516 20.0938L404.25 21.3359C402.312 18.4297 400.219 15.7734 397.969 13.3672ZM420.938 17.0938C419.922 18.8281 418.547 20.0469 416.812 20.75C416.062 21.0469 415.281 21.2109 414.469 21.2422C413.672 21.2891 412.891 21.1484 412.125 20.8203C411.359 20.4922 410.781 19.9609 410.391 19.2266C410.031 18.5703 409.867 17.875 409.898 17.1406C409.945 16.3906 410.094 15.6953 410.344 15.0547C410.609 14.4141 410.969 13.7891 411.422 13.1797C411.656 12.8672 411.883 12.6016 412.102 12.3828C411.945 11.5391 411.781 10.6328 411.609 9.66406C411.438 8.69531 411.305 7.95312 411.211 7.4375C411.117 6.90625 411.07 6.63281 411.07 6.61719C411.023 6.22656 410.938 5.96094 410.812 5.82031C410.688 5.66406 410.367 5.4375 409.852 5.14062H413.789C413.398 5.42188 413.164 5.63281 413.086 5.77344C413.008 5.91406 413 6.17969 413.062 6.57031C413.172 7.10156 413.422 8.52344 413.812 10.8359C414.234 10.4922 414.914 10 415.852 9.35938C416.805 8.70312 417.391 8.29688 417.609 8.14062C418 7.875 418.328 7.63281 418.594 7.41406C418.922 7.19531 419.156 7.01562 419.297 6.875C419.562 7.98438 420.055 8.75 420.773 9.17188C419.164 9.46875 417.445 10.3516 415.617 11.8203C414.961 12.3203 414.406 12.7734 413.953 13.1797C413.516 13.5859 413.07 14.1172 412.617 14.7734C412.18 15.4141 411.914 16.0547 411.82 16.6953C411.758 17.1641 411.797 17.6094 411.938 18.0312C412.078 18.4531 412.328 18.7656 412.688 18.9688C413.469 19.4219 414.461 19.4375 415.664 19.0156C416.461 18.75 417.164 18.2969 417.773 17.6562C418.383 17.0156 418.68 16.2578 418.664 15.3828C419.398 16.1797 420.156 16.75 420.938 17.0938ZM422.883 8.28125V5.1875C423.352 5.65625 423.773 5.89062 424.148 5.89062H429.352V2.39844C429.352 2.08594 429.086 1.65625 428.555 1.10938H431.93C431.367 1.65625 431.086 2.08594 431.086 2.39844V5.89062H436.289C436.695 5.89062 437.133 5.65625 437.602 5.1875V8.28125C437.133 7.8125 436.695 7.57812 436.289 7.57812H431.133C431.289 10.4375 431.945 12.9922 433.102 15.2422C434.258 17.4766 435.867 19.2656 437.93 20.6094L437.086 22.0625C435.305 21.0312 433.828 19.5938 432.656 17.75C431.484 15.9062 430.695 13.8359 430.289 11.5391C429.883 13.8359 429.07 15.9062 427.852 17.75C426.633 19.5938 425.148 21.0312 423.398 22.0625L422.555 20.6094C424.617 19.2656 426.227 17.4766 427.383 15.2422C428.539 12.9922 429.18 10.4375 429.305 7.57812H424.148C423.773 7.57812 423.352 7.8125 422.883 8.28125ZM441.656 12.3125C442.281 12.9219 442.844 13.625 443.344 14.4219C443.969 12.1094 444.344 9.48438 444.469 6.54688H442.547C442.297 8.57812 442 10.5 441.656 12.3125ZM455.391 10.3438V13.4141C454.922 12.9453 454.484 12.7109 454.078 12.7109H451.922V19.0859C451.922 20.4453 451.797 21.2891 451.547 21.6172C451.297 21.9453 450.688 22.1094 449.719 22.1094C449.281 22.1094 448.422 22.0703 447.141 21.9922L447.094 20.3516C448.344 20.4297 449.141 20.4688 449.484 20.4688C449.859 20.4688 450.07 20.4062 450.117 20.2812C450.164 20.1562 450.188 19.7578 450.188 19.0859V12.7109H446.953C446.578 12.7109 446.156 12.9453 445.688 13.4141V10.3438C446.156 10.8125 446.578 11.0469 446.953 11.0469H450.188V9.40625C450.188 9.09375 449.922 8.66406 449.391 8.11719H450.656C451.469 6.77344 452.172 5.28906 452.766 3.66406H447.609C447.234 3.66406 446.812 3.89844 446.344 4.36719V1.34375C446.812 1.8125 447.234 2.04688 447.609 2.04688H455.438C454.906 2.59375 454.641 3.02344 454.641 3.33594V3.66406C453.828 5.69531 452.922 7.53125 451.922 9.17188V11.0469H454.078C454.484 11.0469 454.922 10.8125 455.391 10.3438ZM446.859 19.0156L445.688 20.2109C444.969 19.0859 444.344 18.0625 443.812 17.1406C442.969 19.4531 441.719 21.3516 440.062 22.8359L439.078 21.5C440.578 20.0781 441.766 18.2266 442.641 15.9453C442.078 15.2109 441.594 14.5469 441.188 13.9531C441.125 14.4062 440.969 14.9453 440.719 15.5703L439.359 14.3281C440.016 11.9531 440.516 9.35938 440.859 6.54688H440.438C440.031 6.54688 439.594 6.78125 439.125 7.25V4.22656C439.594 4.69531 440.031 4.92969 440.438 4.92969H441.094C441.188 3.71094 441.297 2.375 441.422 0.921875L443.109 1.01562C442.984 2.73438 442.875 4.03906 442.781 4.92969H446.109C446.109 8.88281 445.594 12.4297 444.562 15.5703C445.281 16.5547 446.047 17.7031 446.859 19.0156ZM458.695 8.28125C458.836 8.51562 459.055 8.69531 459.352 8.82031C459.664 8.92969 459.914 8.98438 460.102 8.98438H462.703C462.469 8.10938 462.273 7.42969 462.117 6.94531H459.68C458.555 6.94531 457.656 7.02344 456.984 7.17969C457.953 6.27344 458.523 5.35938 458.695 4.4375C458.836 4.67188 459.055 4.85156 459.352 4.97656C459.664 5.08594 459.914 5.14062 460.102 5.14062H461.602L461.109 3.35938C461 3 460.617 2.58594 459.961 2.11719H463.547C463.391 2.32031 463.273 2.53906 463.195 2.77344C463.117 3.00781 463.102 3.1875 463.148 3.3125C463.305 3.82812 463.477 4.4375 463.664 5.14062H466.805C467.789 5.14062 468.664 5.07031 469.43 4.92969C468.57 5.77344 468.008 6.67188 467.742 7.625C467.461 7.17187 466.992 6.94531 466.336 6.94531H464.18C464.227 7.16406 464.328 7.51563 464.484 8C464.641 8.48438 464.742 8.8125 464.789 8.98438H466.805C467.789 8.98438 468.664 8.91406 469.43 8.77344C468.57 9.61719 468.008 10.5078 467.742 11.4453C467.461 10.9922 466.992 10.7656 466.336 10.7656H465.258C465.492 11.5938 465.766 12.5469 466.078 13.625C466.391 14.6875 466.625 15.5 466.781 16.0625C466.938 16.6094 467.016 16.8906 467.016 16.9062C467.125 17.25 467.5 17.6562 468.141 18.125H464.625C464.953 17.6562 465.07 17.2656 464.977 16.9531C464.977 16.9062 464.391 14.8438 463.219 10.7656H459.68C458.664 10.7656 457.766 10.8359 456.984 10.9766C457.953 10.1172 458.523 9.21875 458.695 8.28125ZM462.305 23.3516C462.18 23.2734 461.852 23.0703 461.32 22.7422C460.789 22.4141 460.43 22.1797 460.242 22.0391C460.055 21.9141 459.75 21.6875 459.328 21.3594C458.922 21.0312 458.617 20.7422 458.414 20.4922C458.227 20.2422 458.023 19.9297 457.805 19.5547C457.586 19.1641 457.43 18.7656 457.336 18.3594C457.102 17.2969 457.148 16.2344 457.477 15.1719C457.82 14.1094 458.453 13.3438 459.375 12.875C460.266 12.4062 461.273 12.3672 462.398 12.7578C462.023 13.4453 461.914 14.2188 462.07 15.0781C461.883 14.8906 461.719 14.75 461.578 14.6562C461.125 14.4062 460.68 14.3672 460.242 14.5391C459.82 14.7109 459.508 15.0391 459.305 15.5234C459.008 16.1797 458.922 16.8984 459.047 17.6797C459.172 18.4453 459.492 19.0781 460.008 19.5781C460.492 20.0625 461.312 20.6016 462.469 21.1953C463.766 21.9297 464.68 22.5 465.211 22.9062C466.43 23.8125 467.492 24.8984 468.398 26.1641C467.695 26.7266 467.211 27.5156 466.945 28.5312C465.977 26.4688 464.43 24.7422 462.305 23.3516ZM473.742 14.5156C473.57 14.8906 473.492 15.1406 473.508 15.2656C473.539 15.3906 473.688 15.6016 473.953 15.8984H470.297C470.875 15.5703 471.242 15.3281 471.398 15.1719C471.57 15.0156 471.727 14.7578 471.867 14.3984C471.883 14.3672 472.039 13.9688 472.336 13.2031C472.648 12.4219 473.055 11.4141 473.555 10.1797C474.055 8.92969 474.477 7.875 474.82 7.01562H474.75C474.188 7.01562 473.719 7.13281 473.344 7.36719C472.969 7.60156 472.523 8.03906 472.008 8.67969C472.227 7.69531 472.336 6.52344 472.336 5.16406H475.523C475.883 4.10156 476.109 3.52344 476.203 3.42969C476.344 3.07031 476.398 2.82813 476.367 2.70312C476.336 2.5625 476.172 2.34375 475.875 2.04688H479.508C478.977 2.35938 478.633 2.59375 478.477 2.75C478.336 2.90625 478.188 3.17969 478.031 3.57031C478.031 3.58594 478 3.66406 477.938 3.80469C477.875 3.94531 477.789 4.14844 477.68 4.41406C477.57 4.66406 477.469 4.91406 477.375 5.16406H481.523C481.523 6.36719 481.734 7.53125 482.156 8.65625C481.625 8.01562 481.172 7.58594 480.797 7.36719C480.438 7.13281 479.977 7.01562 479.414 7.01562H476.672C476.328 7.89063 475.914 8.95312 475.43 10.2031C474.945 11.4531 474.547 12.4766 474.234 13.2734C473.922 14.0547 473.758 14.4688 473.742 14.5156ZM484.078 10.5547V14.2812C483.766 13.7188 483.531 13.3672 483.375 13.2266C483.234 13.0703 482.969 12.9219 482.578 12.7812C482.562 12.7656 482.438 12.7109 482.203 12.6172C481.984 12.5234 481.656 12.3828 481.219 12.1953C480.781 12.0078 480.367 11.8281 479.977 11.6562V15.875H483.117C483.133 15.9375 483.156 16.1094 483.188 16.3906C483.219 16.6719 483.266 17.0469 483.328 17.5156C483.391 17.9688 483.477 18.4375 483.586 18.9219C483.273 18.5312 482.953 18.2344 482.625 18.0312C482.312 17.8281 482.07 17.7266 481.898 17.7266H479.977V22.4609C479.977 22.8516 480.016 23.1172 480.094 23.2578C480.172 23.3984 480.414 23.625 480.82 23.9375H477.727C477.148 23.9375 476.68 23.8594 476.32 23.7031C475.633 23.3906 475.125 22.8438 474.797 22.0625C474.469 21.2969 474.352 20.5156 474.445 19.7188C474.523 18.9375 474.773 18.2266 475.195 17.5859C475.633 16.9297 476.188 16.4375 476.859 16.1094C477.188 15.9688 477.609 15.8828 478.125 15.8516V10.4844C478.125 10.1094 478.078 9.85938 477.984 9.73438C477.891 9.59375 477.625 9.35938 477.188 9.03125H480.82C480.352 9.375 480.094 9.625 480.047 9.78125C480.469 9.95312 480.898 10.1328 481.336 10.3203C481.773 10.5078 482.094 10.6484 482.297 10.7422C482.516 10.8359 482.633 10.8828 482.648 10.8828C483.039 11.0547 483.297 11.125 483.422 11.0938C483.562 11.0625 483.781 10.8828 484.078 10.5547ZM478.125 22.0156V17.7969H477.891C477.672 17.7969 477.375 17.9688 477 18.3125C476.609 18.75 476.391 19.2656 476.344 19.8594C476.281 20.3281 476.336 20.8047 476.508 21.2891C476.68 21.7734 476.969 22.0156 477.375 22.0156H478.125ZM489.586 17.1172V19.8125H497.32V17.1172H489.586ZM489.586 15.6172H497.32V13.0391H489.586V15.6172ZM494.883 8.30469C495.414 7.10156 495.852 5.79688 496.195 4.39062H490.758C491.133 5.53125 491.555 6.83594 492.023 8.30469H494.883ZM487.008 11.4688H499.898C499.367 12.0156 499.102 12.4453 499.102 12.7578V21.1016C499.102 21.4141 499.367 21.8438 499.898 22.3906H498.633C498.227 22.3906 497.789 22.625 497.32 23.0938V21.3594H489.586V23.0938C489.117 22.625 488.695 22.3906 488.32 22.3906H487.008C487.57 21.8438 487.852 21.4141 487.852 21.1016V12.7578C487.852 12.4453 487.57 12.0156 487.008 11.4688ZM485.695 10.5312V7.60156C486.164 8.07031 486.602 8.30469 487.008 8.30469H490.148C489.773 6.92969 489.352 5.625 488.883 4.39062H487.477C487.102 4.39062 486.68 4.625 486.211 5.09375V2.11719C486.68 2.58594 487.102 2.82031 487.477 2.82031H492.586V1.76562C492.586 1.45312 492.32 1.02344 491.789 0.476562H495.164C494.602 1.02344 494.32 1.45312 494.32 1.76562V2.82031H499.43C499.836 2.82031 500.273 2.58594 500.742 2.11719V5.09375C500.273 4.625 499.836 4.39062 499.43 4.39062H497.977C497.664 5.79688 497.273 7.10156 496.805 8.30469H499.945C500.32 8.30469 500.742 8.07031 501.211 7.60156V10.5312C500.742 10.0625 500.32 9.82812 499.945 9.82812H487.008C486.602 9.82812 486.164 10.0625 485.695 10.5312ZM508.453 8.23438V10.9062H512.531V8.23438H508.453ZM508.453 6.73438H512.531V4.32031H508.453V6.73438ZM508.781 15.5938H504.375C503.969 15.5938 503.531 15.8281 503.062 16.2969V13.2969C503.531 13.7656 503.969 14 504.375 14H509.625V12.4297H508.219H505.922C506.453 11.8828 506.719 11.4531 506.719 11.1406V4.0625C506.719 3.75 506.453 3.32031 505.922 2.77344H509.203C509.359 1.97656 509.5 1.25 509.625 0.59375L511.359 0.734375C511.203 1.65625 511.078 2.33594 510.984 2.77344H515.062C514.531 3.32031 514.266 3.75 514.266 4.0625V11.1406C514.266 11.4531 514.531 11.8828 515.062 12.4297H511.359V14H516.609C517.016 14 517.453 13.7656 517.922 13.2969V16.2969C517.453 15.8281 517.016 15.5938 516.609 15.5938H512.203C513.484 17.4375 515.562 19.1094 518.438 20.6094L517.828 22.1797C514.828 20.5547 512.672 18.7656 511.359 16.8125V21.2656C511.359 21.5781 511.641 22.0078 512.203 22.5547H508.781C509.344 22.0078 509.625 21.5781 509.625 21.2656V16.8125C508.312 18.7656 506.156 20.5547 503.156 22.1797L502.547 20.6094C505.422 19.1094 507.5 17.4375 508.781 15.5938ZM505.688 6.78125C504.812 5.78125 503.781 4.67969 502.594 3.47656L503.578 2.14062C504.859 3.32812 505.906 4.4375 506.719 5.46875L505.688 6.78125ZM502.453 11.2812C503.828 10.4375 505.078 9.51562 506.203 8.51562L507 9.94531C505.906 11.0078 504.609 11.9609 503.109 12.8047L502.453 11.2812ZM515.297 6.75781L514.219 5.46875C515.281 4.42188 516.328 3.32031 517.359 2.16406L518.391 3.42969C517.578 4.44531 516.547 5.55469 515.297 6.75781ZM513.938 9.99219L514.734 8.49219C516.266 9.38281 517.531 10.3203 518.531 11.3047L517.734 12.7812C516.578 11.75 515.312 10.8203 513.938 9.99219ZM527.414 5.23438H530.109C531.094 5.23438 531.969 5.16406 532.734 5.02344C531.875 5.83594 531.312 6.72656 531.047 7.69531C530.891 7.46094 530.664 7.28906 530.367 7.17969C530.086 7.07031 529.844 7.01562 529.641 7.01562H526.945C525.945 7.01562 525.062 7.09375 524.297 7.25C525.25 6.35938 525.812 5.46094 525.984 4.55469C526.281 5.00781 526.758 5.23438 527.414 5.23438ZM520.641 21.1016C521.078 20.6641 521.297 20.2734 521.297 19.9297V4.55469C521.297 4.17969 521.023 3.85938 520.477 3.59375C521.195 3.40625 521.703 3.23437 522 3.07812C522.297 2.90625 522.781 2.53125 523.453 1.95312C523.266 2.89062 523.172 3.73438 523.172 4.48438V19.9297C523.172 20.2578 523.398 20.6484 523.852 21.1016H520.641ZM527.039 10.3906C526.867 11.125 526.766 12.2188 526.734 13.6719C526.734 14.5469 526.75 15.0469 526.781 15.1719C526.875 15.5 527.219 15.8594 527.812 16.25C529.828 17.5469 530.867 18.2188 530.93 18.2656C532.227 19.25 533.078 19.8516 533.484 20.0703C532.438 20.5859 531.68 21.2266 531.211 21.9922C531.148 21.7109 531.055 21.4453 530.93 21.1953C530.805 20.9609 530.609 20.7109 530.344 20.4453C530.078 20.1953 529.906 20.0391 529.828 19.9766C529.75 19.8984 529.547 19.7188 529.219 19.4375C528.938 19.2188 528.414 18.8828 527.648 18.4297C526.898 17.9766 526.352 17.5859 526.008 17.2578C525.555 16.8359 525.258 16.375 525.117 15.875C524.977 15.3594 524.898 14.7188 524.883 13.9531C524.852 12.3906 524.75 11.2344 524.578 10.4844C525.547 10.6719 526.367 10.6406 527.039 10.3906ZM534.656 7.34375C534.906 7.23438 535.336 7.02344 535.945 6.71094C536.57 6.38281 536.992 6.16406 537.211 6.05469C538.555 5.44531 539.766 5.17188 540.844 5.23438C542.078 5.3125 543.172 5.72656 544.125 6.47656C545.094 7.21094 545.727 8.17188 546.023 9.35938C546.227 10.2344 546.242 11.1562 546.07 12.125C545.992 12.5312 545.867 12.9453 545.695 13.3672C545.523 13.7734 545.359 14.1172 545.203 14.3984C545.062 14.6641 544.82 15.0156 544.477 15.4531C544.133 15.8906 543.891 16.1875 543.75 16.3438C543.625 16.5 543.336 16.8203 542.883 17.3047C542.43 17.7891 542.164 18.0703 542.086 18.1484C541.289 19.0234 540.648 19.8906 540.164 20.75C539.68 21.625 539.445 22.5625 539.461 23.5625C538.711 22.8281 537.656 22.5156 536.297 22.625C537.656 20.5625 538.484 19.3438 538.781 18.9688C539.203 18.4688 539.82 17.7734 540.633 16.8828C541.461 15.9922 541.984 15.4219 542.203 15.1719C543.453 13.7656 544.133 12.5156 544.242 11.4219C544.258 11.2812 544.266 11.1172 544.266 10.9297C544.281 10.7422 544.289 10.6016 544.289 10.5078C544.289 10.3984 544.297 10.3359 544.312 10.3203V10.3438C544.062 9.25 543.586 8.44531 542.883 7.92969C542.18 7.41406 541.336 7.15625 540.352 7.15625C538.258 7.23438 537.07 8.03125 536.789 9.54688C536.523 8.96875 536.234 8.51562 535.922 8.1875C535.609 7.85938 535.188 7.57812 534.656 7.34375ZM557.578 21.1953C558.016 20.7266 558.234 20.3203 558.234 19.9766V10.2031C558.234 9.85938 558.016 9.45312 557.578 8.98438H560.766C560.328 9.45312 560.109 9.85938 560.109 10.2031V19.9766C560.109 20.3203 560.328 20.7266 560.766 21.1953H557.578ZM549.445 12.875V6.38281C549.445 6.07031 549.219 5.66406 548.766 5.16406H551.977C551.539 5.64844 551.32 6.05469 551.32 6.38281V12.875C551.32 14.1406 551.367 15.1562 551.461 15.9219C551.57 16.7656 551.898 17.4766 552.445 18.0547C552.992 18.6328 553.734 19.1562 554.672 19.625C553.703 19.9375 553.125 20.6328 552.938 21.7109C552.719 21.4609 552.383 21.1328 551.93 20.7266C551.492 20.3359 551.18 20.0234 550.992 19.7891C550.32 18.9609 549.867 17.9297 549.633 16.6953C549.508 16.0234 549.445 14.75 549.445 12.875ZM565.102 7.01562C564.539 7.01562 564.078 7.13281 563.719 7.36719C563.359 7.58594 562.906 8.01562 562.359 8.65625C562.781 7.53125 562.992 6.375 562.992 5.1875H574.758C574.758 6.34375 574.977 7.5 575.414 8.65625C574.898 8.07812 574.5 7.6875 574.219 7.48438C573.938 7.26562 573.609 7.125 573.234 7.0625C572.297 7.07812 571.422 7.36719 570.609 7.92969C569.812 8.47656 569.203 9.17969 568.781 10.0391C568.156 11.3047 568.047 12.7734 568.453 14.4453C568.656 15.1641 568.945 15.8828 569.32 16.6016C569.711 17.3047 570.234 18.1484 570.891 19.1328C571.547 20.1016 571.977 20.75 572.18 21.0781L573.961 24.1484C573.93 24.1797 573.828 24.2812 573.656 24.4531C573.484 24.6406 573.359 24.7656 573.281 24.8281C573.219 24.9062 573.102 25.0391 572.93 25.2266C572.758 25.4297 572.617 25.6016 572.508 25.7422C572.414 25.8984 572.297 26.0781 572.156 26.2812C572.016 26.5 571.883 26.7266 571.758 26.9609C571.648 27.2109 571.539 27.4688 571.43 27.7344C571.492 26.8438 571.398 25.9141 571.148 24.9453C570.914 23.9922 570.578 23.0781 570.141 22.2031C569.703 21.3438 569.25 20.5078 568.781 19.6953C568.312 18.8828 567.859 18.0312 567.422 17.1406C567 16.2344 566.703 15.4219 566.531 14.7031C566.016 12.4531 566.32 10.4297 567.445 8.63281C567.852 7.92969 568.281 7.39062 568.734 7.01562H565.102ZM585.914 6.00781L586.242 3.47656H584.93C584.539 3.47656 584.109 3.71094 583.641 4.17969V1.20312C584.109 1.67188 584.539 1.90625 584.93 1.90625H590.812C591.203 1.90625 591.633 1.67188 592.102 1.20312V4.17969C591.633 3.71094 591.203 3.47656 590.812 3.47656H588L587.672 6.00781H592.148C591.602 6.55469 591.328 6.98437 591.328 7.29688V10.4375H592.57V12.7109C592.102 12.2422 591.672 12.0078 591.281 12.0078H584.578C584.188 12.0078 583.758 12.2422 583.289 12.7109V9.73438C583.758 10.2031 584.188 10.4375 584.578 10.4375H585.234L585.633 7.46094H585.305C584.914 7.46094 584.484 7.69531 584.016 8.16406V5.30469C584.484 5.77344 584.914 6.00781 585.305 6.00781H585.914ZM585.633 21.1953V22.9297C585.164 22.4609 584.734 22.2266 584.344 22.2266H583.148C583.695 21.6797 583.969 21.25 583.969 20.9375V14.9844C583.969 14.6719 583.695 14.2422 583.148 13.6953H592.594C592.047 14.2422 591.773 14.6719 591.773 14.9844V20.9375C591.773 21.25 592.047 21.6797 592.594 22.2266H591.352C590.961 22.2266 590.531 22.4609 590.062 22.9297V21.1953H585.633ZM579.117 21.6172V23.375C578.648 22.9062 578.219 22.6719 577.828 22.6719H576.633C577.18 22.125 577.453 21.6953 577.453 21.3828V16.7891C577.453 16.4766 577.18 16.0469 576.633 15.5H584.062C583.516 16.0469 583.242 16.4766 583.242 16.7891V20.3281C583.242 20.6406 583.516 21.0703 584.062 21.6172H579.117ZM579.117 20.1172H581.625V17.0469H579.117V20.1172ZM586.992 10.4375H589.617V7.46094H587.391L586.992 10.4375ZM590.062 19.6953V15.2422H585.633V19.6953H590.062ZM577.453 4.13281V1.15625C577.922 1.625 578.352 1.85938 578.742 1.85938H581.93C582.32 1.85938 582.75 1.625 583.219 1.15625V4.13281C582.75 3.66406 582.32 3.42969 581.93 3.42969H578.742C578.352 3.42969 577.922 3.66406 577.453 4.13281ZM576.984 7.53125V4.53125C577.453 5 577.883 5.23438 578.273 5.23438H582.375C582.766 5.23438 583.195 5 583.664 4.53125V7.53125C583.195 7.0625 582.766 6.82812 582.375 6.82812H578.273C577.883 6.82812 577.453 7.0625 576.984 7.53125ZM577.57 10.9297V8C578.039 8.46875 578.469 8.70312 578.859 8.70312H581.859C582.25 8.70312 582.68 8.46875 583.148 8V10.9297C582.68 10.4609 582.25 10.2266 581.859 10.2266H578.859C578.469 10.2266 578.039 10.4609 577.57 10.9297ZM577.57 14.3281V11.3984C578.039 11.8672 578.469 12.1016 578.859 12.1016H581.859C582.25 12.1016 582.68 11.8672 583.148 11.3984V14.3281C582.68 13.8594 582.25 13.625 581.859 13.625H578.859C578.469 13.625 578.039 13.8594 577.57 14.3281ZM599.766 9.03125C600.766 9.07812 601.688 9.34375 602.531 9.82812C603.375 10.2969 604.008 11 604.43 11.9375C604.805 12.8594 604.977 13.8438 604.945 14.8906C604.93 15.9375 604.734 16.9141 604.359 17.8203C603.906 18.9141 603.188 19.7734 602.203 20.3984C601.219 21.0234 600.141 21.2969 598.969 21.2188C597.703 21.1406 596.656 20.6719 595.828 19.8125C595 18.9531 594.617 17.8906 594.68 16.625C594.727 15.5469 595.18 14.6328 596.039 13.8828C596.914 13.1328 597.891 12.8047 598.969 12.8984C599.672 12.9766 600.312 13.2109 600.891 13.6016C601.469 13.9766 601.914 14.4844 602.227 15.125C602.539 15.8281 602.695 16.3984 602.695 16.8359C602.867 16.3047 602.969 15.6094 603 14.75C603.031 14.1406 602.969 13.5781 602.812 13.0625C602.516 12.0312 601.742 11.3672 600.492 11.0703C600.242 11.0078 599.984 10.9609 599.719 10.9297C599.469 10.8984 599.156 10.8906 598.781 10.9062C598.406 10.9219 598.148 10.9375 598.008 10.9531C597.867 10.9531 597.531 10.9844 597 11.0469C596.469 11.0938 596.164 11.125 596.086 11.1406C596.711 10.1719 597.57 8.86719 598.664 7.22656C599.758 5.58594 600.5 4.46875 600.891 3.875H596.672C596.125 3.875 595.664 3.99219 595.289 4.22656C594.93 4.46094 594.477 4.90625 593.93 5.5625C594.336 4.40625 594.539 3.23437 594.539 2.04688H604.336C603.836 2.8125 603.07 3.97656 602.039 5.53906C601.023 7.10156 600.266 8.26562 599.766 9.03125ZM600.938 18.9453C601.219 17.1641 600.898 15.9141 599.977 15.1953C599.445 14.7891 598.867 14.6562 598.242 14.7969C597.617 14.9219 597.133 15.2734 596.789 15.8516C596.523 16.3828 596.477 16.9453 596.648 17.5391C596.836 18.1328 597.18 18.5938 597.68 18.9219C598.086 19.2188 598.609 19.3672 599.25 19.3672C599.891 19.3672 600.453 19.2266 600.938 18.9453ZM613.969 16.2734C614.797 14.5078 615.32 12.7109 615.539 10.8828C615.664 9.91406 615.711 8.63281 615.68 7.03906H609.586C609.039 7.03906 608.578 7.15625 608.203 7.39062C607.844 7.60938 607.391 8.03906 606.844 8.67969C607.25 7.53906 607.453 6.375 607.453 5.1875H618.188C617.906 5.51562 617.703 5.82813 617.578 6.125C617.547 8.59375 617.484 10.2188 617.391 11C617.219 12.875 616.719 14.7969 615.891 16.7656C615.266 18.2188 614.281 20.0391 612.938 22.2266C612.797 22.4766 612.562 22.875 612.234 23.4219C611.906 23.9844 611.664 24.4141 611.508 24.7109C611.086 25.4609 610.758 26.2344 610.523 27.0312C610.32 26 609.867 25.1719 609.164 24.5469C609.414 24.1562 609.742 23.625 610.148 22.9531C610.57 22.2969 610.867 21.8359 611.039 21.5703C612.398 19.3984 613.375 17.6328 613.969 16.2734ZM612.188 2.23438C612.188 1.9375 612.297 1.67969 612.516 1.46094C612.734 1.24219 613 1.13281 613.312 1.13281C613.625 1.13281 613.891 1.24219 614.109 1.46094C614.344 1.67969 614.461 1.9375 614.461 2.23438C614.461 2.54688 614.344 2.82031 614.109 3.05469C613.891 3.27344 613.625 3.38281 613.312 3.38281C613 3.38281 612.734 3.27344 612.516 3.05469C612.297 2.82031 612.188 2.54688 612.188 2.23438ZM615.398 2.23438C615.398 1.9375 615.508 1.67969 615.727 1.46094C615.961 1.24219 616.234 1.13281 616.547 1.13281C616.859 1.13281 617.125 1.24219 617.344 1.46094C617.578 1.67969 617.695 1.9375 617.695 2.23438C617.695 2.54688 617.578 2.82031 617.344 3.05469C617.125 3.27344 616.859 3.38281 616.547 3.38281C616.234 3.38281 615.961 3.27344 615.727 3.05469C615.508 2.82031 615.398 2.54688 615.398 2.23438ZM620.508 21.2656C620.945 20.7188 621.164 20.3047 621.164 20.0234V6.3125C621.164 6.03125 620.945 5.625 620.508 5.09375H632.273C631.836 5.59375 631.617 6 631.617 6.3125V20.0234C631.617 20.3359 631.836 20.75 632.273 21.2656H620.508ZM623.016 6.94531V19.4141H629.766V6.94531H623.016ZM633.773 12.875C634.383 12.4531 634.742 12.0547 634.852 11.6797C634.867 11.6641 635.117 10.7812 635.602 9.03125C636.086 7.28125 636.336 6.39844 636.352 6.38281C636.445 6.05469 636.328 5.66406 636 5.21094H643.125C642.781 5.58594 642.555 5.94531 642.445 6.28906V11.1172C642.445 13.8672 642.336 15.8594 642.117 17.0938C641.867 18.6094 641.102 20.5078 639.82 22.7891C639.117 24.0859 638.688 24.9141 638.531 25.2734C638.062 26.3984 637.781 27.3047 637.688 27.9922C637.328 26.9609 636.719 26.3438 635.859 26.1406C636.016 25.7188 636.172 25.3594 636.328 25.0625C636.812 24.0469 637.266 23.1719 637.688 22.4375C638.203 21.5625 638.562 20.9375 638.766 20.5625C638.969 20.1875 639.219 19.6406 639.516 18.9219C639.828 18.2031 640.047 17.5234 640.172 16.8828C640.438 15.6172 640.57 13.6953 640.57 11.1172C640.57 9.25781 640.562 7.89844 640.547 7.03906H638.109C638.031 7.35156 637.875 7.91406 637.641 8.72656C637.406 9.52344 637.203 10.2188 637.031 10.8125C636.875 11.4062 636.797 11.7109 636.797 11.7266C636.688 12.0078 636.797 12.3906 637.125 12.875H633.773ZM638.18 3.05469C637.961 2.83594 637.852 2.57031 637.852 2.25781C637.852 1.94531 637.961 1.67969 638.18 1.46094C638.414 1.24219 638.688 1.13281 639 1.13281C639.312 1.13281 639.578 1.24219 639.797 1.46094C640.031 1.67969 640.148 1.94531 640.148 2.25781C640.148 2.57031 640.031 2.83594 639.797 3.05469C639.578 3.27344 639.312 3.38281 639 3.38281C638.688 3.38281 638.414 3.27344 638.18 3.05469ZM641.086 2.25781C641.086 1.96094 641.195 1.70313 641.414 1.48438C641.648 1.25 641.922 1.13281 642.234 1.13281C642.547 1.13281 642.812 1.24219 643.031 1.46094C643.25 1.67969 643.359 1.94531 643.359 2.25781C643.359 2.57031 643.25 2.83594 643.031 3.05469C642.812 3.27344 642.547 3.38281 642.234 3.38281C641.922 3.38281 641.648 3.27344 641.414 3.05469C641.195 2.83594 641.086 2.57031 641.086 2.25781ZM647.555 7.01562C646.992 7.01562 646.531 7.13281 646.172 7.36719C645.812 7.58594 645.359 8.01562 644.812 8.65625C645.234 7.53125 645.445 6.375 645.445 5.1875H657.211C657.211 6.34375 657.43 7.5 657.867 8.65625C657.352 8.07812 656.953 7.6875 656.672 7.48438C656.391 7.26562 656.062 7.125 655.688 7.0625C654.75 7.07812 653.875 7.36719 653.062 7.92969C652.266 8.47656 651.656 9.17969 651.234 10.0391C650.609 11.3047 650.5 12.7734 650.906 14.4453C651.109 15.1641 651.398 15.8828 651.773 16.6016C652.164 17.3047 652.688 18.1484 653.344 19.1328C654 20.1016 654.43 20.75 654.633 21.0781L656.414 24.1484C656.383 24.1797 656.281 24.2812 656.109 24.4531C655.938 24.6406 655.812 24.7656 655.734 24.8281C655.672 24.9062 655.555 25.0391 655.383 25.2266C655.211 25.4297 655.07 25.6016 654.961 25.7422C654.867 25.8984 654.75 26.0781 654.609 26.2812C654.469 26.5 654.336 26.7266 654.211 26.9609C654.102 27.2109 653.992 27.4688 653.883 27.7344C653.945 26.8438 653.852 25.9141 653.602 24.9453C653.367 23.9922 653.031 23.0781 652.594 22.2031C652.156 21.3438 651.703 20.5078 651.234 19.6953C650.766 18.8828 650.312 18.0312 649.875 17.1406C649.453 16.2344 649.156 15.4219 648.984 14.7031C648.469 12.4531 648.773 10.4297 649.898 8.63281C650.305 7.92969 650.734 7.39062 651.188 7.01562H647.555ZM651.961 3.05469C651.742 2.82031 651.633 2.54688 651.633 2.23438C651.633 1.92187 651.742 1.65625 651.961 1.4375C652.195 1.21875 652.469 1.10938 652.781 1.10938C653.094 1.10938 653.359 1.22656 653.578 1.46094C653.812 1.67969 653.93 1.9375 653.93 2.23438C653.93 2.54688 653.812 2.82031 653.578 3.05469C653.359 3.27344 653.094 3.38281 652.781 3.38281C652.469 3.38281 652.195 3.27344 651.961 3.05469ZM655.195 3.05469C654.977 2.82031 654.867 2.54688 654.867 2.23438C654.867 1.92187 654.977 1.65625 655.195 1.4375C655.43 1.21875 655.695 1.10938 655.992 1.10938C656.32 1.10938 656.594 1.21875 656.812 1.4375C657.031 1.65625 657.141 1.92187 657.141 2.23438C657.141 2.54688 657.031 2.82031 656.812 3.05469C656.594 3.27344 656.32 3.38281 655.992 3.38281C655.68 3.38281 655.414 3.27344 655.195 3.05469ZM662.273 7.03906C661.711 7.03906 661.242 7.15625 660.867 7.39062C660.492 7.60938 660.039 8.03906 659.508 8.67969C659.945 7.52344 660.164 6.36719 660.164 5.21094H664.875V4.57812C664.875 4.1875 664.594 3.85938 664.031 3.59375C664.75 3.40625 665.258 3.23437 665.555 3.07812C665.852 2.90625 666.336 2.52344 667.008 1.92969C666.82 2.77344 666.727 3.64062 666.727 4.53125V5.21094H671.906C671.906 6.35156 672.117 7.50781 672.539 8.67969C672.008 8.03906 671.555 7.60938 671.18 7.39062C670.82 7.15625 670.359 7.03906 669.797 7.03906H666.727V16.9766C666.727 17.3516 666.766 17.6094 666.844 17.75C666.922 17.875 667.164 18.0859 667.57 18.3828H666.023C664.258 18.3828 663.148 18.2969 662.695 18.125C662.039 17.8594 661.523 17.4141 661.148 16.7891C660.789 16.1641 660.609 15.4844 660.609 14.75C660.609 13.5312 661.102 12.4297 662.086 11.4453C662.414 11.1484 662.992 10.6953 663.82 10.0859C664.43 9.58594 664.781 9.14844 664.875 8.77344V7.03906H662.273ZM664.875 16.5547V11.7031L664.852 11.7266C664.758 11.7891 664.68 11.8359 664.617 11.8672C664.555 11.9141 664.422 12.0156 664.219 12.1719C664.031 12.3125 663.891 12.4219 663.797 12.5C663.703 12.5625 663.578 12.6641 663.422 12.8047C663.266 12.9297 663.148 13.0469 663.07 13.1562C662.992 13.2656 662.906 13.3984 662.812 13.5547C662.734 13.6953 662.68 13.8438 662.648 14C662.477 14.4844 662.469 14.9688 662.625 15.4531C662.797 15.9375 663.125 16.25 663.609 16.3906C663.938 16.5 664.359 16.5547 664.875 16.5547ZM665.367 23.0703C665.523 22.8047 665.836 22.3281 666.305 21.6406C666.773 20.9531 667.125 20.3516 667.359 19.8359C667.609 19.3203 667.766 18.7891 667.828 18.2422C668 16.7734 667.906 15.3594 667.547 14C667.469 13.6094 667.258 13.0078 666.914 12.1953C667.289 11.8047 667.578 11.4062 667.781 11C667.984 10.5781 668.141 10 668.25 9.26562C668.359 9.59375 668.484 10 668.625 10.4844C668.766 10.9531 668.852 11.2266 668.883 11.3047C669.227 12.2891 669.461 13.1797 669.586 13.9766C669.93 15.8359 669.953 17.5391 669.656 19.0859C669.531 19.6484 669.297 20.2656 668.953 20.9375C668.625 21.6094 668.297 22.2031 667.969 22.7188C667.656 23.2344 667.344 23.8281 667.031 24.5C666.734 25.1719 666.547 25.7969 666.469 26.375C666.406 26.9531 666.461 27.6406 666.633 28.4375C665.633 28.2031 664.68 28.3047 663.773 28.7422C664.008 26.3672 664.539 24.4766 665.367 23.0703Z" fill="#797979"/>
</svg>
