<svg width="367" height="50" viewBox="0 0 367 50" fill="none" xmlns="http://www.w3.org/2000/svg">
<path d="M37.2842 24.0523L21.253 8.63478L21.2566 8.64204C19.4498 6.88056 17.0686 5.99611 14.6988 6.00001C12.3324 5.99611 9.95105 6.88056 8.14415 8.64204C6.33381 10.3991 5.42486 12.7117 5.42823 15.0177C5.42486 17.3226 6.33373 19.6386 8.14415 21.3963L11.9276 25.0369C11.8135 25.0335 11.6993 25.0335 11.5855 25.0335C8.48269 25.0335 5.66404 25.7924 3.55508 27.0773C2.50244 27.7215 1.62289 28.4984 0.997297 29.4041C0.368254 30.3064 0 31.3443 0 32.4398V38.5898C0 39.6848 0.368254 40.7232 0.997297 41.6255C1.93958 42.9821 3.43709 44.0591 5.2627 44.8154C7.09176 45.5704 9.25944 45.9961 11.5855 46C14.6841 45.9961 17.5029 45.2377 19.6116 43.9523C20.6677 43.3115 21.5435 42.5313 22.1729 41.6256C22.7988 40.7233 23.1667 39.6848 23.1667 38.5898V35.8442L24.175 36.8149L24.1716 36.8071C25.9782 38.568 28.3596 39.453 30.7293 39.4491C33.0959 39.453 35.477 38.568 37.2842 36.811C39.0945 35.0495 40 32.7373 40 30.4314C40.0001 28.1259 39.0946 25.8132 37.2842 24.0523ZM10.8016 17.6161C9.26707 16.1201 9.26707 13.6606 10.8235 12.1467C11.5741 11.4163 12.5751 11.0119 13.6427 11.0119L10.8016 17.6161ZM1.84006 32.4398C1.84352 31.7347 2.06808 31.062 2.52131 30.4027C2.91888 29.827 3.50367 29.2752 4.23584 28.7852L18.3164 36.8003C17.9962 36.9717 17.6577 37.133 17.3004 37.2798C15.685 37.9491 13.7125 38.3429 11.5857 38.3429C8.74404 38.3468 6.18273 37.6377 4.37608 36.5315C3.4709 35.977 2.75688 35.3284 2.27836 34.6344C2.10126 34.3762 1.95444 34.1152 1.84014 33.8469V32.4398H1.84006ZM21.3268 38.5898C21.3268 39.295 21.0985 39.9683 20.6462 40.6264C19.9684 41.6077 18.7653 42.5167 17.1866 43.1687C15.6114 43.8202 13.6755 44.2105 11.5856 44.2105C8.79576 44.2105 6.28232 43.5121 4.53438 42.4384C3.65828 41.9046 2.97358 41.2784 2.52131 40.6264C2.06817 39.9683 1.84352 39.295 1.84006 38.5898V36.052C2.73054 37.0109 3.94526 37.8097 5.37675 38.4C7.16525 39.1382 9.29606 39.5605 11.5856 39.5605C14.6363 39.5605 17.4037 38.8116 19.4571 37.5587C20.1783 37.1223 20.8077 36.6177 21.3268 36.0553V38.5898ZM21.3268 33.8469C21.3049 33.9006 21.2824 33.9505 21.253 34.0042C21.154 34.2193 21.0322 34.4266 20.8886 34.6343C20.5796 35.0852 20.1636 35.5115 19.6706 35.9086L5.73006 27.9758C5.81472 27.9399 5.89592 27.8968 5.98033 27.8648C7.55543 27.2134 9.49139 26.8231 11.5857 26.8231C12.4097 26.8231 13.2087 26.8841 13.9702 26.9989C15.7883 27.2672 17.4001 27.8397 18.6329 28.5913C18.7838 28.6809 18.9274 28.7778 19.0633 28.8747C19.7295 29.3363 20.2558 29.8481 20.6275 30.382C20.635 30.3887 20.6422 30.3959 20.6462 30.4027C21.0986 31.0619 21.3268 31.7346 21.3268 32.4398V33.8469H21.3268ZM35.7238 35.2891C34.3401 36.6322 32.5401 37.3009 30.7294 37.3009C28.9152 37.3009 27.1159 36.635 25.7318 35.2891L25.7281 35.2857L23.1668 32.8229V32.4398C23.1668 31.3442 22.7989 30.3063 22.173 29.4041C21.3858 28.2766 20.2192 27.3423 18.7984 26.6265C18.9752 26.179 19.1995 25.6916 19.4756 25.1915C20.2558 23.766 21.4262 22.2195 22.9757 21.0316C24.5174 19.8464 26.4131 19.0017 28.7572 18.8724L35.7201 25.5701H35.7238C37.1038 26.916 37.7918 28.6703 37.7918 30.4313C37.7918 32.1928 37.1038 33.9471 35.7238 35.2891Z" fill="#A53AA7"/>
<path d="M83.8594 23.3359C84.1198 24.0911 84.5755 24.6641 85.2266 25.0547C85.8776 25.4453 86.5286 25.6276 87.1797 25.6016C87.8568 25.5495 88.4427 25.3021 88.9375 24.8594C89.4583 24.4167 89.7188 23.8177 89.7188 23.0625C89.7188 20.7448 88.0911 19.3255 84.8359 18.8047L83.6641 22.3594L81.2422 21.6562L82.1016 18.6094H81.8281C81.6719 18.6354 81.5286 18.6484 81.3984 18.6484C79.9661 18.7786 78.6901 19.0391 77.5703 19.4297V41.8906C77.5703 43.0365 77.7135 44.4427 78 46.1094C76.9062 45.1719 76.112 44.5729 75.6172 44.3125C75.1224 44.0521 74.25 43.7396 73 43.375C73.9375 42.9583 74.4062 42.4245 74.4062 41.7734V20.875C73.4948 21.3698 72.4401 22.2161 71.2422 23.4141C70.8516 21.7214 70.1875 20.3932 69.25 19.4297C69.4323 19.3776 70.8646 18.7135 73.5469 17.4375C73.8594 17.2812 74.1458 17.1771 74.4062 17.125V6.22656C74.4062 5.65365 74.0156 4.97656 73.2344 4.19531H78.6641C77.9349 4.97656 77.5703 5.65365 77.5703 6.22656V16.1094C78.2214 15.901 79.0417 15.7578 80.0312 15.6797C80.9427 15.5755 81.9323 15.5234 83 15.5234C83.5729 13.3359 83.8854 12.0469 83.9375 11.6562C83.9635 11.2396 83.9245 10.7318 83.8203 10.1328C83.7422 9.53385 83.651 9.05208 83.5469 8.6875L83.3906 8.10156L88.6641 10.7969C87.8568 11.6302 87.2188 12.5807 86.75 13.6484C86.6719 13.8307 86.5417 14.1823 86.3594 14.7031C86.1771 15.224 86.0469 15.6016 85.9688 15.8359C88.2865 16.2786 90.0964 17.2943 91.3984 18.8828C92.3359 20.0547 92.8047 21.4219 92.8047 22.9844C92.8307 24.5469 92.3359 25.901 91.3203 27.0469C90.5651 27.8281 89.6406 28.362 88.5469 28.6484C87.4792 28.9349 86.4115 28.9609 85.3438 28.7266C83.9115 28.4401 82.2708 27.3984 80.4219 25.6016C81.2031 25.5755 81.8932 25.3542 82.4922 24.9375C83.1172 24.5208 83.5729 23.987 83.8594 23.3359ZM118.078 22.4766H115.344V40.6406C115.344 42.4115 115.539 43.7396 115.93 44.625C114.549 44.8854 112.844 45.9141 110.812 47.7109C111.385 46.6172 111.75 45.5365 111.906 44.4688C112.089 43.401 112.18 41.8776 112.18 39.8984V22.4766H107.531V33.9609C107.531 34.5599 107.922 35.224 108.703 35.9531H106.359C106.203 35.9531 105.891 35.9531 105.422 35.9531C104.953 35.9531 104.602 35.9531 104.367 35.9531C104.133 35.9531 103.794 35.9401 103.352 35.9141C102.935 35.9141 102.583 35.888 102.297 35.8359C102.036 35.8099 101.737 35.7708 101.398 35.7188C101.06 35.6667 100.747 35.5885 100.461 35.4844C100.201 35.3802 99.9661 35.263 99.7578 35.1328C97.6484 33.8047 96.6719 31.5781 96.8281 28.4531C97.0104 25.7188 98.0391 23.4661 99.9141 21.6953C100.982 20.6536 102.219 19.9635 103.625 19.625C103.938 19.5469 104.198 19.5078 104.406 19.5078V12.3984H102.766C101.828 12.3984 101.047 12.5938 100.422 12.9844C99.8229 13.349 99.0547 14.0651 98.1172 15.1328C98.8464 13.2057 99.2109 11.2656 99.2109 9.3125H108.703C107.922 10.0938 107.531 10.7708 107.531 11.3438V19.3906H112.18V17.5156C112.18 16.8646 111.737 16.3307 110.852 15.9141C112.023 15.5755 112.857 15.276 113.352 15.0156C113.872 14.7292 114.693 14.1042 115.812 13.1406C115.5 14.7552 115.344 16.1875 115.344 17.4375V19.3906H118.078C118.729 19.3906 119.172 19.3125 119.406 19.1562C119.667 19 120.057 18.5573 120.578 17.8281V23.9219C120.083 23.2448 119.706 22.8411 119.445 22.7109C119.211 22.5547 118.755 22.4766 118.078 22.4766ZM104.406 32.8672V22.75C103.964 22.8542 103.651 22.9453 103.469 23.0234C102.245 23.6224 101.359 24.5208 100.812 25.7188C100.37 26.7083 100.109 27.737 100.031 28.8047C99.9531 29.8724 100.188 30.875 100.734 31.8125C101.359 32.5677 102.583 32.9193 104.406 32.8672ZM127.688 18.8047C126.75 18.8047 125.982 19 125.383 19.3906C124.784 19.7552 124.029 20.4714 123.117 21.5391C123.794 19.638 124.133 17.7109 124.133 15.7578H128.117V8.33594C128.117 7.73698 127.648 7.20312 126.711 6.73438C127.909 6.42188 128.768 6.13542 129.289 5.875C129.81 5.58854 130.63 4.97656 131.75 4.03906C131.359 5.54948 131.164 6.96875 131.164 8.29688V15.6797C133.69 15.6276 135.578 15.7969 136.828 16.1875C138.26 16.6823 139.263 17.5417 139.836 18.7656C140.435 19.9896 140.643 21.3698 140.461 22.9062C140.357 23.8698 140.109 25.237 139.719 27.0078C139.354 28.7786 139.146 29.7682 139.094 29.9766C138.833 31.5391 138.651 32.8672 138.547 33.9609C138.391 35.3151 138.469 36.526 138.781 37.5938C137.661 36.5781 136.229 35.7057 134.484 34.9766C135.109 32.7109 135.969 29.0781 137.062 24.0781C137.167 23.6094 137.245 23.2188 137.297 22.9062C137.349 22.5938 137.375 22.2161 137.375 21.7734C137.401 21.3047 137.362 20.9271 137.258 20.6406C137.18 20.3281 137.01 20.0286 136.75 19.7422C136.516 19.4557 136.203 19.2474 135.812 19.1172C134.771 18.8047 133.221 18.7005 131.164 18.8047V33.8438C131.164 34.3125 131.542 34.9896 132.297 35.875H126.945C127.727 34.9896 128.117 34.3125 128.117 33.8438V18.8047H127.688ZM143.703 24.4297C143.599 24.0911 142.844 21.8776 141.438 17.7891C140.057 13.7005 139.315 11.5521 139.211 11.3438L137.844 9.42969H142.414C142.284 10.1849 142.336 10.9141 142.57 11.6172C142.648 11.8776 143.26 13.5573 144.406 16.6562C145.578 19.7292 146.216 21.3958 146.32 21.6562C146.451 21.9948 146.607 22.3073 146.789 22.5938C146.971 22.8802 147.128 23.0885 147.258 23.2188L147.453 23.4141L144.406 28.2188C144.224 26.6562 143.99 25.3932 143.703 24.4297ZM168.469 9.66406C172.089 10.7839 173.99 14.3516 174.172 20.3672C174.224 22.112 174.133 23.6094 173.898 24.8594C173.586 26.8646 172.701 29.026 171.242 31.3438C170.904 31.8906 170.37 32.737 169.641 33.8828C168.911 35.0286 168.339 35.9401 167.922 36.6172C167.505 37.3203 167.036 38.2188 166.516 39.3125C166.021 40.4062 165.63 41.474 165.344 42.5156C164.432 40.7448 163.391 39.612 162.219 39.1172C163.13 37.5547 163.768 36.474 164.133 35.875C164.289 35.6146 165.539 33.8047 167.883 30.4453C169.341 28.3359 170.253 26.3828 170.617 24.5859C170.852 23.4141 170.969 22.2422 170.969 21.0703C170.969 15.5755 169.445 12.6979 166.398 12.4375C165.643 12.3854 164.927 12.5156 164.25 12.8281C163.599 13.1406 162.974 13.6615 162.375 14.3906C161.776 15.0938 161.32 15.6797 161.008 16.1484C160.695 16.6172 160.292 17.2812 159.797 18.1406L159.328 19.1953V33.5703C159.328 34.2474 159.38 34.6901 159.484 34.8984C159.615 35.1328 160.018 35.4844 160.695 35.9531H154.602C155.331 35.4323 155.76 35.0547 155.891 34.8203C156.047 34.612 156.125 34.1953 156.125 33.5703L156.164 25.6797C155.956 26.2005 155.747 26.6823 155.539 27.125C154.315 29.7031 152.922 32.2422 151.359 34.7422C150.891 33.0755 150.266 31.7344 149.484 30.7188C150.083 29.9375 150.669 29.0521 151.242 28.0625C151.633 27.3073 152.167 26.2396 152.844 24.8594C153.521 23.4792 153.977 22.5677 154.211 22.125C154.445 21.6042 154.797 20.862 155.266 19.8984C155.734 18.9349 156.021 18.3359 156.125 18.1016V12.3203H154.328C153.365 12.3203 152.57 12.5156 151.945 12.9062C151.346 13.2708 150.591 13.987 149.68 15.0547C150.383 13.1797 150.734 11.2526 150.734 9.27344H156.125V6.57812C156.125 5.95312 156.047 5.52344 155.891 5.28906C155.734 5.02865 155.305 4.63802 154.602 4.11719H160.695C160.044 4.61198 159.654 4.97656 159.523 5.21094C159.393 5.44531 159.328 5.90104 159.328 6.57812V13.0625C159.823 12.3854 160.5 11.7083 161.359 11.0312C162.375 10.1979 163.508 9.66406 164.758 9.42969C166.008 9.19531 167.245 9.27344 168.469 9.66406ZM184.523 12.3984C183.612 12.3984 182.844 12.5938 182.219 12.9844C181.594 13.349 180.826 14.0651 179.914 15.1328C180.591 13.2578 180.93 11.3307 180.93 9.35156H195.148C195.148 11.3307 195.5 13.2578 196.203 15.1328C195.292 14.0651 194.523 13.349 193.898 12.9844C193.299 12.5938 192.531 12.3984 191.594 12.3984H184.523ZM179.172 46.3438C178.859 44.2604 177.974 42.6589 176.516 41.5391C179.328 37.4766 181.62 34.2995 183.391 32.0078C183.938 31.3307 184.771 30.3021 185.891 28.9219C187.01 27.5417 187.844 26.513 188.391 25.8359C188.547 25.6276 188.885 25.2109 189.406 24.5859C189.927 23.9609 190.344 23.4401 190.656 23.0234C190.995 22.5807 191.307 22.138 191.594 21.6953C192.375 20.4193 192.427 19.5599 191.75 19.1172C191.151 18.7266 190.174 18.5312 188.82 18.5312C188.404 18.5312 187.154 18.6615 185.07 18.9219C183.768 19.1302 182.701 19.4557 181.867 19.8984C182.18 18.362 181.698 17.0469 180.422 15.9531C180.969 16.0573 181.529 16.1224 182.102 16.1484C182.701 16.1484 183.182 16.1224 183.547 16.0703C183.938 16.0182 184.419 15.9401 184.992 15.8359C185.565 15.7318 185.982 15.6667 186.242 15.6406C188.039 15.5104 189.51 15.4974 190.656 15.6016C191.724 15.7578 192.688 16.1224 193.547 16.6953C194.406 17.2682 194.953 18.0365 195.188 19C195.526 20.3542 195.161 21.8776 194.094 23.5703C193.312 24.8203 191.385 27.3333 188.312 31.1094C189.641 31.1094 190.878 31.3177 192.023 31.7344C194.367 32.724 195.669 35.1068 195.93 38.8828C196.008 39.7943 196.411 40.3802 197.141 40.6406C197.896 40.9271 198.924 41.0573 200.227 41.0312C199.784 41.8646 199.51 42.5286 199.406 43.0234C199.328 43.5443 199.432 44.2344 199.719 45.0938C196.776 44.8073 194.758 44 193.664 42.6719C192.883 41.6823 192.466 40.4323 192.414 38.9219C192.414 37.6458 192.284 36.6693 192.023 35.9922C191.685 35.0547 190.904 34.5208 189.68 34.3906C188.794 34.3125 187.518 34.2995 185.852 34.3516C183.091 38.0234 181.177 41.2266 180.109 43.9609C179.797 44.6901 179.484 45.4844 179.172 46.3438ZM224.016 25.5234C225.656 26.7474 227.049 27.2682 228.195 27.0859C227.935 28.7526 227.74 29.8203 227.609 30.2891C227.062 32.4245 226.086 33.987 224.68 34.9766C223.508 35.7578 222.219 36.0964 220.812 35.9922C219.406 35.888 218.143 35.4323 217.023 34.625C216.086 33.974 215.305 33.0755 214.68 31.9297C214.081 30.7839 213.69 29.8464 213.508 29.1172C213.326 28.362 213.091 27.1901 212.805 25.6016C212.753 25.3411 212.714 25.1458 212.688 25.0156C212.583 24.4427 212.44 23.6615 212.258 22.6719C212.102 21.6823 211.997 21.0312 211.945 20.7188C211.242 22.5156 210.448 24.5599 209.562 26.8516C208.703 29.1172 208.026 30.888 207.531 32.1641L206.789 34.0781C206.581 34.5729 206.711 35.25 207.18 36.1094H201.008C202.31 35.1979 203.039 34.4818 203.195 33.9609C203.221 33.9089 205.031 29.2734 208.625 20.0547C212.219 10.8099 214.029 6.13542 214.055 6.03125C214.263 5.45833 214.094 4.80729 213.547 4.07812H219.836C219.289 4.41667 218.794 4.79427 218.352 5.21094C217.935 5.6276 217.688 5.9401 217.609 6.14844L217.18 7.28125C216.893 8.01042 216.451 9.15625 215.852 10.7188C215.253 12.2552 214.693 13.7005 214.172 15.0547C214.302 15.862 214.497 17.0469 214.758 18.6094C215.044 20.1458 215.201 21.0182 215.227 21.2266C215.305 21.6172 215.422 22.2812 215.578 23.2188C215.76 24.1562 215.891 24.8854 215.969 25.4062C216.203 27.0729 216.516 28.375 216.906 29.3125C217.193 30.1198 217.635 30.849 218.234 31.5C218.833 32.125 219.497 32.5156 220.227 32.6719C220.956 32.8281 221.672 32.75 222.375 32.4375C223.078 32.125 223.599 31.6172 223.938 30.9141C224.198 30.3411 224.38 29.5208 224.484 28.4531C224.536 27.9323 224.549 27.5156 224.523 27.2031C224.523 26.8646 224.354 26.3047 224.016 25.5234ZM247.414 37.5156C247.102 38.3229 246.971 39.0651 247.023 39.7422C247.076 40.4453 247.375 41.1224 247.922 41.7734C247.635 41.6953 247.258 41.6042 246.789 41.5C246.346 41.4219 245.943 41.3568 245.578 41.3047C245.214 41.2786 244.862 41.2396 244.523 41.1875C244.211 41.1615 244.042 41.1484 244.016 41.1484C242.479 40.9922 240.995 40.6667 239.562 40.1719C236.542 39.0521 234.432 37.151 233.234 34.4688C233.104 34.1823 232.987 33.8698 232.883 33.5312C232.805 33.1927 232.74 32.8802 232.688 32.5938C232.635 32.2812 232.583 31.9036 232.531 31.4609C232.479 30.9922 232.44 30.6276 232.414 30.3672C232.414 30.1068 232.401 29.7031 232.375 29.1562C232.375 28.5833 232.375 28.1927 232.375 27.9844C232.375 27.776 232.375 27.3724 232.375 26.7734C232.375 26.1484 232.375 25.7708 232.375 25.6406V6.53906C232.375 5.86198 232.31 5.40625 232.18 5.17188C232.049 4.91146 231.659 4.54688 231.008 4.07812H237.141C236.438 4.57292 236.008 4.9375 235.852 5.17188C235.721 5.40625 235.656 5.86198 235.656 6.53906V29.1172C235.656 30.4714 235.773 31.526 236.008 32.2812C236.503 34.2344 237.792 35.6536 239.875 36.5391C242.479 37.6849 244.992 38.0104 247.414 37.5156ZM238.742 5.64062C238.378 5.25 238.195 4.79427 238.195 4.27344C238.195 3.7526 238.378 3.3099 238.742 2.94531C239.107 2.55469 239.549 2.35938 240.07 2.35938C240.591 2.35938 241.034 2.55469 241.398 2.94531C241.763 3.3099 241.945 3.7526 241.945 4.27344C241.945 4.79427 241.75 5.25 241.359 5.64062C240.995 6.00521 240.565 6.1875 240.07 6.1875C239.549 6.1875 239.107 6.00521 238.742 5.64062ZM244.055 5.64062C243.69 5.25 243.508 4.79427 243.508 4.27344C243.508 3.7526 243.69 3.3099 244.055 2.94531C244.419 2.55469 244.862 2.35938 245.383 2.35938C245.904 2.35938 246.346 2.55469 246.711 2.94531C247.076 3.3099 247.258 3.7526 247.258 4.27344C247.258 4.79427 247.062 5.25 246.672 5.64062C246.307 6.00521 245.878 6.1875 245.383 6.1875C244.862 6.1875 244.419 6.00521 244.055 5.64062ZM262.492 9.39062H266.984C268.625 9.39062 270.083 9.27344 271.359 9.03906C269.927 10.3932 268.99 11.8776 268.547 13.4922C268.286 13.1016 267.909 12.8151 267.414 12.6328C266.945 12.4505 266.542 12.3594 266.203 12.3594H261.711C260.044 12.3594 258.573 12.4896 257.297 12.75C258.885 11.2656 259.823 9.76823 260.109 8.25781C260.604 9.01302 261.398 9.39062 262.492 9.39062ZM251.203 35.8359C251.932 35.1068 252.297 34.4557 252.297 33.8828V8.25781C252.297 7.63281 251.841 7.09896 250.93 6.65625C252.128 6.34375 252.974 6.05729 253.469 5.79688C253.964 5.51042 254.771 4.88542 255.891 3.92188C255.578 5.48438 255.422 6.89062 255.422 8.14062V33.8828C255.422 34.4297 255.799 35.0807 256.555 35.8359H251.203ZM261.867 17.9844C261.581 19.2083 261.411 21.0312 261.359 23.4531C261.359 24.9115 261.385 25.7448 261.438 25.9531C261.594 26.5 262.167 27.099 263.156 27.75C266.516 29.9115 268.247 31.0312 268.352 31.1094C270.513 32.75 271.932 33.7526 272.609 34.1172C270.865 34.9766 269.602 36.0443 268.82 37.3203C268.716 36.8516 268.56 36.4089 268.352 35.9922C268.143 35.6016 267.818 35.1849 267.375 34.7422C266.932 34.3255 266.646 34.0651 266.516 33.9609C266.385 33.8307 266.047 33.5312 265.5 33.0625C265.031 32.6979 264.159 32.138 262.883 31.3828C261.633 30.6276 260.721 29.9766 260.148 29.4297C259.393 28.7266 258.898 27.9583 258.664 27.125C258.43 26.2656 258.299 25.1979 258.273 23.9219C258.221 21.3177 258.052 19.3906 257.766 18.1406C259.38 18.4531 260.747 18.401 261.867 17.9844ZM279.641 12.4766C278.677 12.4766 277.883 12.6589 277.258 13.0234C276.659 13.388 275.904 14.0911 274.992 15.1328C275.721 13.2318 276.086 11.3307 276.086 9.42969H282.414V8.375C282.414 7.72396 281.971 7.1901 281.086 6.77344C282.31 6.40885 283.169 6.09635 283.664 5.83594C284.159 5.54948 284.953 4.95052 286.047 4.03906C285.734 5.60156 285.578 7.02083 285.578 8.29688V9.42969H295.812C295.812 11.4089 296.164 13.3099 296.867 15.1328C295.956 14.0911 295.188 13.388 294.562 13.0234C293.964 12.6589 293.182 12.4766 292.219 12.4766H285.578V15.6016C287.714 15.3151 289.732 15.6406 291.633 16.5781C293.534 17.4896 294.901 18.9479 295.734 20.9531C296.594 22.9583 296.893 25.0547 296.633 27.2422C296.372 29.4557 295.878 31.3177 295.148 32.8281C294.497 34.2083 293.365 36.1224 291.75 38.5703C290.708 40.1589 289.797 41.9427 289.016 43.9219C288.234 45.9271 287.857 47.6589 287.883 49.1172C287.154 47.9974 286.255 47.0469 285.188 46.2656L284.133 45.5625C284.289 45.224 284.745 44.2995 285.5 42.7891C286.333 41.0964 287.414 39.2604 288.742 37.2812C288.846 37.125 289.107 36.7214 289.523 36.0703C289.94 35.4453 290.201 35.0286 290.305 34.8203C290.435 34.612 290.682 34.2214 291.047 33.6484C291.411 33.0495 291.659 32.6068 291.789 32.3203C291.919 32.0339 292.115 31.6172 292.375 31.0703C292.635 30.5234 292.831 30.0677 292.961 29.7031C293.091 29.3125 293.221 28.8698 293.352 28.375C293.482 27.8542 293.573 27.3594 293.625 26.8906C293.885 24.8073 293.547 22.9583 292.609 21.3438C291.672 19.7292 290.188 18.7917 288.156 18.5312C287.141 18.401 286.281 18.401 285.578 18.5312V22.2031C285.578 23.9479 285.76 25.263 286.125 26.1484C284.771 26.4089 283.065 27.4245 281.008 29.1953C281.607 28.1016 281.984 27.0208 282.141 25.9531C282.323 24.8854 282.414 23.375 282.414 21.4219V19.7422L281.945 20.1328C279.81 21.7995 278.547 24.0651 278.156 26.9297C278.13 27.5286 278.091 28.2448 278.039 29.0781C277.987 29.9115 278.104 30.7188 278.391 31.5C278.703 32.2812 279.185 32.724 279.836 32.8281C280.643 32.9583 281.724 32.5807 283.078 31.6953C284.198 30.8099 285.148 29.7812 285.93 28.6094C287.336 26.4219 288.026 24 288 21.3438C288.781 22.0729 289.354 22.5156 289.719 22.6719C290.292 22.9062 290.956 22.9583 291.711 22.8281C290.227 27.125 288.599 30.237 286.828 32.1641C286.281 32.763 285.682 33.3099 285.031 33.8047C284.38 34.2995 283.625 34.7422 282.766 35.1328C281.906 35.5495 281.086 35.7448 280.305 35.7188C279.523 35.7188 278.716 35.5104 277.883 35.0938C276.346 34.1823 275.474 32.3724 275.266 29.6641C275.135 27.8932 275.266 26.3047 275.656 24.8984C276.177 23.0495 277.023 21.3698 278.195 19.8594C279.393 18.3229 280.799 17.1901 282.414 16.4609V12.4766H279.641Z" fill="#A53AA7"/>
<path d="M366.857 35.6268L363.295 31.1482V12.3134C363.295 11.4023 362.556 10.6634 361.645 10.6634H332.355C331.444 10.6634 330.706 11.4023 330.706 12.3134V31.1482L327.144 35.6268C327.051 35.7435 327 35.8881 327 36.0381V38.0203C327 38.7478 327.589 39.3367 328.316 39.3367H365.684C366.411 39.3367 367 38.7478 367 38.0203V36.0381C367 35.8881 366.95 35.7435 366.857 35.6268ZM333.033 12.9915H360.967V28.8201H333.033V12.9915ZM350.759 37.7711H343.241V35.7807H350.759V37.7711Z" fill="#A53AA7"/>
<path d="M342.969 18.0806C342.96 18.0806 342.951 18.0834 342.945 18.0881L338.451 21.1557C338.439 21.1645 338.432 21.1774 338.432 21.1922V22.0169C338.432 22.0317 338.439 22.0453 338.451 22.0527L342.945 25.1203C342.952 25.1257 342.96 25.1285 342.969 25.1285C342.976 25.1285 342.983 25.1264 342.989 25.1231C343.003 25.1156 343.012 25.1007 343.012 25.0846V23.7702C343.012 23.7568 343.005 23.7425 342.993 23.7344L339.873 21.6042L342.993 19.4746C343.005 19.4659 343.012 19.453 343.012 19.4382V18.1245C343.012 18.1083 343.003 18.0928 342.989 18.0861C342.983 18.082 342.976 18.0806 342.969 18.0806Z" fill="#A53AA7"/>
<path d="M350.912 18.0881C350.905 18.0834 350.897 18.0806 350.887 18.0806C350.88 18.0806 350.874 18.082 350.867 18.0861C350.853 18.0928 350.844 18.1083 350.844 18.1245V19.4389C350.844 19.4531 350.851 19.4666 350.863 19.4746L353.983 21.6042L350.863 23.7344C350.851 23.7425 350.844 23.7567 350.844 23.7708V25.0845C350.844 25.1007 350.853 25.1155 350.867 25.123C350.874 25.1264 350.88 25.1284 350.887 25.1284C350.897 25.1284 350.905 25.1257 350.912 25.1203L355.405 22.0526C355.418 22.0452 355.425 22.0317 355.425 22.0168V21.1921C355.425 21.1773 355.418 21.1644 355.405 21.1557L350.912 18.0881Z" fill="#A53AA7"/>
<path d="M348.982 17.3613H347.726C347.708 17.3613 347.691 17.3727 347.685 17.3903L344.833 25.662C344.828 25.6748 344.831 25.6896 344.839 25.7004C344.847 25.7119 344.86 25.7193 344.874 25.7193H346.13C346.149 25.7193 346.165 25.7071 346.171 25.6896L349.023 17.4194C349.028 17.4059 349.026 17.391 349.018 17.3795C349.009 17.368 348.996 17.3613 348.982 17.3613Z" fill="#A53AA7"/>
</svg>
